<svg xmlns="http://www.w3.org/2000/svg" width="1074.431" height="428.751"><defs><style>.c{fill:none;stroke:#3f3d56;stroke-miterlimit:10}.d{fill:#7b7ddd}</style></defs><g transform="translate(0 -155.481)"><ellipse cx="527.5" cy="34.922" rx="527.5" ry="34.922" transform="translate(13.143 514.388)" fill="#f5f6f9"/><path d="M520.426 167.009c-85.944 0-147.651 55.139-147.651 183.8 0 145.813 61.707 184.411 147.651 184.411s151.327-42.273 151.327-184.411c0-151.941-65.383-183.8-151.327-183.8zm.565 319.808c-59.527 0-90.626-34.923-90.626-135.916 0-89.112 32.372-136.1 91.9-136.1s91.9 30.868 91.9 136.1c0 98.448-33.648 135.914-93.174 135.914zm-199.68-53.302h-35.534V328.877a20.956 20.956 0 00-20.956-20.956h-8.326a20.956 20.956 0 00-20.956 20.956v104.638h-100.23a11.963 11.963 0 01-10.578-17.552l106.082-200.78a20.956 20.956 0 00-9.58-28.739l-6.262-2.957a20.956 20.956 0 00-27.429 9.07L58.16 434.59a28.416 28.416 0 00-3.356 13.4 28.416 28.416 0 0028.416 28.416h152.319v66.167a25.119 25.119 0 0025.119 25.119 25.119 25.119 0 0025.119-25.119v-66.171h35.534a21.443 21.443 0 0021.443-21.443 21.443 21.443 0 00-21.444-21.444zm657.997 0h-35.534V328.877a20.956 20.956 0 00-20.956-20.956h-8.326a20.956 20.956 0 00-20.956 20.956v104.638H793.305a11.963 11.963 0 01-10.578-17.552l106.082-200.78a20.956 20.956 0 00-9.58-28.739l-6.262-2.957a20.956 20.956 0 00-27.429 9.07L716.157 434.59a28.417 28.417 0 00-3.356 13.4 28.416 28.416 0 0028.416 28.416h152.318v66.167a25.119 25.119 0 0025.119 25.119 25.119 25.119 0 0025.119-25.119v-66.171h35.534a21.443 21.443 0 0021.443-21.443 21.443 21.443 0 00-21.443-21.443z" fill="#5857bc"/><path class="c" d="M331.114 421.263H295.58V316.624a20.956 20.956 0 00-20.956-20.956h-8.326a20.955 20.955 0 00-20.952 20.952v104.643H145.111a11.963 11.963 0 01-10.577-17.548l106.082-200.784a20.956 20.956 0 00-9.58-28.739l-6.262-2.957a20.956 20.956 0 00-27.429 9.07L67.963 422.337a28.417 28.417 0 00-3.356 13.4 28.416 28.416 0 0028.416 28.416h152.323v66.162a25.119 25.119 0 0025.119 25.119 25.118 25.118 0 0025.114-25.119v-66.166h35.534a21.443 21.443 0 0021.443-21.443 21.443 21.443 0 00-21.443-21.443zm666.574 0h-35.534V316.624a20.956 20.956 0 00-20.956-20.956h-8.326a20.956 20.956 0 00-20.956 20.956v104.639H811.685a11.963 11.963 0 01-10.578-17.548l106.083-200.78a20.956 20.956 0 00-9.58-28.739l-6.264-2.961a20.956 20.956 0 00-27.429 9.07L734.536 422.337a28.415 28.415 0 00-3.356 13.4 28.416 28.416 0 0028.416 28.416h152.319v66.162a25.119 25.119 0 0025.119 25.119 25.119 25.119 0 0025.119-25.119v-66.166h35.534a21.443 21.443 0 0021.443-21.443 21.443 21.443 0 00-21.442-21.443zM540.031 155.981c-85.944 0-147.651 55.139-147.651 183.8 0 145.813 61.707 184.411 147.651 184.411s151.327-42.277 151.327-184.413c0-151.939-65.383-183.798-151.327-183.798zm.565 319.808c-59.527 0-90.626-34.923-90.626-135.916 0-89.112 32.372-136.1 91.9-136.1s91.9 30.868 91.9 136.1c0 98.447-33.645 135.916-93.172 135.916z"/><path class="d" d="M1006.864 419.549a20.813 20.813 0 102.772-39.915l.521 10.712-5.068-9.18a20.734 20.734 0 00-10.684 11.723 20.4 20.4 0 00-1.2 5.63 20.809 20.809 0 0013.659 21.03z"/><path class="c" d="M1031.946 543.793c-1.789-9.11 5.963-17.187 13.621-22.437s16.6-10.408 19.218-19.317c3.755-12.8-7.43-24.53-16.136-34.642a125.3 125.3 0 01-16.524-24.557c-1.811-3.533-3.476-7.225-3.952-11.166-.686-5.675 1.137-11.323 2.974-16.737q9.179-27.052 19.628-53.65"/><path class="c" d="M1007.721 416.791a20.813 20.813 0 102.772-39.915l.521 10.712-5.068-9.18a20.734 20.734 0 00-10.684 11.723 20.414 20.414 0 00-1.2 5.63 20.808 20.808 0 0013.659 21.03z"/><path class="d" d="M1029.397 357.588a20.788 20.788 0 0114.98-13.2l1.714 10.184 3.177-10.7a20.81 20.81 0 11-19.871 13.71z"/><path class="c" d="M1030.54 353.915a20.789 20.789 0 0114.98-13.2l1.714 10.184 3.177-10.7a20.81 20.81 0 11-19.871 13.71z"/><path class="d" d="M1044.991 467.604a20.81 20.81 0 0018.419-37.023l-2.441 8.219-1.731-10.3a.362.362 0 00-.053-.02 20.811 20.811 0 00-14.194 39.127z"/><path class="c" d="M1045.981 463.879a20.81 20.81 0 0018.419-37.023l-2.441 8.219-1.731-10.3a.369.369 0 00-.053-.02 20.811 20.811 0 00-14.194 39.127z"/><path class="d" d="M1023.324 502.166a20.8 20.8 0 104.011-16.3l9.273 13.957-12.67-7.408a20.616 20.616 0 00-.613 9.749z"/><path class="c" d="M1024.181 499.409a20.8 20.8 0 104.011-16.3l9.273 13.957-12.67-7.408a20.617 20.617 0 00-.613 9.749z"/><path class="d" d="M9.007 470.248a13.674 13.674 0 101.821-26.225l.342 7.038-3.33-6.032a13.623 13.623 0 00-7.019 7.7 13.409 13.409 0 00-.787 3.7 13.672 13.672 0 008.972 13.818z"/><path class="c" d="M25.484 551.878c-1.175-5.986 3.918-11.292 8.949-14.741s10.91-6.838 12.626-12.692c2.467-8.412-4.882-16.117-10.6-22.76a82.321 82.321 0 01-10.856-16.135 22.211 22.211 0 01-2.6-7.336c-.451-3.729.747-7.439 1.954-11q6.031-17.773 12.9-35.249"/><path class="c" d="M9.571 468.436a13.674 13.674 0 101.821-26.221l.342 7.038-3.33-6.032a13.623 13.623 0 00-7.019 7.7 13.41 13.41 0 00-.787 3.7 13.672 13.672 0 008.973 13.818z"/><path class="d" d="M23.812 429.538a13.658 13.658 0 019.842-8.671l1.126 6.691 2.087-7.027a13.673 13.673 0 11-13.055 9.007z"/><path class="c" d="M24.563 427.122a13.658 13.658 0 019.842-8.671l1.126 6.691 2.088-7.027a13.673 13.673 0 11-13.055 9.007z"/><path class="d" d="M34.058 501.821a13.673 13.673 0 0012.1-24.325l-1.6 5.4-1.137-6.77a.225.225 0 00-.035-.013 13.673 13.673 0 10-9.326 25.702z"/><path class="c" d="M34.708 499.374a13.673 13.673 0 0012.1-24.325l-1.6 5.4-1.137-6.77a.24.24 0 00-.035-.013 13.673 13.673 0 10-9.326 25.707z"/><path class="d" d="M19.822 524.529a13.667 13.667 0 102.635-10.708l6.092 9.17-8.324-4.867a13.545 13.545 0 00-.4 6.4z"/><path class="c" d="M20.385 522.715a13.667 13.667 0 102.635-10.708l6.092 9.17-8.324-4.862a13.545 13.545 0 00-.4 6.4z"/><path d="M540.946 369.315a4.936 4.936 0 01-1.32 3.392 4.339 4.339 0 01-3.18 1.408h-10a4.664 4.664 0 01-4.5-4.8 4.9 4.9 0 01.82-2.741 47.026 47.026 0 016.68-.459 47.668 47.668 0 0111.13 1.28 5.067 5.067 0 01.37 1.92z" fill="#fff"/></g></svg>