<svg xmlns="http://www.w3.org/2000/svg" xmlns:xlink="http://www.w3.org/1999/xlink" width="733.895" height="631.361"><defs><linearGradient id="a" x1="-13.852" y1="3.512" x2="-13.852" y2="2.512" gradientUnits="objectBoundingBox"><stop offset="0" stop-color="gray" stop-opacity=".251"/><stop offset=".54" stop-color="gray" stop-opacity=".122"/><stop offset="1" stop-color="gray" stop-opacity=".102"/></linearGradient><linearGradient id="b" x1="-14.487" y1="3.972" x2="-14.487" y2="2.972" xlink:href="#a"/><linearGradient id="c" x1="-15.813" y1="3.547" x2="-15.813" y2="2.547" xlink:href="#a"/><linearGradient id="d" x1="-16.199" y1="3.374" x2="-16.199" y2="2.375" xlink:href="#a"/><linearGradient id="e" x1=".5" y1="1" x2=".5" y2="0" xlink:href="#a"/><style>.a{fill:#ababe9}.a,.d,.j{opacity:.1}.ak{fill:#7b7ddd}.e,.g{fill:#6c63ff}.f{fill:#f9fafb}.g{opacity:.3}.h{fill:#464a5f}.i{fill:#9c9ca1}.k{fill:#939498}.n{opacity:.2}.ai{fill:#f0cbc6}.am{fill:#ffb9b9}.ao{opacity:.05}.ap{fill:#f5f6f9}.aq{fill:#caa8b1}.at{fill:#6c6b75}.au{fill:#5857bc}.aw{fill:#767d9f}.ax{fill:#6e6d84}</style></defs><g transform="translate(1.154)"><ellipse class="a" cx="90.949" cy="20.756" rx="90.949" ry="20.756" transform="translate(256.05 582.842)"/><path d="M203.889 41.588c22.347-19.891 57.424-23.977 89.357-22.385 100.29 5 190.8 53.4 269.128 108.162 28.307 19.83 56.261 41.2 74.661 68.494 37.487 55.581 26.348 132.575-25.744 178.363-17.718 15.576-39.2 27.542-61.257 38.107-39.216 18.82-81.531 33.937-126.041 38.252-31.734 3.06-63.866.574-95.424-3.71-88.156-11.95-174.69-38.39-247.224-83.627-31.841-19.853-61.793-44.5-74.906-76.635s-4.72-72.74 27.763-91.737c13.434-7.857 29.492-11.407 45.222-14.735 23.15-4.9 46.668-9.739 67.553-19.715 21.574-10.3 47.127-30.212 42.843-53-4.572-24.461-8.248-45.943 14.069-65.834z" opacity=".401" fill="#7b7ddd"/><path d="M174.48 156.322l-15.064 5.83-22.026 8.515a140.145 140.145 0 00-3.573-6.12c-5.218-8.645-13.855-22.1-21.536-33.914-8.652-13.351-16.111-24.575-16.111-24.575l5.4-1.53 44.06-12.776z" fill="#e6ecf8"/><path class="d" d="M174.481 156.321l-15.064 5.83a113.63 113.63 0 01-25.6 2.356c-5.218-8.645-13.855-22.1-21.536-33.914l-10.709-26.119 44.059-12.776z"/><path class="e" d="M185.681 152.726s-23.41 13.847-58.365 10.711L99.453 95.508l13.358-2.3 46.163-7.926 26.18 66.115z"/><path class="d" d="M185.168 151.379a110.166 110.166 0 01-18.3-.52c-6.947-.819-13.931-2.494-19.891-5.585a60.217 60.217 0 01-13.006-8.744c-9.708-8.729-15.714-21.222-21.108-43.34l46.163-7.926z"/><path class="f" d="M202.344 147.585s-17.267 3.382-34.817 1.3a58.6 58.6 0 01-19.891-5.585 60.683 60.683 0 01-13.006-8.744c-12.011-10.81-18.361-27.373-24.895-60.829 0 0 28.682 6.885 57.034-8.247-.038.031 9.525 59.704 35.575 82.105z"/><path class="d" d="M167.526 148.901a58.6 58.6 0 01-19.891-5.585 60.683 60.683 0 01-13.006-8.741c10.229-.834 11.7-6.426 11.7-6.426 7.549 12.015 21.197 20.752 21.197 20.752z"/><path class="g" d="M124.531 86.006s23.326-1.316 29.837-6.342l.995 3.167s-15.416 6.8-30.831 6.885zm0 15.661s22.584-1.232 39.645-9.479l.581 1.324s-13.549 7.9-40.226 9.946zm1.813 6.12s22.592-1.239 39.652-9.479l.574 1.316s-13.541 7.9-40.226 9.946zm1.821 6.113s22.584-1.232 39.645-9.479l.581 1.324s-13.549 7.9-40.226 9.946zm1.813 6.12s22.592-1.239 39.652-9.479l.574 1.316s-13.541 7.9-40.226 9.946zm1.821 6.113s22.584-1.232 39.645-9.479l.581 1.324s-13.549 7.9-40.226 9.946z"/><path class="h" d="M732.221 218.366l.451.329.069-.712-.3-.635-.482.077z"/><path class="d" d="M732.221 218.366l.451.329.069-.712-.3-.635-.482.077z"/><path class="i" d="M732.221 218.367l.444.337-.306.513-.436-.092-.13-.176z"/><path class="d" d="M732.221 218.367l.444.337-.306.513-.436-.092-.13-.176z"/><path class="i" d="M648.35 158.915l-35.881 49.91a4.192 4.192 0 00.941 5.83l76.6 55.519a4.185 4.185 0 005.83-.918l36.516-50.042z"/><path class="d" d="M648.35 158.915l-35.881 49.91a4.192 4.192 0 00.941 5.83l76.6 55.519a4.185 4.185 0 005.83-.918l36.516-50.042z"/><path class="i" d="M648.212 158.081l-35.881 49.912a4.185 4.185 0 00.941 5.822l76.573 55.512a4.185 4.185 0 005.83-.926l36.516-50.034z"/><path class="h" d="M647.769 127.174l.949 30.51 84 60.3-.8-31.046a4.444 4.444 0 00-1.882-3.527l-80.858-57a.888.888 0 00-1.415.757z"/><path class="d" d="M647.769 127.174l.949 30.51 84 60.3-.8-31.046a4.444 4.444 0 00-1.882-3.527l-80.858-57a.888.888 0 00-1.415.757z"/><path class="h" d="M647.263 127.549l.949 30.533 84 60.3-.819-31.046a4.453 4.453 0 00-1.89-3.527l-80.85-57a.88.88 0 00-1.392.734z"/><path d="M650.653 171.76l-2.173 3.06a.842.842 0 00.191 1.163l3.06 2.3a.834.834 0 001.163-.168l2.2-2.877a.834.834 0 00-.145-1.171l-3.121-2.463a.834.834 0 00-1.171.161zm5.661 4.075l-2.173 3.06a.841.841 0 00.191 1.163l3.06 2.3a.834.834 0 001.163-.168l2.2-2.877a.834.834 0 00-.145-1.171l-3.091-2.456a.834.834 0 00-1.2.153zm5.945 4.264l-2.173 3.06a.842.842 0 00.191 1.163l3.06 2.3a.834.834 0 001.163-.168l2.2-2.877a.842.842 0 00-.145-1.171l-3.121-2.456a.834.834 0 00-1.171.153zm6.013 4.323l-2.173 3.06a.842.842 0 00.184 1.163l3.06 2.3a.834.834 0 001.163-.168l2.2-2.877a.842.842 0 00-.145-1.171l-3.121-2.456a.834.834 0 00-1.163.153zm6.013 4.322l-2.173 3.06a.841.841 0 00.183 1.163l3.06 2.3a.841.841 0 001.17-.168l2.2-2.877a.842.842 0 00-.146-1.171l-3.121-2.456a.834.834 0 00-1.171.153zm6.281 3.94l-2.693 3.828a.4.4 0 00.084.543l3.825 2.8a.39.39 0 00.543-.077l2.731-3.58a.39.39 0 00-.069-.543l-3.825-3.06a.4.4 0 00-.6.092zm6.013 4.322l-2.693 3.825a.4.4 0 00.084.543l3.825 2.8a.39.39 0 00.543-.077l2.731-3.58a.39.39 0 00-.069-.543l-3.825-3.06a.4.4 0 00-.6.092zm5.325 3.826l-2.7 3.825a.39.39 0 00.092.543l3.825 2.8a.4.4 0 00.551-.077l2.731-3.573a.4.4 0 00-.069-.551l-3.825-3.06a.39.39 0 00-.6.092zm5.96 4.284l-2.693 3.825a.382.382 0 00.084.543l3.825 2.8a.4.4 0 00.551-.077l2.731-3.573a.4.4 0 00-.069-.551l-3.825-3.022a.39.39 0 00-.6.054zm5.753 4.154l-2.693 3.825a.39.39 0 00.092.543l3.825 2.808a.39.39 0 00.543-.084l2.731-3.573a.4.4 0 00-.069-.551l-3.825-3.022a.4.4 0 00-.6.054zm5.791 4.146l-2.693 3.825a.4.4 0 00.084.543l3.825 2.8a.39.39 0 00.543-.077l2.731-3.58a.39.39 0 00-.069-.543l-3.825-3.022a.39.39 0 00-.6.054zm5.777 4.155l-2.7 3.825a.39.39 0 00.092.543l3.825 2.808a.4.4 0 00.551-.084l2.731-3.573a.4.4 0 00-.069-.551l-3.825-3.06a.39.39 0 00-.6.092zm-68.488-40.318l-2.165 3.06a.842.842 0 00.184 1.163l3.06 2.3a.849.849 0 001.171-.168l2.2-2.877a.842.842 0 00-.145-1.171l-3.121-2.463a.849.849 0 00-1.184.156zm-8.629 12.012l-2.165 3.06a.842.842 0 00.184 1.163l3.06 2.3a.849.849 0 001.171-.161l2.2-2.877a.842.842 0 00-.145-1.171l-3.121-2.463a.842.842 0 00-1.184.149zm14.291-7.942l-2.173 3.06a.841.841 0 00.184 1.163l3.06 2.3a.849.849 0 001.171-.168l2.2-2.877a.842.842 0 00-.145-1.171l-3.121-2.463a.842.842 0 00-1.176.156zm5.944 4.3l-2.165 3.06a.842.842 0 00.184 1.163l3.06 2.3a.849.849 0 001.171-.161l2.2-2.877a.842.842 0 00-.145-1.171l-3.121-2.464a.842.842 0 00-1.184.15zm6.013 4.3l-2.165 3.06a.841.841 0 00.184 1.163l3.06 2.3a.849.849 0 001.171-.161l2.2-2.884a.834.834 0 00-.145-1.163l-3.121-2.463a.842.842 0 00-1.178.153zm-20.449 3.221l-2.165 3.06a.841.841 0 00.184 1.163l3.06 2.3a.849.849 0 001.17-.161l2.2-2.884a.834.834 0 00-.146-1.163l-3.121-2.463a.842.842 0 00-1.182.148zm5.944 4.268l-2.165 3.06a.842.842 0 00.184 1.163l3.06 2.3a.849.849 0 001.171-.168l2.2-2.877a.842.842 0 00-.145-1.171l-3.121-2.463a.849.849 0 00-1.178.161zm6.013 4.322l-2.165 3.06a.842.842 0 00.183 1.163l3.06 2.3a.849.849 0 001.171-.168l2.2-2.877a.841.841 0 00-.153-1.171l-3.113-2.465a.842.842 0 00-1.183.158zm14.506-7.49l-2.165 3.06a.842.842 0 00.184 1.163l3.06 2.3a.849.849 0 001.171-.161l2.2-2.884a.834.834 0 00-.145-1.163l-3.091-2.517a.842.842 0 00-1.209.207zm6.013 4.316l-2.165 3.06a.842.842 0 00.184 1.163l3.06 2.3a.849.849 0 001.171-.161l2.2-2.884a.834.834 0 00-.145-1.163l-3.121-2.463a.842.842 0 00-1.184.148zm6.288 3.94l-2.7 3.825a.39.39 0 00.092.543l3.825 2.8a.4.4 0 00.551-.076l2.731-3.573a.4.4 0 00-.069-.551l-3.825-3.06a.39.39 0 00-.6.092zm5.318 3.824l-2.693 3.825a.39.39 0 00.092.543l3.825 2.8a.382.382 0 00.543-.077l2.731-3.573a.4.4 0 00-.069-.551l-3.825-3.06a.4.4 0 00-.6.092zm5.968 4.285l-2.7 3.825a.39.39 0 00.092.543l3.825 2.8a.383.383 0 00.543-.077l2.731-3.573a.4.4 0 00-.069-.551l-3.825-3.022a.39.39 0 00-.6.054zm5.768 4.154l-2.693 3.825a.4.4 0 00.084.543l3.825 2.8a.39.39 0 00.543-.077l2.731-3.58a.39.39 0 00-.069-.543l-3.825-3.06a.4.4 0 00-.6.092zm-45.477-23.456l-2.173 3.06a.842.842 0 00.184 1.163l3.06 2.3a.841.841 0 001.17-.168l2.2-2.877a.842.842 0 00-.146-1.171l-3.075-2.471a.834.834 0 00-1.217.168zm6.008 4.323l-2.173 3.06a.841.841 0 00.184 1.163l3.06 2.3a.842.842 0 001.171-.168l2.2-2.877a.842.842 0 00-.145-1.171l-3.121-2.456a.834.834 0 00-1.17.153zm6.005 4.322l-2.165 3.06a.842.842 0 00.184 1.163l3.06 2.3a.842.842 0 001.171-.168l2.2-2.877a.849.849 0 00-.145-1.17l-3.121-2.456a.842.842 0 00-1.184.148zm6.029 4.323l-2.165 3.06a.842.842 0 00.184 1.163l3.06 2.3a.841.841 0 001.17-.168l2.2-2.877a.842.842 0 00-.146-1.171l-3.121-2.456a.842.842 0 00-1.182.149zm6.273 3.94l-2.693 3.825a.383.383 0 00.084.543l3.825 2.8a.4.4 0 00.551-.077l2.731-3.58a.39.39 0 00-.069-.543l-3.825-3.022a.39.39 0 00-.6.054zm5.325 3.825l-2.7 3.825a.39.39 0 00.092.543l3.825 2.8a.4.4 0 00.551-.077l2.724-3.568a.382.382 0 00-.069-.551l-3.825-3.022a.382.382 0 00-.6.054zm5.999 4.284l-2.7 3.825a.39.39 0 00.092.543l3.825 2.8a.4.4 0 00.551-.077l2.731-3.573a.4.4 0 00-.069-.551l-3.825-3.06a.382.382 0 00-.6.092zm5.73 4.15l-2.693 3.825a.4.4 0 00.084.551l3.825 2.8a.4.4 0 00.543-.077l2.731-3.58a.39.39 0 00-.069-.543l-3.825-3.06a.4.4 0 00-.6.084zm9.884-1.564l-2.7 3.825a.39.39 0 00.092.543l3.825 2.8a.39.39 0 00.551-.076l2.731-3.573a.4.4 0 00-.069-.551l-3.825-3.022a.4.4 0 00-.6.054zm5.807 4.154l-2.693 3.825a.4.4 0 00.084.551l3.825 2.8a.4.4 0 00.543-.076l2.731-3.58a.39.39 0 00-.069-.543l-3.825-3.06a.4.4 0 00-.6.084zm-25.928-.521l-2.54 3.573a.52.52 0 00.122.727l3.58 2.647a.52.52 0 00.765-.1l2.57-3.366a.52.52 0 00-.092-.765l-3.619-2.861a.528.528 0 00-.788.145zm5.776 4.146l-2.54 3.58a.52.52 0 00.115.727l3.588 2.647a.535.535 0 00.765-.107l2.571-3.366a.528.528 0 00-.092-.765l-3.626-2.854a.52.52 0 00-.78.138zm5.768 4.148l-2.54 3.58a.528.528 0 00.122.765l3.588 2.647a.52.52 0 00.765-.1l2.571-3.374a.513.513 0 00-.092-.727l-3.619-2.861a.536.536 0 00-.8.069zm5.853 4.04l-2.693 3.825a.4.4 0 00.092.551l3.825 2.8a.39.39 0 00.543-.077l2.731-3.58a.39.39 0 00-.069-.543l-3.825-3.06a.4.4 0 00-.6.084zm-60.323-51.947l-2.3 3.282a.841.841 0 00.2 1.171l8.982 6.4a.834.834 0 001.147-.176l2.448-3.19a.834.834 0 00-.184-1.193l-9.127-6.488a.834.834 0 00-1.171.2zm58.823 41.752l-2.823 4.016a.39.39 0 00.092.543l9.708 6.885a.4.4 0 00.543-.084l2.984-3.9a.39.39 0 00-.084-.558l-9.869-7.015a.39.39 0 00-.551.113zm-39.292-18.969l-2.7 3.733a.406.406 0 00.084.551l21.039 15.515a.4.4 0 00.543-.077l2.968-3.894a.39.39 0 00-.084-.558l-21.284-15.354a.39.39 0 00-.566.084z"/><path class="h" d="M650.561 171.194l-2.173 3.06a.842.842 0 00.184 1.163l3.06 2.3a.842.842 0 001.171-.161l2.2-2.877a.834.834 0 00-.145-1.171l-3.121-2.463a.834.834 0 00-1.171.153zm5.661 4.07l-2.173 3.06a.841.841 0 00.184 1.163l3.06 2.3a.834.834 0 001.163-.161l2.2-2.877a.834.834 0 00-.145-1.171l-3.121-2.463a.834.834 0 00-1.168.149zm5.945 4.242l-2.157 3.06a.842.842 0 00.184 1.163l3.06 2.3a.849.849 0 001.171-.168l2.2-2.877a.834.834 0 00-.145-1.171l-3.122-2.463a.841.841 0 00-1.186.161zm6.013 4.349l-2.173 3.06a.842.842 0 00.183 1.163l3.06 2.3a.849.849 0 001.171-.168l2.2-2.877a.834.834 0 00-.145-1.171l-3.121-2.463a.834.834 0 00-1.171.161zm6.005 4.323l-2.165 3.06a.841.841 0 00.184 1.163l3.06 2.3a.849.849 0 001.171-.168l2.2-2.877a.842.842 0 00-.145-1.171l-3.122-2.468a.849.849 0 00-1.183.161zm6.289 3.94l-2.693 3.825a.39.39 0 00.084.543l3.825 2.8a.4.4 0 00.551-.077l2.731-3.58a.39.39 0 00-.069-.543l-3.825-3.06a.4.4 0 00-.6.092zm6.013 4.323l-2.693 3.825a.39.39 0 00.084.551l3.825 2.8a.405.405 0 00.551-.077l2.731-3.58a.39.39 0 00-.069-.543l-3.825-3.06a.4.4 0 00-.6.084zm5.325 3.825l-2.7 3.825a.39.39 0 00.092.543l3.825 2.8a.4.4 0 00.551-.077l2.731-3.58a.39.39 0 00-.069-.543l-3.825-3.06a.39.39 0 00-.6.092zm5.96 4.284l-2.7 3.825a.39.39 0 00.092.543l3.825 2.8a.4.4 0 00.551-.077l2.731-3.58a.39.39 0 00-.069-.543l-3.825-3.06a.4.4 0 00-.6.092zm5.768 4.147l-2.693 3.825a.4.4 0 00.084.543l3.825 2.8a.382.382 0 00.543-.077l2.731-3.573a.4.4 0 00-.069-.551l-3.825-3.022a.4.4 0 00-.6.054zm5.777 4.154l-2.693 3.825a.382.382 0 00.084.543l3.825 2.8a.4.4 0 00.551-.077l2.731-3.58a.39.39 0 00-.069-.543l-3.825-3.06a.4.4 0 00-.6.092zm5.775 4.138l-2.7 3.825a.39.39 0 00.092.543l3.825 2.8a.39.39 0 00.543-.077l2.731-3.573a.39.39 0 00-.069-.551l-3.825-3.022a.39.39 0 00-.6.054zm-68.487-40.302l-2.165 3.06a.842.842 0 00.184 1.163l3.06 2.3a.849.849 0 001.171-.168l2.2-2.877a.842.842 0 00-.145-1.171l-3.121-2.463a.849.849 0 00-1.184.156zm-8.629 11.997l-2.173 3.06a.849.849 0 00.191 1.163l3.06 2.3a.834.834 0 001.163-.161l2.2-2.884a.834.834 0 00-.153-1.163l-3.114-2.463a.841.841 0 00-1.174.148zm14.29-7.927l-2.167 3.061a.842.842 0 00.184 1.163l3.06 2.3a.849.849 0 001.171-.168l2.2-2.877a.842.842 0 00-.146-1.171l-3.121-2.463a.849.849 0 00-1.181.155zm5.945 4.269l-2.165 3.06a.842.842 0 00.184 1.163l3.06 2.3a.842.842 0 001.171-.168l2.2-2.877a.849.849 0 00-.145-1.17l-3.091-2.471a.841.841 0 00-1.209.168zm6.016 4.323l-2.165 3.06a.842.842 0 00.184 1.163l3.06 2.3a.841.841 0 001.17-.168l2.2-2.877a.849.849 0 00-.146-1.171l-3.121-2.456a.841.841 0 00-1.182.149zm-20.453 3.221l-2.165 3.06a.842.842 0 00.184 1.163l3.06 2.3a.841.841 0 001.171-.168l2.2-2.877a.842.842 0 00-.153-1.171l-3.114-2.456a.842.842 0 00-1.183.149zm5.945 4.277l-2.165 3.06a.834.834 0 00.183 1.155l3.06 2.3a.842.842 0 001.163-.168l2.2-2.877a.842.842 0 00-.153-1.171l-3.114-2.463a.842.842 0 00-1.174.164zm6.017 4.321l-2.173 3.06a.842.842 0 00.191 1.155l3.06 2.3a.841.841 0 001.163-.168l2.2-2.877a.842.842 0 00-.153-1.171l-3.075-2.471a.841.841 0 00-1.216.176zm14.501-7.497l-2.165 3.06a.842.842 0 00.184 1.163l3.06 2.3a.841.841 0 001.171-.168l2.2-2.877a.842.842 0 00-.153-1.171l-3.045-2.471a.841.841 0 00-1.247.168zm6.014 4.323l-2.165 3.06a.841.841 0 00.184 1.163l3.06 2.3a.834.834 0 001.163-.168l2.2-2.877a.842.842 0 00-.153-1.17l-3.114-2.456a.842.842 0 00-1.178.153zm6.29 3.94l-2.7 3.825a.39.39 0 00.092.543l3.825 2.8a.4.4 0 00.551-.077l2.731-3.58a.383.383 0 00-.076-.543l-3.825-3.022a.382.382 0 00-.6.053zm5.316 3.825l-2.693 3.825a.4.4 0 00.084.543l3.825 2.8a.39.39 0 00.543-.077l2.731-3.573a.4.4 0 00-.069-.551l-3.825-3.022a.39.39 0 00-.6.054zm5.959 4.284l-2.693 3.825a.4.4 0 00.084.543l3.825 2.8a.39.39 0 00.543-.077l2.731-3.573a.4.4 0 00-.069-.551l-3.825-3.022a.39.39 0 00-.6.054zm5.776 4.155l-2.693 3.825a.39.39 0 00.084.543l3.825 2.808a.4.4 0 00.543-.076l2.731-3.58a.4.4 0 00-.069-.551l-3.825-3.022a.4.4 0 00-.6.054zm-45.489-23.456l-2.165 3.06a.842.842 0 00.183 1.163l3.06 2.3a.842.842 0 001.171-.168l2.2-2.877a.842.842 0 00-.145-1.171l-3.121-2.456a.842.842 0 00-1.183.149zm6.013 4.322l-2.165 3.06a.842.842 0 00.184 1.163l3.06 2.3a.841.841 0 001.17-.168l2.2-2.877a.842.842 0 00-.146-1.171l-3.121-2.456a.842.842 0 00-1.178.153zm6.013 4.331l-2.165 3.06a.841.841 0 00.184 1.163l3.06 2.3a.849.849 0 001.171-.168l2.2-2.877a.841.841 0 00-.145-1.171l-3.121-2.463a.849.849 0 00-1.184.156zm6.013 4.314l-2.165 3.06a.842.842 0 00.184 1.163l3.06 2.3a.849.849 0 001.171-.168l2.2-2.877a.842.842 0 00-.145-1.171l-3.121-2.463a.849.849 0 00-1.184.156zm6.29 3.94l-2.7 3.825a.39.39 0 00.092.543l3.825 2.8a.4.4 0 00.551-.077l2.731-3.58a.39.39 0 00-.069-.543l-3.825-3.06a.4.4 0 00-.6.092zm5.293 3.825l-2.693 3.825a.39.39 0 00.092.543l3.825 2.8a.39.39 0 00.543-.076l2.731-3.58a.39.39 0 00-.069-.543l-3.825-3.06a.4.4 0 00-.6.092zm5.99 4.284l-2.7 3.825a.39.39 0 00.092.543l3.825 2.8a.39.39 0 00.543-.077l2.731-3.58a.383.383 0 00-.069-.543l-3.825-3.06a.39.39 0 00-.6.092zm5.769 4.154l-2.693 3.825a.4.4 0 00.084.543l3.825 2.808a.39.39 0 00.543-.084l2.731-3.573a.4.4 0 00-.069-.551l-3.825-3.06a.4.4 0 00-.6.092zm9.884-1.568l-2.7 3.825a.39.39 0 00.092.543l3.825 2.8a.4.4 0 00.551-.077l2.731-3.573a.4.4 0 00-.069-.551l-3.825-3.022a.383.383 0 00-.6.054zm5.769 4.154l-2.693 3.825a.4.4 0 00.084.543l3.825 2.808a.39.39 0 00.543-.084l2.731-3.573a.4.4 0 00-.069-.551l-3.825-3.06a.4.4 0 00-.6.092zm-25.882-.528l-2.54 3.58a.52.52 0 00.115.727l3.588 2.647a.535.535 0 00.765-.107l2.571-3.366a.528.528 0 00-.092-.765l-3.619-2.854a.535.535 0 00-.788.138zm5.761 4.155l-2.532 3.573a.536.536 0 00.115.765l3.588 2.647a.52.52 0 00.765-.107l2.578-3.366a.528.528 0 00-.1-.765l-3.619-2.854a.528.528 0 00-.8.107zm5.776 4.146l-2.54 3.58a.528.528 0 00.122.727l3.58 2.647a.528.528 0 00.765-.107l2.571-3.366a.52.52 0 00-.092-.765l-3.619-2.854a.536.536 0 00-.788.138zm5.853 4.039l-2.693 3.825a.4.4 0 00.084.543l3.825 2.808a.39.39 0 00.543-.084l2.731-3.573a.4.4 0 00-.069-.551l-3.825-3.06a.4.4 0 00-.6.092zm-60.362-51.946l-2.3 3.282a.842.842 0 00.2 1.171l8.989 6.4a.842.842 0 001.155-.176l2.448-3.19a.834.834 0 00-.184-1.193l-9.127-6.488a.842.842 0 00-1.186.2zm58.862 41.756l-2.823 4.016a.39.39 0 00.092.543l9.708 6.885a.39.39 0 00.535-.084l2.992-3.9a.39.39 0 00-.084-.558l-9.869-7.015a.39.39 0 00-.551.115zm-39.292-18.973l-2.716 3.733a.4.4 0 00.084.551l21.039 15.515a.39.39 0 00.543-.084l2.968-3.894a.39.39 0 00-.084-.558l-21.288-15.347a.39.39 0 00-.551.084z"/><path class="d" d="M649.52 209.462l-11.9 16.471a2.134 2.134 0 00.459 2.968l30.724 22.714a2.142 2.142 0 003-.459l12.287-16.831a2.135 2.135 0 00-.474-3l-31.112-22.375a2.142 2.142 0 00-2.984.513z"/><path class="k" d="M649.428 208.896l-11.912 16.464a2.15 2.15 0 00.467 2.976l30.725 22.718a2.142 2.142 0 003-.459l12.287-16.831a2.142 2.142 0 00-.482-3l-31.1-22.378a2.142 2.142 0 00-2.985.51z"/><path class="e" d="M650.966 132.522l.513 25.759 77.6 55.6-.689-25.514a4.468 4.468 0 00-1.821-3.5l-74.21-53.079a.887.887 0 00-1.392.742z"/><rect width="46.698" height="69.436" rx="2.91" transform="rotate(-35.68 420.78 137.4)" fill="#3a3768"/><rect class="d" width="38.727" height="13.648" rx=".18" transform="rotate(-35.68 427.916 127.784)"/><rect width="38.145" height="13.205" rx="3.35" transform="rotate(-35.68 428.193 127.263)" fill="#e6e8ec"/><rect class="d" width="7.704" height="8.561" rx="1.39" transform="rotate(-35.68 457.282 116.015)"/><rect class="d" width="7.675" height="8.529" rx="1.385" transform="rotate(-35.605 452.44 103.142)"/><rect class="d" width="7.704" height="8.561" rx="1.39" transform="rotate(-35.68 447.865 86.766)"/><rect class="d" width="7.704" height="8.561" rx="1.59" transform="rotate(-35.68 443.448 72.049)"/><rect class="d" width="7.704" height="8.561" rx="1.39" transform="rotate(-35.68 471.91 111.322)"/><rect class="d" width="7.704" height="8.561" rx="1.39" transform="rotate(-35.68 467.197 96.683)"/><rect class="d" width="7.704" height="8.561" rx="1.39" transform="rotate(-35.68 462.485 82.066)"/><rect class="d" width="7.704" height="8.561" rx="1.39" transform="rotate(-35.68 488.049 106.108)"/><rect class="d" width="7.704" height="8.561" rx="1.39" transform="rotate(-35.68 483.335 91.492)"/><rect class="d" width="7.704" height="8.561" rx="1.39" transform="rotate(-35.68 478.644 76.864)"/><rect class="d" width="7.704" height="8.561" rx="1.39" transform="rotate(-35.68 494.781 71.673)"/><rect class="d" width="7.704" height="8.561" rx=".91" transform="rotate(-35.68 458.062 67.348)"/><rect class="d" width="17.114" height="8.561" rx="2.18" transform="rotate(-35.68 504.185 100.926)"/><rect class="d" width="8.438" height="18.95" rx="2.07" transform="rotate(-35.68 474.29 63.391)"/><path class="e" d="M39.362 263.216l2.74-1.968.215.298-2.74 1.968zm-4.011 2.876l2.74-1.968.215.298-2.74 1.968zm-4.012 2.877l2.74-1.968.215.298-2.74 1.968zm-4.006 2.884l2.74-1.968.215.298-2.74 1.968z"/><g class="j"><path d="M483.283 51.931h-47.777a2.5 2.5 0 00-2.494 2.494v30.212a2.509 2.509 0 002.494 2.5h37.487s.972 5.149-2.219 5.707c0 0 7.146.513 5.9-5.707h6.61a2.509 2.509 0 002.5-2.5V54.425a2.509 2.509 0 00-2.5-2.494z"/><g class="n" transform="translate(440.05 59.941)"><rect width="38.696" height="2.356" rx="1.178"/><rect width="38.696" height="2.356" rx="1.178" transform="translate(0 10.542)"/><rect width="32.453" height="2.356" rx="1.178" transform="translate(0 15.813)"/><rect width="16.777" height="2.356" rx="1.178" transform="translate(0 5.271)"/></g></g><path class="f" d="M483.695 51.74h-47.768a2.5 2.5 0 00-2.5 2.494v30.181a2.5 2.5 0 002.5 2.517h37.487s.972 5.156-2.219 5.707c0 0 7.138.513 5.891-5.707h6.625a2.5 2.5 0 002.494-2.494V54.219a2.5 2.5 0 00-2.51-2.479z"/><g class="n" transform="translate(440.464 59.735)"><rect class="e" width="38.696" height="2.356" rx="1.178"/><rect class="e" width="38.696" height="2.356" rx="1.178" transform="translate(0 10.542)"/><rect class="e" width="32.453" height="2.356" rx="1.178" transform="translate(0 15.806)"/><rect class="e" width="16.777" height="2.356" rx="1.178" transform="translate(0 5.271)"/></g><g class="j"><path d="M529.401.482h-57.455a3.007 3.007 0 00-3 3.06v36.263a3.007 3.007 0 003 3.007h45.076s1.163 6.2-2.67 6.885c0 0 8.591.612 7.084-6.885h7.964a3.014 3.014 0 003.007-3.007V3.542a3.007 3.007 0 00-3.006-3.06z"/><g class="n" transform="translate(477.408 10.137)"><rect width="46.545" height="2.838" rx="1.419"/><rect width="38.405" height="2.838" rx="1.419" transform="translate(0 12.677)"/><rect width="27.649" height="2.838" rx="1.419" transform="translate(0 6.342)"/></g></g><path class="f" d="M530.15 0h-57.455a3.007 3.007 0 00-3 3.007v36.3a3.007 3.007 0 003 3h45.077s1.163 6.2-2.67 6.885c0 0 8.591.62 7.092-6.885h7.962a3.014 3.014 0 003.007-3v-36.3A3.014 3.014 0 00530.155 0z"/><g class="n" transform="translate(478.158 9.64)"><rect class="e" width="46.545" height="2.838" rx="1.419"/><rect class="e" width="38.405" height="2.838" rx="1.419" transform="translate(0 12.677)"/><rect class="e" width="27.649" height="2.838" rx="1.419" transform="translate(0 6.335)"/></g><path d="M154.146 394.909l51.893-19.386a4.927 4.927 0 016.35 2.9 4.935 4.935 0 01-2.892 6.35l-51.893 19.386-11.124-1.117z" fill="#be8b87"/><path d="M210.82 376.884a4.942 4.942 0 01-2.892 6.358l-51.893 19.386-8.347-.841-1.208 1.277 11.124 1.117 51.893-19.386a4.935 4.935 0 002.892-6.35 4.919 4.919 0 00-2.02-2.471 4.807 4.807 0 01.451.91z" fill="#fff" opacity=".1"/><path d="M154.158 394.909l3.458 9.249-9.127-.918-2-.2 2.724-2.892z" fill="#efc8c4"/><path d="M149.211 400.149a2 2 0 01.528.581.834.834 0 010 .9 2.12 2.12 0 01-.5.359 1.668 1.668 0 00-.765 1.247l-2-.2z" fill="#727a9c"/><path transform="rotate(-14.452 1643.241 -1674.68)" fill="url(#a)" d="M0 0h17.059v55.79H0z"/><path class="f" d="M470.571 357.337l15.703-4.047 13.736 53.297-15.703 4.047z"/><path fill="#f7b643" d="M473.096 357.582l11.102-2.861 2.862 11.102-11.103 2.861z"/><path fill="#f7b643" opacity=".5" d="M476.122 368.798l11.075-2.887 2.887 11.075-11.075 2.887z"/><path fill="#f7b643" opacity=".3" d="M479.605 382.169l11.075-2.887 2.887 11.075-11.075 2.887z"/><path transform="rotate(-32.95 849.08 -585.417)" fill="url(#b)" d="M0 0h17.03v55.489H0z"/><path class="f" d="M455.652 367.66l13.584-8.805 29.773 45.934-13.584 8.805z"/><path fill="#f97878" d="M458.136 367.108l9.604-6.225 6.225 9.604-9.604 6.225z"/><path fill="#f97878" opacity=".5" d="M465.655 378.696l9.604-6.225 6.225 9.604-9.604 6.225z"/><path fill="#f97878" opacity=".3" d="M473.173 390.294l9.604-6.225 6.225 9.604-9.604 6.225z"/><path transform="rotate(-44.65 682.759 -357.713)" fill="url(#c)" d="M0 0h17.03v55.489H0z"/><path class="f" d="M449.09 376.463l11.516-11.377 38.47 38.943-11.517 11.376z"/><path fill="#73b53b" d="M451.406 375.429l8.142-8.043 8.043 8.142-8.142 8.043z"/><path fill="#73b53b" opacity=".5" d="M461.113 385.255l8.142-8.043 8.043 8.142-8.142 8.043z"/><path fill="#73b53b" opacity=".3" d="M470.815 395.083l8.142-8.043 8.043 8.142-8.142 8.043z"/><path transform="rotate(-51.85 617.311 -266.289)" fill="url(#d)" d="M0 0h17.03v55.489H0z"/><path fill="#fff" d="M446.024 383.442l10-12.73 43.046 33.813-10 12.73z"/><path class="e" d="M448.189 382.123l7.07-9 9 7.07-7.07 9z"/><path opacity=".5" fill="#6c63ff" d="M459.051 390.659l7.07-9 9 7.07-7.07 9z"/><path class="g" d="M469.925 399.188l7.07-9 9 7.07-7.07 9z"/><path class="ai" d="M630.394 429.381a11.812 11.812 0 106.133 6.651 11.812 11.812 0 00-6.133-6.651zm-8.039 17.367a7.314 7.314 0 115.6.231 7.314 7.314 0 01-5.6-.231z"/><path class="ai" d="M615.781 399.071l-21.98 15.462a10.763 10.763 0 00-4.644 8.806c0 5.554 2.532 13.893 14.651 21.421a10.963 10.963 0 0011.866-.191l21.421-14.329z"/><path class="ai" d="M640.074 429.107c-3.527 2.93-11.889-1.362-18.69-9.578s-9.464-17.237-5.937-20.159 11.9 1.369 18.705 9.578c.428.528.857 1.056 1.247 1.584l.444.6a31.514 31.514 0 015.447 11.04c.076.367.153.727.2 1.079.403 2.596-.025 4.716-1.416 5.856z"/><ellipse class="f" cx="6.702" cy="15.615" rx="6.702" ry="15.615" transform="rotate(-39.63 870.353 -646.909)"/><path class="d" d="M638.427 425.396c-.054.1-.115.191-.168.283a3.06 3.06 0 01-.543.581c-1.737 1.446-4.934.719-8.416-1.53l-.359-.245a28.446 28.446 0 01-3.244-2.616 35.072 35.072 0 01-3.106-3.313 28.091 28.091 0 01-1.828-2.4 29.964 29.964 0 01-2.18-3.626 1.2 1.2 0 01-.076-.138c-2.3-4.506-2.685-8.507-.712-10.137 2.854-2.364 9.624 1.109 15.125 7.75a26.867 26.867 0 011.821 2.41c.122.161.237.329.344.5 3.395 5.022 4.742 9.987 3.342 12.481z"/><path class="d" d="M641.288 422.175a4.9 4.9 0 01-2.509 2.356l-.352.122a3.906 3.906 0 01-.765.153 6.372 6.372 0 01-2.685-.314c-3.611-1.14-5.279-1.117-6.036-.765a28.429 28.429 0 01-3.244-2.616 35.079 35.079 0 01-3.106-3.313 28.074 28.074 0 01-1.828-2.4 29.965 29.965 0 01-2.18-3.626c3.649 1.454 10.764 4.024 13.159 2.93a7.481 7.481 0 002.754-2.662l.237-.367.1-.161c.191-.314.383-.62.551-.941a31.619 31.619 0 015.9 11.6z"/><path class="d" d="M641.487 423.253a4.942 4.942 0 01-3.06 2.884 3.813 3.813 0 01-.765.153 6.373 6.373 0 01-2.685-.314 15.313 15.313 0 00-5.172-.972 2.525 2.525 0 00-.864.184 28.446 28.446 0 01-3.244-2.617 35.072 35.072 0 01-3.106-3.313 28.062 28.062 0 01-1.828-2.4 29.362 29.362 0 01-2.18-3.626c.161.069.321.138.5.2 3.772 1.484 10.366 3.772 12.654 2.739a7.521 7.521 0 002.762-2.685l.237-.367.1-.161a2.443 2.443 0 00.145-.237 17.581 17.581 0 00.849-1.584 31.513 31.513 0 015.447 11.039 10.15 10.15 0 01.21 1.077z"/><path d="M650.224 399.323a10.842 10.842 0 01-2.831 1.622 9.181 9.181 0 00-5.447 10.435l.046.191c1.247 5.256.7 12.6-3.565 13.824a3.9 3.9 0 01-.765.153 6.373 6.373 0 01-2.685-.314c-3.611-1.14-5.279-1.117-6.036-.765a28.448 28.448 0 01-3.244-2.616 35.086 35.086 0 01-3.106-3.313 28.053 28.053 0 01-1.829-2.4 29.95 29.95 0 01-2.18-3.626c3.649 1.454 10.764 4.024 13.159 2.938a7.521 7.521 0 002.762-2.685l.237-.367.1-.161a18.508 18.508 0 002.731-8.576c.283-4.131 2.112-11.307 11.6-9.058a2.685 2.685 0 011.056 4.72z" fill="#59393c"/><path class="ak" d="M539.667 598.977s-32.342-1.951-28.528 20.713a5.514 5.514 0 002.869 5.822s.061-1.683 3.32-1.109a14.812 14.812 0 003.512.168 7.268 7.268 0 004.3-1.775s9.089-3.756 12.631-18.614c0 0 2.609-3.244 2.509-4.078l-5.462 2.333s1.867 3.94.4 7.207c0 0-.176-7.061-1.224-6.885-.214 0-2.838 1.369-2.838 1.369s3.213 6.885.765 11.843c0 0 .926-8.416-1.79-11.346l-3.825 2.242s3.749 7.084 1.209 12.86c0 0 .65-8.859-2.012-12.317l-3.481 2.716s3.519 6.985 1.369 11.774c0 0-.275-10.32-2.127-11.1 0 0-3.06 2.685-3.512 3.825 0 0 2.417 5.065.918 7.742 0 0-.918-6.885-1.676-6.885 0 0-3.06 4.59-3.343 7.65a16.585 16.585 0 012.609-8.117 9.1 9.1 0 00-4.644 2.4s.474-3.221 5.394-3.5c0 0 2.509-3.458 3.183-3.672 0 0-4.9-.406-7.865.91 0 0 2.609-3.06 8.76-1.66l3.437-2.803s-6.442-.88-9.181.1c0 0 3.152-2.693 10.106-.765l3.749-2.234s-5.5-1.186-8.775-.765c0 0 3.458-1.867 9.869.153l2.678-1.2s-4.032-.765-5.21-.918-1.239-.451-1.239-.451a13.971 13.971 0 017.566.841s5.679-2.114 5.579-2.474z"/><ellipse class="a" cx="22.89" cy="3.871" rx="22.89" ry="3.871" transform="translate(494.499 623.619)"/><path class="ak" d="M601.712 539.258s-18.231-1.1-16.066 11.675a3.114 3.114 0 001.622 3.282s0-.941 1.867-.62a8.511 8.511 0 001.982.092 4.139 4.139 0 002.425-1s5.126-2.112 7.115-10.5c0 0 1.477-1.821 1.415-2.3l-3.06 1.316a5.522 5.522 0 01.222 4.062s-.1-3.986-.689-3.886c-.122 0-1.6.765-1.6.765s1.813 3.871.444 6.679c0 0 .52-4.766-1.01-6.4l-2.165 1.232s2.112 3.994.681 7.253c0 0 .367-5-1.132-6.947l-1.966 1.53s1.989 3.932.765 6.633c0 0-.153-5.814-1.2-6.258a11.82 11.82 0 00-1.974 2.142s1.354 2.854.513 4.361c0 0-.513-3.879-.941-3.894a12.852 12.852 0 00-1.89 4.33 9.364 9.364 0 011.477-4.59 5.179 5.179 0 00-2.624 1.354s.268-1.813 3.06-1.974a11.908 11.908 0 011.79-2.066 11.232 11.232 0 00-4.43.513s1.469-1.714 4.935-.933l1.943-1.584s-3.634-.5-5.179.054c0 0 1.775-1.53 5.7-.413l2.112-1.262a19.293 19.293 0 00-4.95-.428s1.951-1.048 5.57.092l1.53-.681s-2.3-.444-2.938-.513-.7-.26-.7-.26a7.864 7.864 0 014.261.474 18.249 18.249 0 003.085-1.33z"/><ellipse class="a" cx="12.906" cy="2.18" rx="12.906" ry="2.18" transform="translate(576.252 553.151)"/><path class="ak" d="M494.079 550.343s-22.01-1.331-19.417 14.1a3.764 3.764 0 001.958 3.963s.038-1.14 2.3-.765a10.4 10.4 0 002.387.115 5.056 5.056 0 002.93-1.209s6.189-2.555 8.591-12.677c0 0 1.783-2.2 1.714-2.769l-3.718 1.584s1.27 2.685.268 4.912c0 0-.115-4.812-.834-4.7-.145 0-1.928.926-1.928.926s2.188 4.674.536 8.064c0 0 .627-5.753-1.216-7.727l-2.616 1.53s2.555 4.82.818 8.76c0 0 .444-6.036-1.369-8.416l-2.372 1.844s2.4 4.751.941 8.018c0 0-.191-7.023-1.454-7.559a14.24 14.24 0 00-2.387 2.586s1.645 3.443.62 5.271c0 0-.62-4.682-1.132-4.705 0 0-2.066 3.06-2.3 5.225a11.256 11.256 0 011.775-5.523 6.22 6.22 0 00-3.16 1.637s.321-2.2 3.672-2.387a14.4 14.4 0 012.165-2.494 13.622 13.622 0 00-5.355.62s1.775-2.073 5.967-1.132l2.341-1.9s-4.391-.6-6.25.061c0 0 2.142-1.828 6.885-.5l2.548-1.53a25.133 25.133 0 00-5.975-.513s2.356-1.27 6.717.107l1.828-.819s-2.747-.543-3.55-.627-.842-.306-.842-.306a9.51 9.51 0 015.149.574s3.834-1.394 3.765-1.639z"/><ellipse class="a" cx="15.584" cy="2.632" rx="15.584" ry="2.632" transform="translate(463.339 567.12)"/><path d="M641.076 278.17s1.194-3.573-.474-5.424l-3.458-3.825-17.6-25.522s-4.284-5.08-3.573-8.079-4.047-6.235-4.047-6.235 2.586-3.206 1.071-5.118-3.932-4.85-3.932-5.891-9.142-14.536-21.054-17.826l.367-.268a18.859 18.859 0 00-2.089-.344c-8.622-.949-12.7-1.438-20.113-4.59l-.4.421-1.025-.421c-2.089-.887-4.437-1.974-7.222-3.343s-5.776-2.892-9.425-4.789a25.125 25.125 0 01-4.59-8.484c-.13-.382-.245-.765-.352-1.186a26.18 26.18 0 0013.327-22.668 25.591 25.591 0 00-3.5-12.952c-.145-.252-.314-.49-.467-.765.054-.061.107-.115.153-.176a6.046 6.046 0 00.428-.658 10.5 10.5 0 00.635-1.438c.092-.245.176-.49.26-.765.344-1 .689-2 1.04-3.007l1.033-3.007a19.97 19.97 0 001.262-5.646 7.316 7.316 0 00-.291-2.418 6.2 6.2 0 00-.474-1.117 5.678 5.678 0 00-.337-.536c-1.744-2.463-5.485-3.5-6.289-6.38a5.355 5.355 0 01-.161-1.4v-2.13a4.142 4.142 0 00-.061-.62 4.9 4.9 0 00-.161-.681.175.175 0 00-.054-.153 5.466 5.466 0 00-.26-.612 5.054 5.054 0 00-.375-.612.58.58 0 00-.061-.084 10.038 10.038 0 00-5.271-3.366 20.763 20.763 0 00-14.245.918 4.644 4.644 0 01-2 .6c-1.132 0-2-.933-2.984-1.484-3.152-1.783-7.1.107-10.129 2.081a15.528 15.528 0 00-4.032 3.382c-.995 1.316-1.53 2.892-2.471 4.254-2.907 4.323-8.706 5.715-12.906 8.882-4.544 3.427-7.077 8.943-7.7 14.49s.5 11.162 2.188 16.5a18.432 18.432 0 00.635 1.752c-.65 7.367 2.4 16.747 2.838 18.361.719 2.655-8.569 11.086-8.569 11.086l-28.59 24.749s-.115-.711-3.779-.451-10.535 8.576-10.535 8.576l.551.046c-.352.4-.551.65-.551.65l1.492.122c-4.437 3.825-9.67 8.416-12.386 11.1a36.739 36.739 0 00-1.821 1.821c-3.825 4.154-1.308 15.592-1.308 15.592s-.6 7.038 10.481 7.964c0 0 12.86 2.54 19.172 0s18.3-3.175 18.3-3.175-4.9 16.456-4.59 21.307-3.274 22.087-3.274 22.087l-10.956 57.585s-10.252 20.014 20.656 22.951v.933s.765.115 1.966.245c-.054.658-.107 1.346-.161 2.058-.4 5.049-.826 11.124-.62 11.782a5.432 5.432 0 001.913 2.2l1.194 10.16s1.186 8.752 2.3 11.307 3.825 9.364 3.336 11.56 1.783 9.464 1.783 9.464 1.071 7.046 1.431 8.775 0 18.935 0 18.935a32.783 32.783 0 007.031 2.525c.069.275.138.566.214.857 1.125 4.59 2.7 10.955 3.565 14.268 1.423 5.539 4.521 15.24 4.521 15.24s.352 12.593 2.494 15.018 1.668 26.21 10.711 40.754c6.5 10.443 14.459 30.212 18.438 40.547-.145 4.667-.367 9.762-.689 14.115a10.128 10.128 0 00-2.479 4.483c-1.071 5.2-7.735 13.962-7.735 13.962s-6.786 5.661-9.647 6.472a5.07 5.07 0 00-1.438.765c-2.938 2.089-6.388 7.6.6 9.762 2.678.826 6.5.765 10.642.145a13.594 13.594 0 000 2.165s-3.573 8.775-5.126 12.126c-.566 1.224-1.836 2.984-2.961 4.843-1.974 3.259-3.5 6.816 0 8.324 1.071.459 19.532-.344 25.721 1.614s10.6-4.506 10.6-4.506.474-6.579 1.9-9.349c.811-1.584.237-5.057-.405-7.765-.5-2.05-1.025-3.657-1.025-3.657a110.791 110.791 0 01-1.53-16.686l9.112-6.641a8.2 8.2 0 003.2-8.607l-.306-1.216c-1.415-5.554-3.634-13.166-5.983-16.831a15.828 15.828 0 011.53-3.909c2.854-4.154 8.1-29.906 9.41-33.838a38.862 38.862 0 00.949-4.147c1.645-8.109 4.139-27.848.092-36.982l-2.071-22.309s-1.186-17.083.122-23.663a110.761 110.761 0 001.362-12.86v-.306l12.34.6V402.88l1.079-20.243.107-2.05a13.011 13.011 0 001.668.459c2.341-1.492 2.93-5.126 2.823-8.852a37.145 37.145 0 00-.413-5.967 14.483 14.483 0 003.986-7.008L618.4 335.87l.107-.207c.581-1.171 3.512-7.077 4.636-10.19 1.033-2.877.352-18.361.084-23.5 1.691.145 3.741.306 5.692.4 2.968.161 5.684.176 6.541-.191 2.15-.926 4.881-7.4 7.023-11.315s-1.407-12.697-1.407-12.697zm-135.138-90.5s.6-5.745.673-12.837l3.825-1.27a21.218 21.218 0 001.806 1.53q.153.765.275 1.607a37.6 37.6 0 01-.153 14.016c-.184.13-5.241 3.55-6.472 7.207-.65 1.951-2.639 2.785-4.4 3.144a13.718 13.718 0 01-3.014.237s-1.867.306-4.69.765zM531.4 463.4c-.161-.436-.3-.826-.429-1.171l.329-.2v-2.655c.031 1.033.054 2.418.1 3.993z" transform="translate(-192.985 -53.308)" fill="url(#e)"/><path class="am" d="M381.126 154.845s-12.906 16.479-23.242 29.47c-6.664 8.362-12.241 15.3-12.661 15.416a6.574 6.574 0 01-1.255-.061c-5.2-.459-24.964-3.213-33.953-4.483l-4.5-.635s.283-7.773 1.477-17.2c1.415-11.307 4.146-24.986 9.226-30.449a15.532 15.532 0 003.267-5.562c1.8-5.126 1.53-11.246.811-16.288a61.411 61.411 0 00-2.349-9.946s32.8-19.333 31.068-1.721a33.493 33.493 0 001.2 13.411c2.479 7.972 7.436 11.476 7.436 11.476l.138.1z"/><path class="d" d="M350.219 126.829a26.256 26.256 0 01-29.89-1.775 61.4 61.4 0 00-2.349-9.946s32.8-19.333 31.068-1.721a33.5 33.5 0 001.171 13.442z"/><path class="am" d="M362.758 103.059a26.218 26.218 0 11-3.412-12.914 26.218 26.218 0 013.412 12.914z"/><path class="d" d="M359.346 90.145a4.362 4.362 0 01-.3.467c-1.729 2.349-5.08 2.731-7.987 2.486-3.435-.3-7.237-1.53-8.706-4.636-1.354-2.877-.979-5.96-4.705-6.388-3.228-.375-7.559-2.632-10.711-1.339-2.486 1.033-3.481 4.047-3.71 6.74s0 5.547-1.255 7.941c-1.186 2.257-3.5 3.756-4.7 6.006-1.347 2.54-1.063 5.6-.711 8.461s.711 5.891-.536 8.484a5.553 5.553 0 01-.367.658 26.241 26.241 0 1143.684-28.88z"/><path d="M342.377 87.084c1.469 3.114 5.271 4.338 8.706 4.629 2.907.252 6.258-.13 7.987-2.486a10.03 10.03 0 001.278-2.823l2-6c1.056-3.175 2.05-6.885.161-9.678-1.691-2.456-5.309-3.481-6.082-6.365-.36-1.339 0-2.769-.191-4.139-.444-2.823-3.252-4.659-5.983-5.5a19.448 19.448 0 00-13.771.918 4.452 4.452 0 01-1.936.589c-1.094 0-1.936-.926-2.884-1.477-3.06-1.775-6.885.107-9.785 2.073a15.036 15.036 0 00-3.9 3.374c-.956 1.308-1.53 2.877-2.387 4.238-2.815 4.307-8.415 5.692-12.47 8.852-4.4 3.412-6.847 8.9-7.444 14.436s.474 11.124 2.1 16.448a11.718 11.718 0 001.262 2.991c1.652 2.509 4.942 3.58 6.549 6.12 1.293 2.043 1.415 4.9 3.381 6.319 2.333 1.675 5.853 0 7.092-2.624s.887-5.638.535-8.492-.635-5.921.712-8.461c1.193-2.249 3.519-3.749 4.7-6.006 1.247-2.4 1.033-5.248 1.255-7.941s1.224-5.7 3.718-6.732c3.129-1.3 7.459.964 10.711 1.331 3.707.448 3.332 3.523 4.686 6.406z" fill="#e09c4a"/><path d="M304.216 109.838c-1.614-2.54-4.9-3.611-6.556-6.12a.424.424 0 010-.061c.046.176.1.352.153.528a11.721 11.721 0 001.262 2.991c1.652 2.509 4.942 3.58 6.549 6.12.092.145.184.3.268.459a26.778 26.778 0 00-1.676-3.917zm50.838-48.918a4.726 4.726 0 001.216 2.058 18.261 18.261 0 000-2.747 5.31 5.31 0 00-1.316-2.7 14.3 14.3 0 00.1 3.389zm-18.759 16.32c-3.228-.367-7.566-2.632-10.711-1.331-2.494 1.033-3.489 4.039-3.71 6.732s0 5.547-1.262 7.941c-1.178 2.257-3.5 3.756-4.69 6.006-1.354 2.54-1.063 5.6-.712 8.461s.7 5.891-.536 8.492-4.766 4.3-7.1 2.624a4.744 4.744 0 01-1.369-1.645c.765 1.844 1.155 3.948 2.754 5.1 2.333 1.675 5.853 0 7.092-2.624s.887-5.638.535-8.492-.635-5.921.712-8.461c1.193-2.249 3.519-3.749 4.7-6.006 1.247-2.4 1.033-5.248 1.255-7.941s1.224-5.7 3.718-6.732c3.129-1.3 7.459.964 10.711 1.331a3.664 3.664 0 012.739 1.423c-.775-2.37-1.055-4.52-4.126-4.878zm26.218-6.512a6.936 6.936 0 00-.352-.459 17.2 17.2 0 01-1.193 6.686l-2 6a9.841 9.841 0 01-1.285 2.823c-1.721 2.349-5.08 2.731-7.987 2.486-3.137-.268-6.587-1.316-8.27-3.886a20.108 20.108 0 00.949 2.708c1.469 3.114 5.271 4.338 8.706 4.629 2.907.252 6.258-.13 7.987-2.486a10.032 10.032 0 001.278-2.823c.666-2 1.339-3.994 2-6 1.062-3.175 2.056-6.916.167-9.678z"/><rect class="h" width="17.29" height="36.531" rx="4.67" transform="rotate(-18.77 422.689 -851.725)"/><rect class="i" width="17.29" height="36.531" rx="4.67" transform="rotate(-18.77 422.38 -849.855)"/><circle class="k" cx="2.716" cy="2.716" r="2.716" transform="translate(304.546 95.424)"/><path class="am" d="M305.403 411.48s3.336 14.039 4.72 19.562 4.376 15.194 4.376 15.194.344 12.539 2.41 14.957 1.614 26.126 10.359 40.624 20.258 47.073 20.258 47.073l1.53 11.047 14.735-17.145-12.241-62.735s-7.13-25.43-4.95-33.371-9.089-38.78-9.089-38.78z"/><path class="ao" d="M363.752 542.784l-14.735 17.153-1.53-11.047s-11.476-32.568-20.263-47.073-8.285-38.2-10.359-40.616-2.41-14.964-2.41-14.964-2.991-9.67-4.376-15.194c-.826-3.3-2.349-9.655-3.443-14.215-.765-3.06-1.278-5.355-1.278-5.355l32.132-3.565s.359.972.926 2.616c2.655 7.612 9.945 29.63 8.163 36.164-2.188 7.941 4.957 33.371 4.957 33.371z"/><path class="ap" d="M368.68 571.443l-12.864 9.663c-6.22 6.679-24.481 12.2-32.453 9.67-6.763-2.157-3.427-7.65-.581-9.731a4.72 4.72 0 011.385-.765c2.762-.811 9.326-6.449 9.326-6.449s6.442-8.744 7.475-13.924 8.415-9.441 8.415-9.441 9.892-9.663 14.383-7.712c2.93 1.285 5.96 11.759 7.719 18.866l.291 1.216a8.3 8.3 0 01-3.091 8.607z"/><path class="d" d="M368.68 571.44l-12.864 9.665c-6.22 6.679-24.481 12.2-32.453 9.67-6.763-2.157-3.427-7.651-.581-9.731 2.747 4.292 12.776 3.519 12.776 3.519l17.841-7.941 18.078-14.972.291 1.216a8.3 8.3 0 01-3.083 8.576z"/><path class="ao" d="M348.529 548.063s-11.476-32.576-20.251-47.073-8.285-38.206-10.359-40.624-2.418-14.957-2.418-14.957-2.991-9.67-4.368-15.194c-.834-3.3-2.356-9.655-3.45-14.215-.765-3.06-1.278-5.355-1.278-5.355l30.12-3.351-.084-.222-32.132 3.573s.536 2.3 1.278 5.355c1.086 4.59 2.616 10.91 3.443 14.215 1.377 5.524 4.368 15.194 4.368 15.194s.344 12.539 2.417 14.957 1.607 26.126 10.359 40.624 20.251 47.073 20.251 47.073l1.53 11.047 1.79-2.081z"/><path class="aq" d="M388.724 205.2h35.904v41.473h-35.904z"/><path class="aq" d="M427.22 273.35c-1.086 3.1-3.917 8.982-4.483 10.145a2.28 2.28 0 01-.1.214l-25.8 24.022-.62.574-.161-.528c-1.362-4.59-11.07-37.143-12.241-38.918-.933-1.4-.482-7.146-.191-10.037.107-1.025.191-1.683.191-1.683l-.753-22.554 3.825-7.344 35.429 11.216 4.965 9.754s1.148 21.681-.061 25.139z"/><path d="M422.739 283.495a2.28 2.28 0 01-.1.214l-25.8 24.022-.765.046-8.813.528-6.4-51.878s1.048.956 2.792 2.395c5.08 4.185 16.066 12.486 24.482 13.58 8.276 1.076 12.782 7.643 14.604 11.093z" fill="none"/><path class="d" d="M422.739 283.495a2.28 2.28 0 01-.1.214l-25.8 24.022-.765.046-8.813.528-6.4-51.878s1.048.956 2.792 2.395c5.08 4.185 16.066 12.486 24.482 13.58 8.276 1.076 12.782 7.643 14.604 11.093zm2.669-13.075s-5.355-.52-7.65-2.632-8.2-5.485-8.2-5.485l8.37 9.234s6.355 2.066 7.48-1.117z"/><path class="d" d="M404.522 276.288s.513 9.4 6.212 9.494-6.212-9.494-6.212-9.494zm5.868 0s4.315 7.849 6.388 6.817-6.388-6.817-6.388-6.817z"/><path d="M290.216 199.746l-6.021 2.226s-11.59.635-17.688 3.167-18.529 0-18.529 0 21.635-28.2 21.98-28.307 22.9-8.415 22.9-8.415z" fill="#cbcdda"/><path class="at" d="M290.216 199.746l-6.021 2.226s-11.59.635-17.688 3.167-18.529 0-18.529 0 21.635-28.2 21.98-28.307 22.9-8.415 22.9-8.415z"/><path class="am" d="M376.292 507.225c-1.262 3.917-6.327 29.584-9.089 33.723s-5.983 27.962-5.983 27.962l-.62.436-1.339.941s-19.807-.918-17.512-4.483a10.377 10.377 0 00.865-3.336c1.53-9.685 1.668-35.445 1.668-35.445l.229-40.861s5.2-13.182 1.607-22.9a50.8 50.8 0 01-3.221-17.948s.574-9.441-1.958-13.235c-2.05-3.06-2.441-19.34-2.509-25.323v-2.219l3.213-4.8 35.192 2.418s-.076 2.838-.291 6.518a110.379 110.379 0 01-1.316 12.815c-1.262 6.556-.115 23.586-.115 23.586l1.957 22.19c4.631 10.736.492 36.052-.778 39.961z"/><path class="ao" d="M338.438 410.546v.26c-12.669 8.079-24.359 7.65-31.757 6.036-.765-3.06-1.278-5.355-1.278-5.355l32.132-3.565s.336.964.903 2.624z"/><path class="au" d="M390.223 321.373l-.467 8.936-1.033 20.174-50.286 8.178v50.753c-21.3 13.572-39.782 3.213-39.782 3.213s.344-17.145 0-18.874-1.385-8.745-1.385-8.745-2.188-7.253-1.721-9.433-2.2-8.974-3.228-11.476-2.18-11.269-2.18-11.269l-1.178-10.167a5.356 5.356 0 01-1.844-2.2c-.2-.65.214-6.7.6-11.736.291-3.733.558-6.885.558-6.885l46.951-8.859z"/><path class="ao" d="M336.907 364.789v39.782c-.941-.551-2.249-1.92-2.379-5.264-.207-5.294-.627-17.833-1.377-23.472s2.861-11.743 2.861-11.743z"/><path class="d" d="M308.165 348.646s2.3 5.179 9.785 6.556-9.785-6.556-9.785-6.556zm-7.245 10.359s15.875 2.647 19.677 2.532m-14.85 9.089s8.943.115 14.084-2.188m-15.92 29.233s23.013-8.783 25.774-13.373m-20.365 24.649c.765-.115 21.054-12.317 22.783-15.538m44.76 8.722s-.076 2.838-.291 6.518l-38.122-1.92v-2.219l3.213-4.8zm-31.158-45.551s19.4-4.789 23.487-1.706-23.487 1.706-23.487 1.706zm-19.355-33.945s3.909 36.6 7.138 39.017 16.915-39.017 16.915-39.017z"/><path class="au" d="M327.038 321.258s3.917 36.6 7.138 39.017 16.915-39.017 16.915-39.017z"/><path class="d" d="M390.223 321.373l-.467 8.936a32.9 32.9 0 01-9.892-5.715 4.224 4.224 0 00-.482-.367c-3.925-2.808-9.058-1.775-12.409-.589a24.25 24.25 0 00-3.45 1.53s-50.868 1.729-50.868.344c0-1.017-7.2.536-12.042 1.874a36.232 36.232 0 00-3.825 1.232c-1.836.765-6.327.428-8.913.13h-.161c.291-3.733.558-6.885.558-6.885l46.951-8.859z"/><path class="d" d="M391.478 327.356a13.071 13.071 0 01-1.614-.467 32.535 32.535 0 01-10.007-5.753 7.566 7.566 0 00-.482-.367c-3.925-2.8-9.058-1.775-12.409-.581a23.255 23.255 0 00-3.45 1.53s-50.868 1.729-50.868.344c0-1.018-7.2.536-12.042 1.874a38.638 38.638 0 00-3.825 1.224c-1.836.765-6.327.428-8.913.138-1.132-.138-1.9-.252-1.9-.252v-.39l2.517-63.828 7.245-56.843 2.655-23.824 8.607-4.192 8.653-4.215a22.521 22.521 0 003.3 3.672c4.4 3.986 12.96 8.959 24.39 2.234a35.066 35.066 0 003.611-2.448c3.9-3.007 7.566.39 10.932 7.719 13.159 28.551 21.75 116.685 21.75 116.685l13.006 8.415s.444 1.66.872 4.024c.872 4.904 1.637 12.891-2.028 15.301z"/><path d="M391.474 328.732a12.026 12.026 0 01-1.614-.459 32.9 32.9 0 01-10.007-5.753 5.346 5.346 0 00-.482-.367c-3.925-2.8-9.058-1.775-12.409-.589a23.723 23.723 0 00-3.45 1.53s-50.837 1.767-50.837.352c0-1.025-7.2.528-12.042 1.867a38.16 38.16 0 00-3.825 1.232c-1.836.765-6.327.428-8.913.13-1.132-.13-1.9-.245-1.9-.245v-.4l2.517-63.82 7.245-56.85 2.655-23.824 8.607-4.192 8.653-4.208a22.315 22.315 0 003.3 3.665c4.4 3.994 12.96 8.966 24.39 2.242a35.182 35.182 0 003.611-2.456c3.9-3.007 7.566.4 10.932 7.719 13.151 28.544 21.743 116.685 21.743 116.685l13.006 8.416s.444 1.66.872 4.016c.848 4.92 1.617 12.899-2.052 15.309z" fill="#fafbfc"/><path class="d" d="M393.513 313.386c-3.381 4.277-9 7.023-14.13 8.737a61.809 61.809 0 01-11.621 2.739l-.765-3.3c-1.874-7.52-6.6-26.012-9.318-32.9a78.6 78.6 0 01-4.384-18.866 98.824 98.824 0 00-5.111-27.159c-2.226-6.472-3.481-24.841-4.192-42.988-.283-7.153-.482-14.276-.627-20.618-.283-13.059-.306-22.821-.306-22.821l4.139-6.564a13.464 13.464 0 011.874-8.416 21.661 21.661 0 014.223-5.286c1.622.865 3.114 1.668 4.521 2.4l23.332 16.479s-12.906 16.479-23.242 29.47c13.153 28.543 21.742 116.686 21.742 116.686l13.006 8.415s.43 1.697.859 3.992z"/><path class="at" d="M390.108 269.59c-.7 13.342 7.819 35.666 7.819 35.666-1.377 15.882-28.766 18.881-28.766 18.881s-6.679-27.391-10.129-36.147a78.988 78.988 0 01-4.376-18.874 98.945 98.945 0 00-5.118-27.151c-4.9-14.276-5.126-86.45-5.126-86.45l4.147-6.556a13.464 13.464 0 011.867-8.415 21.78 21.78 0 014.231-5.286c3.527 1.89 6.518 3.458 9.112 4.774s4.965 2.448 6.985 3.336c7.161 3.121 11.1 3.6 19.432 4.552a16.132 16.132 0 012.02.344c12 2.747 21.375 17.053 21.375 18.032s2.333 3.978 3.825 5.868-1.04 5.1-1.04 5.1 4.59 3.228 3.917 6.22 3.45 8.056 3.45 8.056l-25.782 19.562s-7.154 45.127-7.843 58.488z"/><circle class="aw" cx="1.423" cy="1.423" r="1.423" transform="translate(346.998 166.971)"/><circle class="aw" cx="1.423" cy="1.423" r="1.423" transform="translate(346.998 185.96)"/><circle class="aw" cx="1.423" cy="1.423" r="1.423" transform="translate(352.009 231.158)"/><circle class="aw" cx="1.423" cy="1.423" r="1.423" transform="translate(355.636 254.293)"/><circle class="aw" cx="1.423" cy="1.423" r="1.423" transform="translate(359.17 278.714)"/><circle class="aw" cx="1.423" cy="1.423" r="1.423" transform="translate(349.844 208.184)"/><path class="d" d="M363.768 141.433a31.438 31.438 0 01-7.237 6.12c-1.3 0-4.445-3.619-6.12-5.646a21.832 21.832 0 014.231-5.279 325.237 325.237 0 009.126 4.805z"/><path class="at" d="M363.768 140.057a32.12 32.12 0 01-7.237 6.159c-1.3 0-4.445-3.619-6.12-5.646a21.779 21.779 0 014.231-5.286 510.131 510.131 0 009.126 4.773z"/><path class="d" d="M325.766 162.442s-3.466 8.308-6.817 14.368a26.5 26.5 0 01-3.649 5.424c-1.928 1.928-3.825 7.727-5.286 12.952-1.392 5.065-2.3 9.6-2.3 9.6-1.958 3-1.958 40.165-1.958 40.165 3.349 14.274-2.756 54.774-2.756 54.774l-1.8 19.662-.551 5.921-.1 1.125c-1.293.054-2.54.092-3.733.107a85.742 85.742 0 01-8.875-.314 43.755 43.755 0 01-1.928-.2l2.517-63.82 7.245-56.851 2.655-23.824 8.607-4.192c1.415-11.307 4.147-24.986 9.226-30.449a15.529 15.529 0 003.267-5.562 25.441 25.441 0 012.058-1.63s.887 1.706 1.936 3.749c1.125 2.2 2.44 4.782 3.06 6.12 1.257 2.516-.818 12.875-.818 12.875z"/><path class="at" d="M324.393 161.754s-6.671 16-10.466 19.792-7.6 22.554-7.6 22.554c-1.959 3-1.959 40.165-1.959 40.165 3.336 14.276-2.762 54.777-2.762 54.777l-2.479 26.7c-45.634 2.112-33.119-23.127-33.119-23.127l10.585-57.378s3.512-17.183 3.167-22.018 4.4-21.23 4.4-21.23-8.37-43.5-7.505-45.482 30.038-6.882 30.038-6.882a12.829 12.829 0 002.915-.237c1.7-.352 3.619-1.186 4.246-3.129 1.216-3.718 6.281-7.2 6.281-7.2s.88 1.706 1.928 3.756c1.125 2.2 2.448 4.782 3.106 6.12 1.28 2.46-.776 12.819-.776 12.819z"/><path class="d" d="M322.096 144.15c-4.521 4.078-9.38 18.751-9.38 18.751l-3.06-12.18c1.7-.352 3.619-1.186 4.246-3.129 1.216-3.71 6.281-7.191 6.281-7.191z"/><path class="at" d="M322.096 142.78c-4.521 4.078-9.38 18.751-9.38 18.751l-3.06-12.18c1.7-.352 3.619-1.186 4.246-3.129 1.216-3.718 6.281-7.2 6.281-7.2z"/><path class="d" d="M268.489 304.679s.6 6.993 14.934 2.678-14.934-2.678-14.934-2.678z"/><path class="at" d="M445.918 238.854c-2.073 3.909-4.72 10.359-6.786 11.277-.834.367-3.458.352-6.327.2-4.292-.229-9.1-.765-9.1-.765s10.81-23.525-3.925-29.515h-13.33l-8.523-8.89 22.439-21.521 3.343 1.958 17.03 25.392s1.729 1.951 3.343 3.825.451 5.409.451 5.409 3.459 8.721 1.385 12.63z"/><path class="d" d="M365.069 213.54s6.465-50.722 25.751-64.562a17.53 17.53 0 00-2.012-.344c-8.331-.949-12.241-1.431-19.44-4.59a50.493 50.493 0 00-13.648 37.487c1.415 25.9 0 31.941 0 31.941h2.3c4.116 8.339 21.59 42.98 31.29 50.256l1.033-8.813s-25.185-29.072-27.366-41.442z"/><path class="d" d="M367.831 212.85s6.465-50.73 25.751-64.562a16.009 16.009 0 00-2.012-.344c-8.331-.949-12.241-1.431-19.44-4.552a50.493 50.493 0 00-13.648 37.487c1.415 25.9 0 31.941 0 31.941h2.3c4.116 8.339 21.59 42.973 31.29 50.248l1.033-8.806s-25.185-29.07-27.358-41.442z"/><path class="ax" d="M358.474 211.038s21.131 43.776 32.178 52.023l1.033-8.806s-29.63-34.2-27.389-44.2z"/><path class="ax" d="M392.243 148.289c-19.294 13.832-25.759 64.562-25.759 64.562h-9.387s1.415-6.044 0-31.941a50.493 50.493 0 0113.656-37.487c7.161 3.121 11.1 3.6 19.432 4.552a16.125 16.125 0 012.058.314z"/><path class="d" d="M381.474 262.303l-.6 35.215 5.952 3.022zm13.118-74.316c3.971-.949 14.153-4.315 14.536-7.65s-14.536 7.65-14.536 7.65zm.604 6.649s12.6-5.187 14.589-7.253-16.486 3.114-14.589 7.253zm-88.411-36.799s-5.5 10.848-2.188 11.981 2.188-11.981 2.188-11.981zm42.118 118.451s-44.189 26.1-34.871 27.588 34.871-27.588 34.871-27.588zm26.509 55.206s11.621 2.188 11.162 5.761"/><path class="am" d="M429.891 229.713l-.52 13.434s-3.274 5.692-5.661 6.411a3.061 3.061 0 01-.88.061c-4.69-.252-22.393-5.432-23.977-8.37-1.729-3.19-27.878-14.666-27.878-14.666s-22-33.409-5.524-41.519 15.706 31.5 15.706 31.5 14.934 2.242 16.831 3.45c1.591 1.04 16.273.314 20.656.069l1.14-.038 4.659.857z"/><path class="d" d="M429.891 229.712l-.52 13.434s-3.274 5.692-5.661 6.411a3.059 3.059 0 01-.88.061l-.467-.054s10.711-23.349-3.756-29.477l1.178-.038 4.659.857z"/><path class="d" d="M433.494 250.33c-4.284-.229-9.089-.765-9.089-.765s10.8-23.517-3.909-29.538l11.529-1.14c14.429 9.578 4.441 26.914 1.469 31.443z"/><path class="at" d="M432.791 250.33c-4.292-.23-9.1-.765-9.1-.765s10.825-23.525-3.909-29.515l11.56-1.125c14.454 9.54 4.443 26.876 1.449 31.405z"/><path class="am" d="M259.5 164.967l33.364-29.684s8.974-8.415 8.285-11.047-8.171-26.012 4.368-27.389 8.416 39.124 8.416 39.124l-35.789 43.96z"/><path class="d" d="M238.546 196.502s-2.418-11.392 1.262-15.53 20.377-18.645 20.377-18.645 8.377 13.006 23.242 11.108l-16.642 22.263s-7.367 9.67-18.07 8.744-10.169-7.94-10.169-7.94z"/><path class="at" d="M237.849 197.198s-2.418-11.392 1.27-15.538 20.365-18.644 20.365-18.644 14.276 14.383 22.446 16.112l-15.882 17.259s-7.367 9.67-18.07 8.752-10.129-7.941-10.129-7.941z"/><path class="d" d="M266.296 169.976l-14.888-1.324s6.641-8.285 10.183-8.546 3.649.451 3.649.451l-4.7 4.177z"/><path class="at" d="M266.296 169.288l-14.888-1.324s6.641-8.285 10.183-8.546 3.649.451 3.649.451l-4.7 4.177z"/><path class="d" d="M269.071 172.831s-3.825 13.557 9.433 14.467l4.231-13.151s-8.584 1.683-13.664-1.316z"/><path class="at" d="M269.767 172.143s-3.863 13.518 9.425 14.467l4.231-13.174s-8.577 1.706-13.656-1.293z"/><path class="d" d="M377.301 466.234l-1.963-22.187s-1.148-17.03.115-23.586a112.029 112.029 0 001.323-12.815c.207-3.68.291-6.518.291-6.518l-35.192-2.418-.092.138 33.234 2.3s-.084 2.838-.291 6.518a113.8 113.8 0 01-1.316 12.815c-1.27 6.556-.122 23.586-.122 23.586l1.966 22.186c4.59 10.711.451 36.018-.811 39.928s-6.335 29.584-9.1 33.723-6.005 27.947-6.005 27.947l-1.8 1.27 1.9.115 1.966-1.385s3.213-23.816 5.975-27.962 7.834-29.837 9.1-33.723 5.428-29.229.822-39.932z"/><path class="au" d="M381.594 346.114l7.13 4.368v57.432l-51.816-2.61-3.573-42.192 8.492-10.328z"/><path class="d" d="M343.724 378.682s21.873 17.833 28.544 18.988m-11.047 169.863a10.55 10.55 0 00-.62 1.821l-1.339.941s-19.807-.926-17.512-4.491a10.376 10.376 0 00.865-3.336c4.629-1.071 12.478 4.254 12.478 4.254z"/><path class="ap" d="M362.712 606.084c-1.377 2.762-1.836 9.318-1.836 9.318s-4.261 6.442-10.244 4.491-23.824-1.155-24.864-1.607c-3.359-1.53-1.89-5.049 0-8.293 1.094-1.859 2.3-3.611 2.869-4.828 1.53-3.343 4.95-12.088 4.95-12.088-.459-7.138 4.835-13.235 4.835-13.235l2.3-14.964c3.879-3.9 14.383 3.229 14.383 3.229l6.12.811c-3.106 6.786.115 25.774.115 25.774s.5 1.591.987 3.634c.615 2.716 1.173 6.181.385 7.758z"/><path class="d" d="M362.712 606.084c-1.377 2.762-1.836 9.318-1.836 9.318s-4.261 6.442-10.244 4.491-23.824-1.155-24.864-1.607c-3.359-1.53-1.89-5.049 0-8.293 8.1.444 26.226 1.293 30.258-.23 5.172-1.951 6.335-8.691 6.281-11.422.635 2.702 1.193 6.167.405 7.743z"/><path d="M340.985 575.031s5.876 7.291 13.35 1.53" stroke="#000" stroke-miterlimit="10" fill="none" opacity=".1"/></g></svg>