<svg xmlns="http://www.w3.org/2000/svg" width="536.027" height="567.353"><defs><style>.c{fill:#1b1943}.e{fill:#ababe9}</style></defs><g transform="translate(-140 -2069)"><path d="M504.317 2082.493l-119.481 99.087a54.11 54.11 0 11-83.212 69.009l-107.12 88.834 171.711 207.053 309.812-256.93z" fill="#f5f6f9"/><circle cx="14.7" cy="14.7" r="14.7" transform="translate(492.836 2070)" stroke="#3f3d56" stroke-miterlimit="10" stroke-width="2" fill="none"/><circle class="c" cx="14.7" cy="14.7" r="14.7" transform="translate(576.522 2241.356)"/><circle cx="42.617" cy="42.617" r="42.617" transform="translate(301.215 2174.4)" fill="#e48250"/><g transform="translate(140 2284.135)"><path class="c" d="M432.581 352.218A231.669 231.669 0 00465.54 232.77C465.54 104.215 361.325 0 232.77 0S0 104.215 0 232.77a231.67 231.67 0 0032.959 119.448z"/><circle class="e" cx="22.46" cy="22.46" r="22.46" transform="translate(210.31 194.996)"/><circle class="e" cx="11.23" cy="11.23" r="11.23" transform="translate(42.879 242.979)"/><circle class="e" cx="11.23" cy="11.23" r="11.23" transform="translate(49.468 145.712)"/><circle class="e" cx="11.23" cy="11.23" r="11.23" transform="translate(105.213 65.732)"/><circle class="e" cx="11.23" cy="11.23" r="11.23" transform="translate(194.188 25.886)"/><circle class="e" cx="11.23" cy="11.23" r="11.23" transform="translate(290.976 37.557)"/><circle class="e" cx="11.23" cy="11.23" r="11.23" transform="translate(367.93 97.411)"/><circle class="e" cx="11.23" cy="11.23" r="11.23" transform="translate(403.064 188.349)"/><circle class="e" cx="11.23" cy="11.23" r="11.23" transform="translate(386.344 284.395)"/><path d="M232.77 217.457l115.364-87.8" stroke="#ababe9" stroke-width="4" fill="none"/></g></g></svg>