<svg xmlns="http://www.w3.org/2000/svg" width="537" height="448.353"><defs><linearGradient id="a" x1=".5" y1="1" x2=".5" gradientUnits="objectBoundingBox"><stop offset="0" stop-color="gray" stop-opacity=".251"/><stop offset=".54" stop-color="gray" stop-opacity=".122"/><stop offset="1" stop-color="gray" stop-opacity=".102"/></linearGradient><style>.a{fill:#1b1943}.b{fill:#fff}.c{fill:#5857bc}.d{fill:#6c63ff}.e{fill:url(#a)}.f{fill:#939498}.i{opacity:.7}.j,.k{fill:none;stroke:#1b1943;stroke-linecap:round;stroke-linejoin:round;stroke-width:4px}.k{stroke-dasharray:12.52 33.38}</style></defs><path class="a" d="M0 0h244.145v272.492H0z"/><path class="b" d="M4.033 181.933h236.072v84.625H4.033z"/><path class="c" d="M23.411 202.005h9.148v43.364h-9.148zm18.058 0h9.148v43.364h-9.148zm18.064 0h9.148v43.364h-9.148zm18.059 0h9.148v43.364h-9.148zm18.058 0h9.148v43.364H95.65zm18.059 0h9.148v43.364h-9.148zm18.064 0h9.148v43.364h-9.148z"/><circle class="d" cx="22.074" cy="22.074" r="22.074" transform="translate(184.612 201.333)"/><path class="b" d="M4.033 94.011h236.072v84.625H4.033z"/><path class="c" d="M23.411 114.083h9.148v43.364h-9.148zm18.058 0h9.148v43.364h-9.148zm18.064 0h9.148v43.364h-9.148zm18.059 0h9.148v43.364h-9.148zm18.058 0h9.148v43.364H95.65zm18.059 0h9.148v43.364h-9.148zm18.064 0h9.148v43.364h-9.148z"/><circle class="d" cx="22.074" cy="22.074" r="22.074" transform="translate(184.612 113.417)"/><path class="b" d="M4.033 6.089h236.072v84.625H4.033z"/><path class="c" d="M23.411 26.167h9.148v43.364h-9.148zm18.058 0h9.148v43.364h-9.148zm18.064 0h9.148v43.364h-9.148zm18.059 0h9.148v43.364h-9.148zm18.058 0h9.148v43.364H95.65zm18.059 0h9.148v43.364h-9.148zm18.064 0h9.148v43.364h-9.148z"/><circle class="e" cx="23.797" cy="23.797" r="23.797" transform="translate(182.889 23.773)"/><circle class="c" cx="23.797" cy="23.797" r="23.797" transform="translate(182.889 112.283)"/><circle class="c" cx="23.797" cy="23.797" r="23.797" transform="translate(182.889 200.199)"/><circle class="c" cx="22.074" cy="22.074" r="22.074" transform="translate(184.612 25.496)"/><path class="f" d="M428.418 374.51s7.081 47.807 48.871 63.745H307.991c41.79-15.938 48.871-63.745 48.871-63.745z"/><path class="e" d="M307.165 438.255h170.872v10.098H307.165z"/><path fill="#f0f0f0" d="M308.015 438.255h169.274v7.794H308.015z"/><path class="a" d="M530.614 204.571H255.877a6.386 6.386 0 00-6.386 6.386V384.05a7.639 7.639 0 007.639 7.639h272.231A7.639 7.639 0 00537 384.05V210.957a6.386 6.386 0 00-6.386-6.386z"/><path class="a" d="M259.334 207.185h266.635a6.386 6.386 0 016.386 6.386v148.192H252.948V213.577a6.386 6.386 0 016.386-6.392z"/><path class="f" d="M524.715 387.258H260.587a7.639 7.639 0 01-7.639-7.639v-17.857h279.406v17.856a7.639 7.639 0 01-7.639 7.639z"/><path class="c" d="M266.76 219.707h252.847v124.781H266.76z"/><path d="M276.763 227.987h243v-8.322H266.92v124.781h9.843z" opacity=".2" fill="#fff"/><g class="i"><path class="j" d="M273.846 94.254h3.564"/><path class="k" d="M297.239 94.254H396.4"/><path class="j" d="M406.314 94.254h3.564v3.564"/><path stroke-dasharray="11.93 31.8" fill="none" stroke="#1b1943" stroke-linecap="round" stroke-linejoin="round" stroke-width="4" d="M409.878 116.714v68.485"/><path class="j" d="M409.878 194.644v3.564"/></g><g class="i"><path class="j" d="M218.352 363.348l-3.564-.018"/><path class="k" d="M194.959 363.235l-99.155-.475"/><path class="j" d="M85.884 362.718l-3.564-.018.024-3.564"/><path stroke-dasharray="11.55 30.79" fill="none" stroke="#1b1943" stroke-linecap="round" stroke-linejoin="round" stroke-width="4" d="M82.463 340.846l.273-41.148"/><path class="j" d="M82.795 290.55l.024-3.564"/></g></svg>