<svg xmlns="http://www.w3.org/2000/svg" width="430" height="290"><defs><style>.b{fill:#f5f6f9}.c{fill:#1b1943}.g{fill:#f2f2f2}.h{fill:#ffc5d3}.i{fill:#ffb9b9}</style></defs><g transform="translate(0 .031)"><circle cx="12.284" cy="12.284" r="12.284" transform="translate(222.017 188.816)" fill="#e48250"/><circle class="b" cx="60.225" cy="60.225" r="60.225" transform="translate(0 165.343)"/><path class="c" d="M133.079 252.281c-60.708 0-112.962-42.513-124.806-101.539S28.295 32.615 84.381 9.584s120.774-3.578 154.5 46.462a125.334 125.334 0 01-15.823 159.286 126.978 126.978 0 01-89.979 36.949zm0-251.336C63.449.945 6.801 57.103 6.801 126.131s56.648 125.187 126.278 125.187 126.278-56.159 126.278-125.187S202.709.945 133.079.945z"/><path d="M198.978 166.701l-.014.007-62.718 34.923-68.677-34.339-1.183-.592 3.564-71.286 62.019-44.2.684.428 64.183 40.208z" fill="#7b7ddd"/><path d="M198.958 166.233l-62.718 34.923-68.677-34.339 60.836-42.65z" opacity=".3"/><path d="M198.742 166.857l-70.574-42.059 4.249-73 64.186 40.205z" opacity=".1"/><path class="g" d="M69.028 117.566l-.349-.493 62.711-44.265 66.246 41.534-.321.512-65.906-41.321z"/><path class="g" d="M67.818 141.556l-.339-.5 62.393-42.36.163.093L197.7 137.14l-.3.525-67.5-38.255z"/><path class="g" d="M91.581 179.489l-.318-.513 62.882-38.964v-74.7h.6v75.033z"/><path class="g" d="M116.147 191.668l-.321-.512 60.548-37.977V79.147h.6v74.363z"/><path class="g" d="M176.181 179.484l-70.417-39.125.01-.188 3.707-73.27.6.031-3.7 73.081 70.088 38.943z"/><path class="g" d="M154.133 191.659l-69.622-36.487.011-.194 4.1-73.306.6.034-4.093 73.112 69.282 36.306z"/><circle class="c" cx="24.284" cy="24.284" r="24.284" transform="translate(186.123 3.382)"/><path class="c" d="M14.085 284.822H430v.971H14.085z"/><path class="h" d="M381.506 155.076l5.551 15.2s-5.792 17.377 0 17.859 6.512-16.648 6.512-16.648l-3.137-18.342z"/><path class="b" d="M384.161 105.721l4.1 4.1v19.552s2.413 3.62 1.931 4.586-.965.965-.483 1.689.965 1.207.483 1.689a1.81 1.81 0 000 2.172c.483.483 1.448 1.207.724 1.931s-1.689.241-.724 2.9 2.655 3.379 2.172 4.344a10.871 10.871 0 00-.483 3.379l-10.373 1.444-2.172-27.272z"/><path class="c" d="M392.366 151.605l-12.067.483.483 5.068 10.619-1.931z"/><path class="i" d="M359.182 80.811l-1.448 14.481 14.722 2.172 1.086-8.326 1.086-8.326z"/><path d="M359.182 80.811l-1.448 14.481 14.722 2.172 1.086-8.326 1.086-8.326z" fill="#ffc5d3" opacity=".1"/><path class="h" d="M327.575 149.121l8.206 17.618s1.448 8.206 3.62 8.447 4.344-8.447 4.344-8.447l-2.9-4.586-3.379-13.033z"/><path class="c" d="M344.34 164.092l-6.758 10.619s-6.516 101.123-5.551 100.4 4.1-.965 5.31-2.9 8.688 0 8.688 0l4.344-4.586v-3.62c0-.724 8.688-55.991 8.688-55.991v14s-2.655 51.406 1.689 50.923 13.274-3.379 13.274-3.379 12.791-96.054 8.93-99.675-5.551-11.826-5.551-11.826z"/><circle class="h" cx="11.584" cy="11.584" r="11.584" transform="translate(355.683 62.483)"/><path class="b" d="M341.811 97.348l-1.692-.966s-7.482 5.068-9.895 16.411-4.1 14.239-4.1 14.239-2.413.483-.724 2.172 1.689 1.448.241 2.413-2.413-.965-1.448.965 2.172 1.448 1.207 2.655-2.655 1.207-1.689 2.172-.965 3.137.241 4.1 1.689 1.207 1.689 2.9a8.547 8.547 0 00.483 2.9h12.55s-2.413-4.586-1.689-5.551.965-1.931.483-2.413-1.931.483-.483-.724 1.931-.483 1.448-1.931-1.448-.724-.483-1.448 1.689-.483 1.207-1.207-1.448-.724-.483-1.207 1.689 0 1.448-1.207-.483-.724 0-1.207 5.551-16.894 5.551-17.377-3.862-15.689-3.862-15.689z"/><path class="c" d="M339.418 146.1l-15.2.965 3.862 3.62 10.619.241z"/><path d="M343.375 164.034l-3.138 5.792s9.412 1.207 12.791 2.413 12.067 2.9 12.067 2.9l2.172-8.447zm27.512 2.653l2.655 7.964 10.619-2.172-1.207-7.481z" fill="#6c6b75"/><path class="b" d="M375.229 89.13s-.724-.483-2.413.483-7.24 1.448-9.9-1.448-4.586-5.31-5.31-4.827-1.207 6.034-1.207 6.034l-2.413 1.931-14.239 5.068 1.207 32.581 2.172 7.482s-1.689 5.792.483 9.171-1.207 4.586-1.207 4.586-.724.965-.241 3.379-.483 11.343-.483 11.343 20.514 9.171 41.994 1.207l-2.414-9.171-1.207-20.514s1.207-3.379.965-4.827 7.24-21.721 7.24-21.721-1.207-10.136-7.482-12.308-7.24-4.344-7.24-4.344 2.904-3.14 1.695-4.105z"/><path d="M355.602 75.588a5.312 5.312 0 01-.74-3.748 11.361 11.361 0 00.324-3.378 33.425 33.425 0 011.943-4.9c.972-1.758.509-2.5 3.563-3.054s1.8-4.534 9.855-.231a2.361 2.361 0 002.452.925c1.666-.324 2.267 1.99 2.267 1.99s1.11-.648 1.527.278 3.385-.555 3.385 5.691a25.862 25.862 0 01-3.379 11.826s.248-10.507-5.258-11.571-11.428-4.164-12.863-.185a30.337 30.337 0 01-3.077 6.362z" fill="#e09c4a"/><ellipse class="i" cx="1.086" cy="1.448" rx="1.086" ry="1.448" transform="translate(375.835 75.094)"/><path class="c" d="M370.767 268.704l1.7 5.092s0 5.092 1.7 7.638 3.395 8.062-3.395 8.487-9.76-2.122-9.76-2.122 1.273-3.395 0-4.668 0-3.819 0-3.819l1.273-10.184zm-32.714 0l-1.7 5.092s0 5.092-1.7 7.638-3.395 8.062 3.395 8.487 9.76-2.122 9.76-2.122-1.273-3.395 0-4.668 0-3.819 0-3.819l-1.273-10.184z"/></g></svg>