<svg xmlns="http://www.w3.org/2000/svg" width="680" height="560"><defs><style>.b,.c{fill:#f5f6f9}.c{opacity:.1}.d{fill:#1b1943}.f{fill:#5857bc}.g{fill:#ffc5d3}</style></defs><g transform="translate(-20 -131.116)" opacity=".998"><ellipse class="b" cx="171.74" cy="14.973" rx="171.74" ry="14.973" transform="translate(20 661.169)"/><ellipse class="c" cx="146.284" cy="9.902" rx="146.284" ry="9.902" transform="translate(45.456 665.999)"/><g transform="translate(151.79 131.116)"><path class="d" d="M0 0h528.21v414.42H0z"/><path d="M258.095 56.634H127.787a1.581 1.581 0 010-3.163h130.308a1.581 1.581 0 110 3.163zM400.739 74.03H195.787a1.581 1.581 0 110-3.163h204.952a1.581 1.581 0 110 3.163zM258.728 91.426H128.419a1.581 1.581 0 010-3.163h130.309a1.581 1.581 0 110 3.163zm142.011.316H270.43a1.581 1.581 0 010-3.163h130.309a1.581 1.581 0 010 3.163zm-141.695 17.079H128.731a1.581 1.581 0 110-3.163h130.313a1.581 1.581 0 110 3.163zm.317 17.396H129.052a1.581 1.581 0 010-3.163h130.309a1.581 1.581 0 010 3.163zm59.145-69.267h-37.322a1.581 1.581 0 110-3.163h37.321a1.581 1.581 0 010 3.163zm0 51.871h-37.322a1.581 1.581 0 110-3.163h37.321a1.581 1.581 0 010 3.163zm0 17.078h-37.322a1.581 1.581 0 010-3.163h37.322a1.581 1.581 0 010 3.163zm62.623 0h-37.32a1.581 1.581 0 010-3.163h37.32a1.581 1.581 0 010 3.163zM164.792 74.03h-37.325a1.581 1.581 0 110-3.163h37.321a1.581 1.581 0 110 3.163zm93.462 238.794H127.945a1.581 1.581 0 010-3.163h130.309a1.581 1.581 0 110 3.163zm-.633 34.791H127.312a1.581 1.581 0 110-3.163h130.309a1.581 1.581 0 110 3.163zm.316 17.396H127.628a1.581 1.581 0 110-3.163h130.309a1.581 1.581 0 010 3.163zm55.666-17.082h-37.321a1.581 1.581 0 010-3.163h37.322a1.581 1.581 0 110 3.163zm0 17.082h-37.321a1.581 1.581 0 010-3.163h37.322a1.581 1.581 0 010 3.163zm62.624-17.082h-37.322a1.581 1.581 0 110-3.163h37.321a1.581 1.581 0 110 3.163zm24.671-17.71H195.946a1.581 1.581 0 110-3.163h204.952a1.581 1.581 0 110 3.163zm-235.948 0h-37.322a1.581 1.581 0 110-3.163h37.322a1.581 1.581 0 010 3.163zm235.948 52.504H195.946a1.581 1.581 0 110-3.163h204.952a1.581 1.581 0 010 3.163zm-235.948 0h-37.322a1.581 1.581 0 010-3.163h37.322a1.581 1.581 0 010 3.163z" fill="#f2f2f2"/><path class="f" d="M226.784 167.966l-50.606 49.97 50.606 49.973 11.386-11.386-38.27-38.271 38.586-38.587zm74.642 0l50.606 49.97-50.606 49.973-11.386-11.386 38.271-38.271-38.587-38.587z"/><circle class="f" cx="6.322" cy="6.322" r="6.322" transform="translate(7.726 4.214)"/><circle class="f" cx="6.322" cy="6.322" r="6.322" transform="translate(24.584 4.214)"/><circle class="f" cx="6.322" cy="6.322" r="6.322" transform="translate(41.442 4.214)"/></g><g transform="translate(75.722 268.577)"><path class="d" d="M23.523 338.439a34.907 34.907 0 01-6.619 2.835c-4.111 1.123-8.5.711-12.656 1.669-1.7.393-3.55 1.213-4.091 2.872a6.032 6.032 0 00.448 3.742c4.588 13.452 7.353 27.734 14.67 39.918A60.408 60.408 0 0026.6 403.224c1.663 1.5 3.548 2.966 5.775 3.2a5.866 5.866 0 005.965-8.241c-.656-1.458-1.875-2.587-2.662-3.979a15.18 15.18 0 01-1.473-5.658c-.723-5.753-1.419-11.766.574-17.211 1.337-3.652 3.789-6.765 5.833-10.074s3.741-7.1 3.286-10.962a19.039 19.039 0 00-2.954-7.328c-1.361-2.285-4.051-8.424-6.785-9.187-2.837-.79-8.161 3.383-10.636 4.655zm74.813 46.464a11.347 11.347 0 01-.537 3.841c-.856 2.26-2.979 3.809-4.076 5.962-1.526 3-.834 6.615.177 9.821.634 2.01 1.465 4.1 3.167 5.344a10.435 10.435 0 004.819 1.543c14.6 2.02 29.427.861 44.157 1.285 2.685.077 5.527.171 7.871-1.141s3.793-4.611 2.2-6.773c-1.431-1.941-4.262-1.923-6.671-2.038a27.447 27.447 0 01-16.926-6.973 12.228 12.228 0 01-2.374-2.733 16.808 16.808 0 01-1.242-2.847 126.9 126.9 0 00-7.352-16.283 8.625 8.625 0 00-3.161-3.785 8.354 8.354 0 00-3.431-.749c-3.671-.238-13.179-1.487-16.018 1.367-2.625 2.64-.545 10.808-.603 14.159z"/><circle class="g" cx="23.451" cy="23.451" r="23.451" transform="translate(97.477 11.989)"/><path class="g" d="M99.751 54.804a17.628 17.628 0 01-7.2 9.251l32.435 6.616a34.36 34.36 0 01-.455-14.462 8.336 8.336 0 00.194-3.568c-.61-2.353-3.259-3.486-5.629-4.026-5.92-1.349-11.155-2.073-16.656-4.688-1.685 2.878-1.449 7.558-2.689 10.877z"/><path class="d" d="M92.277 55.279a25.364 25.364 0 0122.106.578c4.158 2.191 7.6 5.5 10.984 8.762 3.118 3.008 6.444 6.452 6.666 10.779.107 2.1-.547 4.146-.877 6.219a20.853 20.853 0 0011.153 21.423c2.577 4.292 3.108 9.493 3.148 14.5.15 18.968-5.835 38.17-1.562 56.651 1 4.339 2.559 8.542 3.425 12.91 1.122 5.658 1.067 11.476 1.654 17.215a77.109 77.109 0 004.138 18.207c-1.411 2.245-4.349 3.106-6.995 2.924a19.758 19.758 0 01-7.48-2.538c-11.431-5.849-21.9-13.563-33.74-18.534-7.832-3.296-16.174-5.343-23.774-9.141s-14.665-9.827-16.989-18a42.13 42.13 0 01-1.121-10.929c-.231-15.47-.446-31.108 2.922-46.209 2.97-13.317 8.694-26.056 9.942-39.643.406-4.422.415-9.157 2.886-12.847 3.492-5.214 11.033-6.565 13.514-12.327z"/><path d="M107.592 35.767c1.382-1.8 4.047-2.048 6.255-1.515s4.243 1.671 6.473 2.1a3.784 3.784 0 003.03-.425 4.406 4.406 0 001.307-2.89 55.168 55.168 0 00.543-14.067 4.166 4.166 0 01.128-1.973c.552-1.33 2.236-1.647 3.611-2.073a10.777 10.777 0 007.295-11.034 4.388 4.388 0 00-1.342-3.023 5.515 5.515 0 00-3.509-.833q-9.456-.076-18.912 0c-2.333.02-4.784.077-6.806 1.241a33.064 33.064 0 00-3.95 3.328c-3.5 2.826-8.237 3.4-12.5 4.849a12.39 12.39 0 00-5.477 3.266 5.77 5.77 0 00-1.208 5.983 21.246 21.246 0 001.527 2.35c2.513 4.018.84 9.229 1.215 13.953.469 5.9 9.2 15.468 15.118 16.864 9.557 2.26 4.036-12.225 7.202-16.101z" fill="#e09c4a"/><path d="M94.351 294.407c.6 4.307 1.376 8.629 1.17 12.973-.289 6.065-2.476 11.909-2.88 17.967-.3 4.525.4 9.1-.232 13.59-.4 2.876-1.34 5.648-1.921 8.493a35.122 35.122 0 005.644 26.924 4.41 4.41 0 001.638 1.587 4.624 4.624 0 002.03.269 145.655 145.655 0 0020.372-1.851 1.955 1.955 0 001.308-.577 1.834 1.834 0 00.284-.772c1.25-6.423-1.6-12.863-2.324-19.367-.774-6.944.893-13.9 2.546-20.691a91.9 91.9 0 012.806-9.9c.8-2.183 1.765-4.306 2.458-6.526a49.749 49.749 0 001.782-10.686q.722-8.559.765-17.158a72 72 0 00-1.348-16.2c-1.52-6.748-4.633-13.015-7.718-19.206a12.162 12.162 0 00-4.547 2.161 101.481 101.481 0 01-12.424 6.864c-2.887 1.341-8.516 2.293-10.348 5.087-1.807 2.756-.641 8.378-.5 11.417q.352 7.83 1.439 15.602z" fill="#2f2e41"/><path d="M94.351 294.407c.6 4.307 1.376 8.629 1.17 12.973-.289 6.065-2.476 11.909-2.88 17.967-.3 4.525.4 9.1-.232 13.59-.4 2.876-1.34 5.648-1.921 8.493a35.122 35.122 0 005.644 26.924 4.41 4.41 0 001.638 1.587 4.624 4.624 0 002.03.269 145.655 145.655 0 0020.372-1.851 1.955 1.955 0 001.308-.577 1.834 1.834 0 00.284-.772c1.25-6.423-1.6-12.863-2.324-19.367-.774-6.944.893-13.9 2.546-20.691a91.9 91.9 0 012.806-9.9c.8-2.183 1.765-4.306 2.458-6.526a49.749 49.749 0 001.782-10.686q.722-8.559.765-17.158a72 72 0 00-1.348-16.2c-1.52-6.748-4.633-13.015-7.718-19.206a12.162 12.162 0 00-4.547 2.161 101.481 101.481 0 01-12.424 6.864c-2.887 1.341-8.516 2.293-10.348 5.087-1.807 2.756-.641 8.378-.5 11.417q.352 7.83 1.439 15.602z" fill="#1b1943" opacity=".1"/><path class="d" d="M62.646 202.408c-3.114 8.384 1.463 17.445 5.44 25.456 9.8 19.737 16.6 40.8 23.37 61.768.507 1.571 1.013 3.285.448 4.835a6.334 6.334 0 01-2.284 2.709c-4.666 3.544-10.608 4.807-16.167 6.661a72.988 72.988 0 00-15.331 7.187c-4.028 2.5-7.8 5.377-11.567 8.254l-11.988 9.156a8.015 8.015 0 00-2 1.94c-1.156 1.814-.683 4.182-.107 6.255a106.378 106.378 0 005.87 16.019 5.6 5.6 0 002.129 2.79c1.871 1.005 4.16-.328 5.589-1.9s2.665-3.528 4.679-4.2 4.226.142 6.327-.153c3.4-.477 5.654-3.607 8.1-6.011 10.008-9.818 26.717-9.106 37.726-17.787a47.952 47.952 0 015.043-3.94c1.861-1.1 3.972-1.7 5.9-2.676 5.873-2.957 9.565-9.072 11.543-15.343s2.542-12.891 3.963-19.312a83.965 83.965 0 002.029-9.986 53.489 53.489 0 00-.2-9.442l-3.972-49.14c-.323-4-.647-8.006-1.275-11.971-11.8.422-23.587.9-35.391 1.036-9.396.107-18.961.763-27.874-2.205z"/><path d="M58.309 213.903c1.6 2.574 5.5 2.521 8.178 1.11s4.766-3.782 7.455-5.181c3.613-1.88 7.888-1.809 11.959-1.694 6.445.182 12.97.376 19.171 2.142 6.414 1.827 12.658 5.344 19.29 4.643a3.968 3.968 0 003.044-1.429 4.487 4.487 0 00.5-2.3l.217-5.794a5.232 5.232 0 00-.461-2.934 4.922 4.922 0 00-2.2-1.683c-9.44-4.57-20.205-5.421-30.687-5.78q-7.992-.274-15.991-.225c-4.525.028-9.957-.627-14.357.582-5.9 1.627-9.113 13.726-6.118 18.543z" fill="#6c6b75"/><path class="f" d="M117.581 62.153c-12.369-.11-23.577-8.274-35.945-8.472a9.319 9.319 0 00-4.365.753c-1.723.868-2.856 2.547-4.166 3.964-3.657 3.96-8.952 6.074-12.709 9.94-3.523 3.624-5.482 9.024-4.091 13.883s6.64 8.586 11.557 7.418a29.785 29.785 0 0111.6-15.766 58.984 58.984 0 019.069-4.761c5.559-2.518 11.774-5.085 17.577-3.2a24.8 24.8 0 016 3.27l9.675 6.5c-1.123-4.445-2.137-9.432-4.202-13.529z"/><path class="f" d="M66.442 85.339c-1.642 2.049.724 5.018.361 7.619-.241 1.728-1.663 3.048-2.255 4.689-.613 1.7-.288 3.583-.521 5.375a23.055 23.055 0 01-1.032 3.828 68.772 68.772 0 00-2.174 11.352l-2.165 16.167a61.25 61.25 0 00-.685 7.347 21.94 21.94 0 01-.366 5.493 40.572 40.572 0 01-2.255 5c-.714 1.686-1.045 3.725-.08 5.281a9.23 9.23 0 00-1.932 11.521 6.393 6.393 0 011 1.833 4.71 4.71 0 01-.438 2.7l-2.189 5.833c-.56 1.493-.738 3.766.82 4.107a13.764 13.764 0 00-2.955 4.667 5.557 5.557 0 00.787 5.265 6.714 6.714 0 011.371 1.664 4.429 4.429 0 01-.159 2.625 9.636 9.636 0 001.192 7.554 6.776 6.776 0 006.814 2.921c4.379-.988 8.314-2.547 12.729-1.737 9.507 1.744 19.044 3.5 28.251 6.436 10.509 3.355 20.684 8.275 31.667 9.308a3.074 3.074 0 002.118-.329 3.181 3.181 0 00.979-2.013l3.394-15.916a163.782 163.782 0 003.12-17.828c.386-3.87.5-7.761.606-11.649l.875-30.943a30.916 30.916 0 00-1.781-13.451l-5.032-16.064c-2.872-9.167-9.46-17.3-11.805-26.613-1.484-5.9-2.581-12.224-6.562-16.819-5.675-6.552-15.495-7.571-24.089-6.444a28.78 28.78 0 00-11.157 3.4c-3.883 2.328-6.744 6-9.512 9.58-2.286 2.959-4.607 5.33-6.94 8.241z"/><path class="g" d="M86.508 176.355c.708 3.053 2.2 5.869 3.106 8.868 1.525 5.025 1.4 10.437 2.918 15.463.639 2.11 1.565 4.135 2.023 6.291 1.069 5.027-.492 10.227-2.431 14.986s-4.3 9.452-4.93 14.552c-.443 3.592.194 7.648 2.962 9.98 2.875 2.42 7.052 2.256 10.8 1.934a11.343 11.343 0 003.918-.816c2.863-1.355 4.069-4.743 4.738-7.839 2.243-10.375 1.6-21.129.95-31.724l-1.7-27.708c-.328-5.334-.68-10.779-2.323-15.9-.6-1.863-1.64-5.628-3.342-6.818-1.686-1.178-6.5-1.231-8.586-1.329-9.799-.464-9.69 13.203-8.103 20.06z"/><path class="d" d="M97.357 74.049a6.74 6.74 0 00-6.452.57 19.882 19.882 0 00-4.833 4.693c-4.321 5.274-8.9 11.327-8.255 18.115.24 2.545 1.215 4.954 1.876 7.424 2.9 10.829-.307 22.282.061 33.485.212 6.474 1.621 12.841 3.024 19.165.286 1.291.745 2.785 1.993 3.219a4.33 4.33 0 002.879-.446 22.962 22.962 0 0121.013 2.648c2.319-1.237 1.45-5.15.93-7.726-1.545-7.655.552-15.551 3.1-22.933s5.593-14.755 6.015-22.552c.478-8.835-2.451-17.458-5.342-25.821-.631-1.825-1.32-3.739-2.783-5a11.059 11.059 0 00-4.211-1.924c-3.07-.908-6.178-1.432-9.015-2.917z"/></g><g transform="translate(623.644 563.674)"><ellipse class="b" cx="38.178" cy="10.645" rx="38.178" ry="10.645" transform="translate(0 90.117)"/><ellipse class="c" cx="12.425" cy="7.039" rx="12.425" ry="7.039" transform="translate(25.753 93.55)"/><path d="M70.215 49.754c0 21.9-13.018 29.543-29.076 29.543s-29.076-7.646-29.076-29.543S41.139 0 41.139 0s29.076 27.856 29.076 49.754z" fill="#7b7ddd"/><path class="d" d="M40.076 75.944l.3-18.326 12.393-22.672-12.346 19.8.134-8.24 8.541-16.4-8.505 14.222.241-14.82 9.142-13.064-9.108 10.728.15-27.175-.945 35.975.078-1.484-9.3-14.233 9.15 17.082-.866 16.552-.026-.44L28.39 38.474l10.687 16.53-.108 2.07-.02.031.009.17-2.2 41.993h2.937l.352-21.69 10.661-16.49z"/></g></g></svg>