<svg xmlns="http://www.w3.org/2000/svg" width="535.635" height="560.488"><defs><style>.a{fill:#f5f6f9}</style></defs><path class="a" d="M136.818 0l398.817 220.595-126.767 229.184L10.051 229.184z"/><path fill="#fff" stroke="#1b1943" d="M.5 187.219h151.576v199.008H.5z"/><path d="M42.26 218.668h68.055v68.055H42.26zm-25.778 82.491h119.611v8.249H16.482zm0 22.685h119.611v8.249H16.482zm0 22.685h119.611v8.249H16.482zm305.731 14.951h151.576v199.008H322.213z" fill="#5857bc"/><path class="a" d="M344.382 387.774H451.62v12.374H344.382zm0 26.809H451.62v12.374H344.382zm0 26.81H451.62v12.374H344.382zm0 26.809H451.62v12.374H344.382zm0 26.81H451.62v12.374H344.382zm0 26.809H451.62v12.374H344.382z"/><path d="M277.874 26.362H429.45V225.37H277.874z" fill="#c2beef"/><path d="M300.043 92.87h107.238v12.374H300.043zm0 26.81h107.238v12.374H300.043zm0 26.809h107.238v12.374H300.043z" fill="#1b1943"/></svg>