<svg xmlns="http://www.w3.org/2000/svg" width="782.171" height="852.76"><defs><style>.a{fill:#f5f6f9}.b{fill:none;stroke:#3f3d56;stroke-miterlimit:10}.c{fill:#7b7ddd}.l{fill:#ffc5d3}.n{fill:#ababe9}.h{fill:#6c6b75}.i{fill:#2f2e41}.p{fill:#f2f2f2}.q{fill:#5857bc}</style></defs><g transform="translate(85.809 -83.627)"><ellipse class="a" cx="323.978" cy="28.246" rx="323.978" ry="28.246" transform="translate(48.406 879.895)"/><ellipse class="a" cx="275.957" cy="18.679" rx="275.957" ry="18.679" transform="translate(96.427 889.007)"/><path class="b" d="M152.097 685.985a27.307 27.307 0 0123.538 16.458c5.886 14.227-1.693 30.939-13.069 41.314s-25.99 16.3-39.268 24.1c-17.834 10.469-33.86 25-42.783 43.659s-9.873 41.765.616 59.588c9.736 16.542 27.438 26.443 44.322 35.574"/><ellipse class="c" cx="20.793" cy="10.1" rx="20.793" ry="10.1" transform="translate(116.309 678.124)"/><ellipse class="c" cx="20.793" cy="10.1" rx="20.793" ry="10.1" transform="translate(99.675 744.663)"/><ellipse class="c" cx="20.793" cy="10.1" rx="20.793" ry="10.1" transform="translate(137.697 755.357)"/><ellipse class="c" cx="20.793" cy="10.1" rx="20.793" ry="10.1" transform="translate(78.287 811.201)"/><ellipse class="c" cx="20.793" cy="10.1" rx="20.793" ry="10.1" transform="translate(36.701 811.201)"/><path d="M479.147 407.915s65.339 10.324 57.309-2.7-50.788-26.044-58.629-23.326 1.32 26.026 1.32 26.026z" fill="#ffc1c7"/><path d="M479.147 407.915s65.339 10.324 57.309-2.7-50.788-26.044-58.629-23.326 1.32 26.026 1.32 26.026z" opacity=".1" fill="#ffc5d3"/><path d="M404.215 262.233s42.207 11.324 22.648 47.354c0 0-31.913 62.8-18.53 66.914s75.149 2.059 75.149 2.059 14.412 35 7.206 36.03-122.5 24.707-134.857 2.059 0-120.445 0-120.445 17.501-48.383 48.384-33.971z" fill="#6c63ff"/><path d="M404.215 262.233s42.207 11.324 22.648 47.354c0 0-31.913 62.8-18.53 66.914s75.149 2.059 75.149 2.059 14.412 35 7.206 36.03-122.5 24.707-134.857 2.059 0-120.445 0-120.445 17.501-48.383 48.384-33.971z" opacity=".71" fill="#ababe9"/><path class="h" d="M284.8 797.543s-18.53 44.266-8.236 52.5 8.236 23.677 1.029 23.677-23.677-14.412-32.942-31.913c-6.9-13.037-18.374-39.213-23.777-51.718a6.778 6.778 0 014.246-9.171l29.825-9.113zm195.594 53.532s39.119 31.913 59.708 30.883 23.677 20.589 0 23.677-94.709 4.118-100.885 0-4.118-47.354 0-48.384 41.177-6.176 41.177-6.176z"/><path class="i" d="M347.596 522.682s0 31.913 16.471 45.3c0 0 19.559 99.856 2.059 106.033s-96.767 59.704-103.974 86.468l-17.5 13.383s31.913 31.913 38.089 31.913 66.914-83.385 121.474-98.827c0 0 33.972-8.236 32.942-52.5s-41.178-161.623-41.178-161.623h-46.324z"/><path d="M347.596 522.682s0 31.913 16.471 45.3c0 0 19.559 99.856 2.059 106.033s-96.767 59.704-103.974 86.468l-17.5 13.383s31.913 31.913 38.089 31.913 66.914-83.385 121.474-98.827c0 0 33.972-8.236 32.942-52.5s-41.178-161.623-41.178-161.623h-46.324z" opacity=".096" fill="#1b1943"/><path d="M454.658 501.064s30.883 96.768 25.736 134.857c0 0 12.353 36.031 3.088 75.149s1.03 140 3.088 142.063-22.648 23.677-49.413 6.177c0 0-1.029-24.707-6.177-29.854s-5.147-113.239 0-128.68-55.59-127.651-55.59-127.651-32.942-29.854-20.589-45.3-1.029-46.325-1.029-46.325l93.679 6.177z" fill="#1b1943"/><circle class="l" cx="41.178" cy="41.178" r="41.178" transform="translate(427.892 182.966)"/><path class="l" d="M442.304 205.613s-32.942 38.089-41.178 39.119 26.765 45.3 26.765 45.3 19.559-32.942 32.942-36.031-18.529-48.388-18.529-48.388z"/><path class="h" d="M394.95 243.703l5.147-7.206s35.469 31.619 36.779 40a18.158 18.158 0 01-2.807 13.529l-20.589-9.261-10.294-20.591zm61.767 255.302s8.236 24.707 2.059 23.677-6.177-14.412-13.383-14.412-11.324-11.321-11.324-11.321zm-52.502 2.059s-23.677 51.472-53.529 46.325l-5.83-2.5a11.222 11.222 0 01-6.5-12.935c2.845-11.856 8.074-30.892 12.327-30.892z"/><path d="M510.159 226.728s-4.029-12.879-17.412-7.732-24.707 16.471-27.795 8.236-10.992-15.812-16.3-9.45-29.505 18.2-28.476 12.024-12.868-42.722 13.9-56.1 41.178-23.677 54.56-13.383 46.325 29.854 41.178 42.207-3.088 18.53-11.324 21.618-8.331 2.58-8.331 2.58z" fill="#e09c4a"/><path class="n" d="M389.803 249.879s1.029-9.265 10.294-7.206 33.974 43.237 33.974 43.237a291.239 291.239 0 019.265 40.148c4.118 24.707 12.353 115.3 20.589 130.739s-7.206 51.472-7.206 51.472-9.265-10.294-39.119-4.118-68.973 12.353-72.061 9.265 3.088-11.324-5.147-21.618-19.562-204.859 21.616-226.478c0 0 19.563-15.441 27.795-15.441z"/><path d="M400.098 280.763s42.207 11.324 22.648 47.354c0 0-31.913 62.8-18.53 66.914s75.149 2.059 75.149 2.059 6.691 22.133-.515 23.162-114.783 37.575-127.136 14.932 0-120.445 0-120.445 17.5-48.389 48.384-33.976z" opacity=".1"/><path class="i" d="M580.215 392.27l-68.421 37.583a3.258 3.258 0 01-4.791-1.413l-16.761-35.035a4.373 4.373 0 012.242-5.252l56.806-29.283a3.316 3.316 0 014.346.831l28.376 26.733a4.214 4.214 0 01-1.8 5.834z"/><path class="a" d="M575.65 387.091l-64.145 36.664-17.069-30.765 55.027-29.924z"/><ellipse class="p" cx=".805" cy=".944" rx=".805" ry=".944" transform="rotate(-140.15 328.98 94.14)"/><ellipse class="p" cx=".537" cy=".63" rx=".537" ry=".63" transform="rotate(-140.15 346.516 105.355)"/><path class="l" d="M478.192 423.517s65.987 4.626 56.859-7.658-52.852-21.547-60.429-18.16 3.57 25.818 3.57 25.818z"/><path class="n" d="M400.097 274.587s42.207 11.324 22.648 47.354c0 0-31.913 62.8-18.53 66.914s75.149 2.059 75.149 2.059 14.412 35 7.206 36.031-122.5 24.707-134.857 2.059 0-120.445 0-120.445 17.501-48.385 48.384-33.972z"/></g><g transform="translate(85.809 -83.627)"><circle class="q" cx="12.535" cy="12.535" r="12.535" transform="translate(-85.809 88.551)"/><circle class="b" cx="12.535" cy="12.535" r="12.535" transform="translate(-82.123 84.127)"/><circle class="q" cx="12.535" cy="12.535" r="12.535" transform="translate(164.148 151.224)"/><circle class="b" cx="12.535" cy="12.535" r="12.535" transform="translate(167.834 146.8)"/><rect class="a" width="191.728" height="95.242" rx="13.524" transform="translate(109.191 202.641)"/><circle class="a" cx="11.412" cy="11.412" r="11.412" transform="translate(53.148 231.811)"/><circle class="b" cx="11.412" cy="11.412" r="11.412" transform="translate(56.504 227.783)"/><path class="q" d="M-46.838 130.641h171.786a9.971 9.971 0 019.971 9.971v75.3a9.971 9.971 0 01-9.971 9.971H-46.838a9.971 9.971 0 01-9.971-9.972v-75.299a9.971 9.971 0 019.971-9.971z"/><rect class="b" width="191.728" height="95.242" rx="13.524" transform="translate(-46.055 122.099)"/><rect class="b" width="191.728" height="95.242" rx="13.524" transform="translate(120.462 194.62)"/><path class="a" d="M20.321 153.641l-24.13 23.829 24.13 23.829 5.429-5.429-18.248-18.249 18.4-18.4zm35.592 0l24.13 23.829-24.13 23.829-5.429-5.429 18.249-18.249-18.4-18.4z"/><path class="q" d="M148.19 231.795l44-.132.114 38-44 .132z"/><path d="M203.208 237.605l58-.174.012 4-58 .174zm.045 12l58-.174.012 4-58 .174z" fill="#c2beef"/></g></svg>