<svg xmlns="http://www.w3.org/2000/svg" width="727.22" height="392.438"><defs><style>.b,.c{fill:#6c63ff}.b{opacity:.2}.h{fill:#ababe9}.i{fill:#5857bc}.j{fill:#7b7ddd}.l{fill:#ffc5d3}.o{fill:#aaacb2}.s{opacity:.1}.t{fill:#fff}</style></defs><g transform="translate(0 -.032)"><path d="M727.219 251.89a115.646 115.646 0 01-4.354 31.53 114.455 114.455 0 01-12.25 28.148c0 31.848-21.5 59.373-52.7 72.468a106.349 106.349 0 01-41.148 8.137H138.051a132.836 132.836 0 01-68.742-18.664 118.1 118.1 0 01-15.784-11.372c-21.614-18.577-35.014-44.244-35.014-72.6A115.078 115.078 0 0167.1 122.351a110.931 110.931 0 0116.216-5.8q2.943-.8 5.95-1.437a111.5 111.5 0 0116.216-2.225q2.956-.184 5.944-.21h1.093c2.2 0 4.38.076 6.548.2l.712-1.208q1.31-2.187 2.683-4.329 2.479-3.9 5.2-7.692 2.848-4 5.944-7.87l.528-.636q1.754-2.187 3.585-4.323 5.721-6.668 12.078-12.936C195.636 28.955 267.449.032 348.18.032c62.818 0 120.239 17.513 164.222 46.449a110.723 110.723 0 0154.63-14.36c62.131 0 112.516 51.09 112.516 114.111a117.584 117.584 0 01-.636 11.938 114.423 114.423 0 0148.307 93.72z" opacity=".296" fill="#c2beef"/><path class="b" d="M421.717 111.672h16.216v16.216h-16.216z"/><path class="c" d="M443.883 111.672h16.216v16.216h-16.216z"/><path class="b" d="M466.043 111.672h16.216v16.216h-16.216z"/><path opacity=".7" fill="#6c63ff" d="M488.209 111.672h16.216v16.216h-16.216z"/><path opacity=".4" fill="#6c63ff" d="M421.717 132.211h16.216v16.216h-16.216z"/><path class="b" d="M443.883 132.211h16.216v16.216h-16.216zm22.16 0h16.216v16.216h-16.216zm22.166 0h16.216v16.216h-16.216zm-88.659 20.545h16.216v16.216H399.55z"/><path class="c" d="M421.717 152.756h16.216v16.216h-16.216z"/><path class="b" d="M443.883 152.756h16.216v16.216h-16.216zm22.16 0h16.216v16.216h-16.216zm22.166 0h16.216v16.216h-16.216zm-66.492 20.539h16.216v16.216h-16.216zm22.166 0h16.216v16.216h-16.216zm22.16 0h16.216v16.216h-16.216zm22.166 0h16.216v16.216h-16.216zm-66.492 20.545h16.216v16.216h-16.216zm22.166 0h16.216v16.216h-16.216zm22.16 0h16.216v16.216h-16.216zm22.166 0h16.216v16.216h-16.216zm22.16 0h16.216v16.216h-16.216z"/><path fill="#ababe9" opacity=".2" d="M532.535 193.84h16.216v16.216h-16.216z"/><g opacity=".902"><path class="h" d="M149.804 73.868v12.936h-12.078q5.677-6.662 12.078-12.936zm5.95-3.28h16.216v16.216h-16.216zm22.16 0h16.216v16.216h-16.216zm22.166 0h16.216v16.216H200.08zm22.16 0h16.216v16.216H222.24zm22.166 0h16.216v16.216h-16.216z"/><path class="i" d="M266.572 70.588h16.216v16.216h-16.216z"/><path class="h" d="M288.732 70.588h16.216v16.216h-16.216zm22.166 0h16.216v16.216h-16.216zm22.16 0h16.216v16.216h-16.216z"/><path class="i" d="M355.224 70.588h16.216v16.216h-16.216z"/><path class="h" d="M377.391 70.588h16.216v16.216h-16.216zm22.159 0h16.216v16.216H399.55zm22.167 0h16.216v16.216h-16.216zm22.166 0h16.216v16.216h-16.216zm22.16 0h16.216v16.216h-16.216zm22.166 0h16.216v16.216h-16.216z"/><path class="i" d="M510.369 70.588h16.216v16.216h-16.216zm22.166 0h16.216v16.216h-16.216z"/><path class="h" d="M554.701 70.588h16.216v16.216h-16.216zm22.16 0h16.216v16.216h-16.216z"/><path class="i" d="M599.027 70.588h16.216v16.216h-16.216zm22.16 0h16.216v16.216h-16.216zM127.645 99.651v7.692h-5.2q2.48-3.929 5.2-7.692z"/><path class="h" d="M133.588 91.127h16.216v16.216h-16.216z"/><path class="i" d="M155.754 91.127h16.216v16.216h-16.216z"/><path class="h" d="M177.914 91.127h16.216v16.216h-16.216z"/><path class="i" d="M200.08 91.127h16.216v16.216H200.08z"/><path class="h" d="M222.24 91.127h16.216v16.216H222.24z"/><path class="j" d="M244.406 91.127h16.216v16.216h-16.216z"/><path class="i" d="M266.572 91.127h16.216v16.216h-16.216z"/><path class="j" d="M288.732 91.127h16.216v16.216h-16.216z"/><path class="h" d="M310.898 91.127h16.216v16.216h-16.216z"/><path class="j" d="M333.058 91.127h16.216v16.216h-16.216z"/><path class="i" d="M355.224 91.127h16.216v16.216h-16.216z"/><path class="j" d="M377.391 91.127h16.216v16.216h-16.216zm22.159 0h16.216v16.216H399.55z"/><path class="c" d="M421.717 91.127h16.216v16.216h-16.216z"/><path class="j" d="M443.883 91.127h16.216v16.216h-16.216zm22.16 0h16.216v16.216h-16.216z"/><path class="h" d="M488.209 91.127h16.216v16.216h-16.216zm22.16 0h16.216v16.216h-16.216z"/><path class="j" d="M532.535 91.127h16.216v16.216h-16.216z"/><path class="h" d="M554.701 91.127h16.216v16.216h-16.216z"/><path class="i" d="M576.861 91.127h16.216v16.216h-16.216zm22.166 0h16.216v16.216h-16.216zm22.16 0h16.216v16.216h-16.216z"/><path class="h" d="M83.312 116.554v11.33H67.096v-5.537a110.942 110.942 0 0116.216-5.8zm22.166-3.662v15H89.262v-12.775z"/><path class="i" d="M111.422 111.672h16.216v16.216h-16.216zm22.166 0h16.216v16.216h-16.216zm22.166 0h16.216v16.216h-16.216zm22.16 0h16.216v16.216h-16.216zm22.166 0h16.216v16.216H200.08z"/><path class="h" d="M222.24 111.672h16.216v16.216H222.24z"/><path class="j" d="M244.406 111.672h16.216v16.216h-16.216zm22.166 0h16.216v16.216h-16.216z"/><path class="i" d="M288.732 111.672h16.216v16.216h-16.216z"/><path class="h" d="M310.898 111.672h16.216v16.216h-16.216z"/><path class="j" d="M333.058 111.672h16.216v16.216h-16.216z"/><path class="i" d="M355.224 111.672h16.216v16.216h-16.216z"/><path class="h" d="M377.391 111.672h16.216v16.216h-16.216z"/><path class="j" d="M399.55 111.672h16.216v16.216H399.55z"/><path class="i" d="M510.369 111.672h16.216v16.216h-16.216z"/><path class="j" d="M532.535 111.672h16.216v16.216h-16.216z"/><path class="h" d="M554.701 111.672h16.216v16.216h-16.216z"/><path class="i" d="M576.861 111.672h16.216v16.216h-16.216zm22.166 0h16.216v16.216h-16.216zm22.16 0h16.216v16.216h-16.216z"/><path class="h" d="M67.096 132.211h16.216v16.216H67.096zm22.166 0h16.216v16.216H89.262zm22.16 0h16.216v16.216h-16.216zm22.166 0h16.216v16.216h-16.216z"/><path class="i" d="M155.754 132.211h16.216v16.216h-16.216zm22.16 0h16.216v16.216h-16.216zm22.166 0h16.216v16.216H200.08z"/><path class="h" d="M222.24 132.211h16.216v16.216H222.24zm22.166 0h16.216v16.216h-16.216z"/><path class="j" d="M266.572 132.211h16.216v16.216h-16.216zm22.16 0h16.216v16.216h-16.216z"/><path class="i" d="M310.898 132.211h16.216v16.216h-16.216z"/><path class="h" d="M333.058 132.211h16.216v16.216h-16.216z"/><path class="j" d="M355.224 132.211h16.216v16.216h-16.216zm22.167 0h16.216v16.216h-16.216zm22.159 0h16.216v16.216H399.55z"/><path class="h" d="M510.369 132.211h16.216v16.216h-16.216z"/><path class="i" d="M532.535 132.211h16.216v16.216h-16.216zm22.166 0h16.216v16.216h-16.216z"/><path class="j" d="M576.861 132.211h16.216v16.216h-16.216z"/><path class="h" d="M599.027 132.211h16.216v16.216h-16.216z"/><path class="i" d="M621.187 132.211h16.216v16.216h-16.216z"/><path class="h" d="M67.096 152.756h16.216v16.216H67.096zm22.166 0h16.216v16.216H89.262z"/><path class="j" d="M111.422 152.756h16.216v16.216h-16.216z"/><path class="h" d="M133.588 152.756h16.216v16.216h-16.216zm22.166 0h16.216v16.216h-16.216z"/><path class="i" d="M177.914 152.756h16.216v16.216h-16.216zm22.166 0h16.216v16.216H200.08z"/><path class="h" d="M222.24 152.756h16.216v16.216H222.24zm22.166 0h16.216v16.216h-16.216z"/><path class="j" d="M266.572 152.756h16.216v16.216h-16.216z"/><path class="i" d="M288.732 152.756h16.216v16.216h-16.216z"/><path class="h" d="M310.898 152.756h16.216v16.216h-16.216z"/><path class="i" d="M333.058 152.756h16.216v16.216h-16.216zm22.166 0h16.216v16.216h-16.216zm22.167 0h16.216v16.216h-16.216z"/><path class="h" d="M510.369 152.756h16.216v16.216h-16.216z"/><path class="c" d="M532.535 152.756h16.216v16.216h-16.216z"/><path class="i" d="M554.701 152.756h16.216v16.216h-16.216z"/><path class="h" d="M576.861 152.756h16.216v16.216h-16.216zm22.166 0h16.216v16.216h-16.216z"/><path class="i" d="M621.187 152.756h16.216v16.216h-16.216z"/><path class="h" d="M67.096 173.295h16.216v16.216H67.096zm22.166 0h16.216v16.216H89.262zm22.16 0h16.216v16.216h-16.216z"/><path class="j" d="M133.588 173.295h16.216v16.216h-16.216z"/><path class="h" d="M155.754 173.295h16.216v16.216h-16.216zm22.16 0h16.216v16.216h-16.216z"/><path class="i" d="M200.08 173.295h16.216v16.216H200.08z"/><path class="h" d="M222.24 173.295h16.216v16.216H222.24zm22.166 0h16.216v16.216h-16.216zm22.166 0h16.216v16.216h-16.216z"/><path class="i" d="M288.732 173.295h16.216v16.216h-16.216z"/><path class="h" d="M310.898 173.295h16.216v16.216h-16.216z"/><path class="i" d="M333.058 173.295h16.216v16.216h-16.216zm22.166 0h16.216v16.216h-16.216z"/><path class="h" d="M377.391 173.295h16.216v16.216h-16.216zm22.159 0h16.216v16.216H399.55zm110.819 0h16.216v16.216h-16.216zm22.166 0h16.216v16.216h-16.216zm22.166 0h16.216v16.216h-16.216zm22.16 0h16.216v16.216h-16.216z"/><path class="j" d="M599.027 173.295h16.216v16.216h-16.216z"/><path class="i" d="M621.187 173.295h16.216v16.216h-16.216zM67.096 193.84h16.216v16.216H67.096zm22.166 0h16.216v16.216H89.262zm22.16 0h16.216v16.216h-16.216zm22.166 0h16.216v16.216h-16.216zm22.166 0h16.216v16.216h-16.216z"/><path class="h" d="M177.914 193.84h16.216v16.216h-16.216zm22.166 0h16.216v16.216H200.08zm22.16 0h16.216v16.216H222.24zm22.166 0h16.216v16.216h-16.216zm22.166 0h16.216v16.216h-16.216zm22.16 0h16.216v16.216h-16.216z"/><path class="i" d="M310.898 193.84h16.216v16.216h-16.216z"/><path class="h" d="M333.058 193.84h16.216v16.216h-16.216zm22.166 0h16.216v16.216h-16.216zm22.167 0h16.216v16.216h-16.216z"/><path class="i" d="M399.55 193.84h16.216v16.216H399.55z"/><path class="h" d="M554.701 193.84h16.216v16.216h-16.216zm22.16 0h16.216v16.216h-16.216zm22.166 0h16.216v16.216h-16.216z"/><path class="i" d="M621.187 193.84h16.216v16.216h-16.216z"/></g><circle cx="22.166" cy="22.166" r="22.166" transform="translate(444.754 209.166)" fill="#767d9f"/><path class="l" d="M465.77 203.134q3.318 14.481 5.632 29.178c.464 2.911.877 5.982-.178 8.734-.884 2.3-2.682 4.087-4.094 6.1s-2.479 4.583-1.621 6.884 3.363 3.56 5.753 4.208c6.84 1.843 14.131.5 20.939-1.494a33.875 33.875 0 008.779-3.636 32.852 32.852 0 007.425-6.992c9.923-12.033 16.42-26.476 22.535-40.83a24.868 24.868 0 01-21.047-8.48c-2.5-2.943-4.342-7.043-2.931-10.641-4.138 2.269-9.052 2.422-13.508 3.973a47.976 47.976 0 00-7.946 3.909q-4.564 2.638-9.078 5.378c-3.439 2.066-6.662 3.912-10.66 3.709z"/><path d="M512.129 219.776c-3.884 7.558-8.938 14.824-16.153 19.325s-16.928 5.721-24.156 1.271c-3.56-2.174-6.255-5.48-9.364-8.264s-6.992-5.168-11.169-4.806c-4.6.4-8.207 3.992-11.29 7.431-4.679 5.225-9.2 10.673-12.51 16.858-6.357 11.887-7.863 25.783-7.584 39.26s2.231 26.883 2.276 40.359c.064 16.579-2.746 33.024-5.588 49.354 26.126-3.216 52.285 3.814 78.468 6.478 16.757 1.723 33.64 1.685 50.486 1.64 2.962 0 6.115-.076 8.582-1.716a11.567 11.567 0 003.554-4.221c2.327-4.291 3.261-9.186 3.909-14.023 1.646-12.218 1.7-24.588 1.742-36.92.114-29.877.222-59.862-3.572-89.5-.934-7.291-2.13-14.621-4.927-21.441s-7.361-13.1-13.743-16.75c-4.1-2.352-13.6-6.446-18.435-4.075-5.421 2.64-7.926 14.68-10.526 19.74z" fill="#c2beef"/><path class="i" d="M514.059 304.147c-.985-18.435-5-38.109 3.541-54.471 2.1-4.018-5.429-9.033-3.1-12.923a58.529 58.529 0 006.4-15.212 11.472 11.472 0 00.413-5.626c-.845-3.363-4.17-5.365-6.992-7.412-3.115-2.263-4.717-9.16-5.721-12.892s7.991.763 11.608-.566c5.022-1.837 11.4-.68 16.413 1.182a27.4 27.4 0 008.817 1.2 116.162 116.162 0 0017.348-.413 43.146 43.146 0 017.762-.667c6.617.375 12.37 4.9 16.286 10.254s6.408 11.588 9.618 17.386c2.676 4.831 5.867 9.4 8.149 14.424a88.791 88.791 0 014.564 13.985l3.261 12.2a16.255 16.255 0 01.8 5.41 15.355 15.355 0 01-1.907 5.5 104.328 104.328 0 01-11.868 18.111c-6.859 8.41-15.187 15.994-19.261 26.063a65.814 65.814 0 00-3.28 12.25 450.007 450.007 0 00-6.929 50.314 110.725 110.725 0 00-23.215-7.762 112.856 112.856 0 00-12.078-1.907c-3.553-.369-8.137.331-11.518-.636-5.658-1.608-6.281-11.175-7.139-16.185a147.794 147.794 0 01-1.7-24.156c-.066-9.172.22-18.32-.272-27.451zm-124.241-34.476c2.676 15.256 5.626 30.557 11.442 44.892-.146.14-.292.267-.439.394-.515.439-1.049.852-1.608 1.271a21.414 21.414 0 00-3.814 2.886 5.086 5.086 0 00-.953 1.557 3.484 3.484 0 000 2.842c-3.032 1.341-6.554.928-9.955.8-2.93-.108-5.772 0-8.124 1.608-3.268 2.25-4.253 6.573-4.78 10.5q-.292 2.149-.5 4.3-.2 2-.331 4.018a119.89 119.89 0 00-.121 13.349q.051 1.22.133 2.441c-10.387-.248-19.852-5.664-28.809-10.927-2.047-1.2-4.157-2.466-5.486-4.45a10.044 10.044 0 01-1.468-6.541 7.224 7.224 0 01.1-.966 26.432 26.432 0 011.456-5.518 68.145 68.145 0 0112.2-20.755c2.276-2.657 4.837-5.257 5.9-8.594.464-1.456.636-3 1.106-4.45 2.11-6.28 9.726-9.249 12.332-15.345a46.622 46.622 0 011.716-4.45 11.206 11.206 0 012.7-3.019c.464-.388.947-.763 1.424-1.138q6.7-5.251 12.911-11.093 1.157-1.087 2.288-2.2a37.809 37.809 0 00.68 8.588z"/><path class="i" d="M453.876 224.549c-.915.966-1.907 1.875-2.88 2.778l-.261.235-1.03.953a24.794 24.794 0 00-4.8 5.588l-.108.178c-3.242 5.8-2.041 12.949-1.138 19.541a166.273 166.273 0 011.507 24.792c-.165 11.442-1.513 22.808-1.538 34.238q0 3.89.172 7.774c.184 4.215.5 8.423.884 12.631.413 4.615.909 9.224 1.373 13.832.369 3.566.718 7.126 1.011 10.686.146 1.844.286 3.681.4 5.524.134 2.161.242 4.329.3 6.49.044 1.373.07 2.74.07 4.113v2.333q0 2.231-.121 4.45-.127 2.854-.388 5.721c-.2 2.079-.547 4.348-2.009 5.81a4.82 4.82 0 01-.28.254l-2.06-.254a211.5 211.5 0 00-42.781-.763c.311-2.148.6-4.291.877-6.446.127-1.017.254-2.041.375-3.064q.21-1.755.4-3.509.219-1.907.407-3.814.5-4.914.871-9.834.553-7.177.839-14.379.14-3.439.216-6.884.108-4.272.1-8.55 0-4.157-.07-8.327c0-.915-.038-1.831-.114-2.74a17.391 17.391 0 00-.337-2.435 31.716 31.716 0 00-1.907-5.391c-.14-.331-.273-.636-.407-.985-.076-.172-.146-.35-.216-.521 3.662-3.261 6.268-7.628 8.772-11.925 4.062-6.923 8.219-14.15 8.9-22.147s-3.293-16.979-10.934-19.42a53.1 53.1 0 00-6.42-1.189c-2.021-.356-6.236-1.163-8.575-2.613q-1.907 1.958-3.814 3.846a14.078 14.078 0 011.379-5.537l.9.044a1.726 1.726 0 01-.1-.636 3.341 3.341 0 011.475-2.3c2.994-2.543 7.7-3.109 9.592-6.547.788-1.43.922-3.134 1.557-4.634 1.824-4.278 7.062-5.855 10.215-9.275s3.941-8.264 6.49-12.078a18.192 18.192 0 017.628-6.357c.254-.121.515-.242.775-.35 5.276-2.257 11.544-2.772 17.011-2.759 2.123 0 7.628.064 10.323 1.138a3.383 3.383 0 011.176.718c2.885 3.129-1.584 9.733-3.707 11.996z"/><path class="i" d="M390.766 255.145a38.7 38.7 0 0129.712 3.1 28.1 28.1 0 0111.2 10.667c3.782 6.865 3.617 15.142 3.35 22.98-.134 3.922-.3 7.984-2.034 11.506-2 4.075-5.778 6.872-9.631 9.16a26.844 26.844 0 01-7.832 3.388c-4.272.928-8.709.14-13.012-.636-4.679-.865-9.7-1.907-12.949-5.391-1.907-2.021-2.95-4.647-3.979-7.215q-2.219-5.562-4.45-11.112c-2.574-6.427-3.445-11.773-.044-18.034 1.545-2.854 3.433-5.524 4.958-8.4.763-1.462 3.497-9.638 4.711-10.013z"/><path d="M657.929 365.035v19.007a106.35 106.35 0 01-41.148 8.137H445.345a4.82 4.82 0 01-.28.254l-2.06-.254H138.05a132.835 132.835 0 01-68.742-18.664v-29.019l146.664-16.928h.114l85.41 7.234 22.1 1.907 11.48.973 23.762 2.015 12.224 1.036 17.8 1.513 2.5.21 12.828 1.087 17.4 1.43 24.488 2.075 40.8 3.464 28.7 2.436 47.129 4 8.963.756.966.083.839.07 11.836 1 12.993 1.106 1.507.127z" fill="#6c6b75"/><path class="o" d="M485.66 364.336l-183.8-31.371-7.126 36.037 84.249 10.093 25.942 3.248 71.358-14.055z"/><path d="M390.517 380.533l92.085-17.31a3.178 3.178 0 013.776 3.134 3.178 3.178 0 01-2.6 3.134l-89.93 16.839z" fill="#9c9ca1"/><path d="M430.467 326.1a23.75 23.75 0 008.353-1.99c3.178-1.583 5.651-4.31 8.594-6.319 6.471-4.45 15.129-5.047 22.548-2.492s13.61 8.029 17.945 14.563c2.88 4.354 5.041 9.91 3.007 14.716a19.405 19.405 0 01-2.619 4.094l-5.3 6.929a18.439 18.439 0 01-3.6 3.871 15.286 15.286 0 01-6.878 2.39c-6.452.941-13.019.407-19.522.839-11.169.744-22.077 4.342-33.272 4.221-6.433-.07-12.783-1.367-19.07-2.664l-27.824-5.721c-4.844-.992-10.317-2.441-12.6-6.834a15.842 15.842 0 01-1.335-6.49c-.331-6.128 0-12.942 4.246-17.36 3.992-4.145 10.3-5.454 15.072-8.518 5.836-3.757 7.762-2.543 13.915.28a76.28 76.28 0 0038.34 6.485z" fill="#ae6e79"/><path d="M430.467 326.1a23.75 23.75 0 008.353-1.99c3.178-1.583 5.651-4.31 8.594-6.319 6.471-4.45 15.129-5.047 22.548-2.492s13.61 8.029 17.945 14.563c2.88 4.354 5.041 9.91 3.007 14.716a19.405 19.405 0 01-2.619 4.094l-5.3 6.929a18.439 18.439 0 01-3.6 3.871 15.286 15.286 0 01-6.878 2.39c-6.452.941-13.019.407-19.522.839-11.169.744-22.077 4.342-33.272 4.221-6.433-.07-12.783-1.367-19.07-2.664l-27.824-5.721c-4.844-.992-10.317-2.441-12.6-6.834a15.842 15.842 0 01-1.335-6.49c-.331-6.128 0-12.942 4.246-17.36 3.992-4.145 10.3-5.454 15.072-8.518 5.836-3.757 7.762-2.543 13.915.28a76.28 76.28 0 0038.34 6.485z" opacity=".699" fill="#ffc5d3"/><path class="l" d="M542.192 317.384c-7.806 3.019-15.657 6.052-23.832 7.851-13.705 3.02-28.046 2.543-41.643 5.995-7.183 1.831-14.322 4.78-21.7 4.183a65.034 65.034 0 01-9.694-2.034c-18.034-4.45-38.535-3.007-53.181 8.435a66.186 66.186 0 00-12.828 13.985 9.345 9.345 0 003.757 13.909 55.062 55.062 0 0018.041 4.812c8.347.737 16.731-.445 25.033-1.627 12.32-1.748 24.645-3.5 36.933-5.467 4.412-.706 8.823-1.437 13.26-2 31.93-4.036 64.439.871 96.452-2.5a29.467 29.467 0 009.472-2.168c7.45-3.5 11.137-12.714 9.6-20.812s-7.476-14.83-14.621-18.962c-5.988-3.477-12.447-4.882-19.115-6.357-6.191-1.438-9.966.469-15.934 2.757z"/><path class="s" d="M610.679 268.968c3.522 4.615 4.272 10.807 3.89 16.585s-1.755 11.493-1.958 17.3c-.28 7.959 1.64 15.892 1.316 23.825a68.554 68.554 0 01-3.1 16.318c-1.837 6.287-4.494 13.044-10.3 16.064-7.7 4.011-23.863 1.754-31.968 4.9.737-4.6 7.806-11.251 8.544-15.847.508-3.178 1.023-6.446.477-9.631-.7-4.062-3.083-7.666-5.912-10.667a31.2 31.2 0 00-16.827-9.535c-6.452-1.17-22.249-.21-27.41 3.865-.636-4.208 11.188-8.264 15.345-9.173 2.072-.464 4.45-.2 6.109-1.519 3.178-2.492.871-7.456 1.023-11.442.121-3.178 1.977-6.09 2.352-9.268.636-5.085-2.683-10.266-1.379-15.256a39.562 39.562 0 012.3-5.219c2.263-5.372 1.271-11.5.064-17.208-.75-3.585-1.481-7.628.515-10.686 1.85-2.854 7.1 7.31 10.463 6.84 11.1-1.557 21.155-9.789 30.125-3.051 4.571 3.433 5.168 6.993 6.993 11.894 1.773 4.659 6.369 7.049 9.338 10.911z"/><path class="i" d="M612.586 268.971c3.522 4.615 4.272 10.807 3.89 16.585s-1.754 11.493-1.958 17.3c-.28 7.959 1.64 15.892 1.316 23.825a68.532 68.532 0 01-3.1 16.318c-1.837 6.287-4.494 13.044-10.3 16.064-7.7 4.011-23.863 1.754-31.968 4.9.737-4.6 7.806-11.252 8.544-15.848.508-3.178 1.023-6.446.477-9.63-.7-4.062-3.083-7.667-5.912-10.667a31.194 31.194 0 00-16.827-9.535c-6.452-1.17-22.249-.21-27.411 3.865-.636-4.208 11.188-8.264 15.345-9.173 2.072-.464 4.45-.2 6.109-1.519 3.179-2.492.871-7.457 1.023-11.442.121-3.178 1.977-6.09 2.352-9.268.636-5.086-2.682-10.266-1.379-15.256a39.59 39.59 0 012.3-5.219c2.263-5.372 1.271-11.5.064-17.208-.75-3.585-1.481-7.628.515-10.686 1.85-2.854 5.467-3.935 8.83-4.412a43.493 43.493 0 0131.784 8.2c4.571 3.433 5.168 6.993 6.993 11.894 1.748 4.657 6.344 7.047 9.313 10.912z"/><path class="o" d="M191.975 238.853l34.56 127.734a7.978 7.978 0 006.935 5.855l155.565 14.945a7.971 7.971 0 008.505-9.84l-37.847-154.078a7.971 7.971 0 00-8.34-6.045l-152.3 11.391a7.971 7.971 0 00-7.075 10.037z"/><ellipse class="t" cx="17.1" cy="17.322" rx="17.1" ry="17.322" transform="translate(483.25 229.133)"/><path class="t" d="M514.392 214.855s3.6 10.718-7.031 15.225l-1.36 2.377 6.662 6.573s8.213-14.983 7.323-20.3c0-.003-1.271-5.407-5.594-3.875z"/><circle class="i" cx="16.49" cy="16.49" r="16.49" transform="translate(485.825 230.798)"/><path class="i" d="M520.069 221.162l-2.619-4.323-3.814-.54c.814-14.233-2.88-18.473-2.88-18.473l-.858-.083-3.738-.362-7.031-7.3v-2.07c9.878 1.176 15.339 5.867 18.288 11.366 5.214 9.654 2.652 21.785 2.652 21.785z"/><path d="M509.93 195.124v2.619l-3.738-.362-7.031-7.3s10.878 2.437 10.769 5.043zm10.139 26.037l-2.619-4.323v-17.436c5.181 9.624 2.619 21.759 2.619 21.759z" stroke="#4c4981" stroke-miterlimit="10" opacity=".1"/><ellipse class="t" cx="9.173" cy="16.731" rx="9.173" ry="16.731" transform="rotate(-30 652.165 -719.595)"/><path class="i" d="M465.953 238.179c4.621 8 10.292 13.349 5.906 15.892s-17.163 1.271-21.785-6.738-.426-19.07 3.96-21.613 7.292 4.437 11.919 12.459z"/><path class="s" d="M507.098 180.523c0 25.573-17.5 50.219-43.074 50.219a46.31 46.31 0 010-92.619c25.574.025 43.074 16.82 43.074 42.4z"/><circle class="l" cx="46.309" cy="46.309" r="46.309" transform="translate(417.718 136.877)"/><path d="M459.959 162.666c5.511 2.028 8.772 7.724 13.718 10.9 6.992 4.45 16.1 3.3 24.08 1.1 4.45-1.214 9.1-2.7 13.483-1.348a3.814 3.814 0 002.053.292c.954-.273 1.424-1.329 1.735-2.269 5.416-16.146 2.981-34.435-5.193-49.373a31.914 31.914 0 00-8.124-10.254 33.887 33.887 0 00-9.23-4.66 92.172 92.172 0 00-18.359-4.532 11.4 11.4 0 00-3.35-.108 14.028 14.028 0 00-4.272 1.812 43.723 43.723 0 01-18.982 5.155c-8.9.337-19.07-1.761-25.929 3.948-8.264 6.846-6.2 20.2-11.563 29.5-3.547 6.147-10.387 10.61-11.512 17.608a16.254 16.254 0 00.4 6.4 26.048 26.048 0 0024.156 19.3 9.167 9.167 0 004.933-1.011 11.157 11.157 0 002.6-2.473c7.279-8.62 15.606-25.047 29.356-19.987z" fill="#e09c4a"/><path class="s" d="M515.028 166.654c-.311.941-.782 2-1.735 2.269a3.814 3.814 0 01-2.053-.292c-4.38-1.348-9.058.133-13.476 1.348-7.99 2.2-17.113 3.375-24.08-1.1-4.952-3.178-8.207-8.9-13.724-10.9-13.75-5.085-22.077 11.366-29.375 19.986a11.157 11.157 0 01-2.6 2.473 9.167 9.167 0 01-4.933 1.011 26.116 26.116 0 01-24.151-19.306 25.627 25.627 0 01-.369-1.907.308.308 0 01-.032.165 16.254 16.254 0 00.4 6.4 26.054 26.054 0 0024.156 19.306 9.166 9.166 0 004.933-1.011 11.156 11.156 0 002.6-2.473c7.3-8.62 15.625-25.046 29.375-19.986 5.518 2.028 8.772 7.724 13.724 10.9 6.992 4.45 16.089 3.3 24.08 1.1 4.45-1.214 9.1-2.7 13.476-1.348a3.815 3.815 0 002.053.292c.953-.273 1.424-1.328 1.735-2.269a57.393 57.393 0 002.848-20.507 56.445 56.445 0 01-2.848 15.847z"/></g></svg>