<svg xmlns="http://www.w3.org/2000/svg" width="677.002" height="560.001"><defs><style>.a,.f{fill:#7b7ddd}.b{fill:#1b1943}.c{fill:#f5f6f9}.d{fill:#ababe9}.f{opacity:.797}.g{fill:#ffc5d3}</style></defs><g transform="translate(.001 -5.841)"><path class="a" d="M84.755 472.615c0 31.915-18.973 43.059-42.378 43.059S-.001 504.53-.001 472.615s42.377-72.517 42.377-72.517 42.379 40.601 42.379 72.517z"/><path class="b" d="M40.834 510.792l.434-26.71 18.063-33.044-18 28.853.2-12.01 12.446-23.907-12.395 20.733.351-21.6 13.33-19.033-13.275 15.633.219-39.607-1.378 52.433.113-2.162-13.552-20.747 13.335 24.9-1.263 24.124-.037-.641-15.624-21.833 15.576 24.093-.158 3.017-.028.045.013.248-3.2 61.2h4.273l.513-31.613 15.538-24.034z"/><ellipse class="c" cx="58.154" cy="9.692" rx="58.154" ry="9.692" transform="translate(560.693 529.869)"/><g transform="translate(-39.557 -95.848)"><path class="b" d="M117.557 127.807h596.344V449.92H117.557z"/><path class="b" d="M117.557 101.689h596.344v29.745H117.557z"/><circle class="d" cx="5.078" cy="5.078" r="5.078" transform="translate(126.989 109.67)"/><circle class="d" cx="5.078" cy="5.078" r="5.078" transform="translate(141.498 109.67)"/><circle class="d" cx="5.078" cy="5.078" r="5.078" transform="translate(156.008 109.67)"/><path opacity=".1" d="M117.557 127.807h596.344v3.627H117.557z"/><path class="f" d="M152.018 178.953h117.528v125.508H152.018z"/><path class="d" d="M159.998 170.247h117.528v125.508H159.998z"/><path class="f" d="M582.952 176.94h90.354v96.489h-90.354z"/><path class="d" d="M589.087 170.247h90.354v96.489h-90.354z"/><path class="f" d="M582.952 310.99h90.354v96.489h-90.354z"/><path class="d" d="M589.087 304.297h90.354v96.489h-90.354zm-270.209-134.05h224.173v8.706H318.878zm0 25.392h224.173v8.706H318.878zm0 25.392h224.173v8.706H318.878zm0 25.391h224.173v8.706H318.878zm0 25.392h224.173v8.706H318.878zm0 25.392h224.173v8.706H318.878zm0 25.392h224.173v8.706H318.878zm0 25.391h224.173v8.706H318.878zm0 25.392h224.173v8.706H318.878zm0 25.392h224.173v8.706H318.878z"/></g><g transform="translate(0 -72.624)"><ellipse class="c" cx="141.695" cy="23.616" rx="141.695" ry="23.616" transform="translate(5.21 591.234)"/><circle class="g" cx="21.156" cy="21.156" r="21.156" transform="translate(102.12 225.069)"/><path class="g" d="M109.586 256.183s0 22.4-3.733 24.889 29.867 4.978 29.867 4.978v-28.625zM68.518 380.627s23.645 27.378 28.623 27.378 9.956-18.667 9.956-18.667l-23.645-17.423zm118.225-123.202l3.733-26.134s2.489-36.09 9.956-27.378 2.489 28.623 2.489 28.623 3.733 28.623 0 32.356-16.178-7.467-16.178-7.467z"/><path class="b" d="M163.026 398.948l-64.638-7.121s-8.711 41.067-6.222 57.246 3.733 62.223 3.733 62.223 2.489 83.379 6.222 88.357 16.178 3.733 19.912 6.222 9.956-4.978 9.956-6.222-7.467-1.244-3.733-8.711-9.956-28.623-6.222-38.578 9.956-23.645 6.222-28.623 2.489-68.446 2.489-68.446 31.112 44.8 31.112 64.712-2.489 65.957-3.733 70.935-2.489 6.222 0 9.956 4.978 7.467 3.733 8.711 22.4 0 22.4-7.467-1.244-7.467 1.244-13.689 3.733-80.89 3.733-80.89z"/><path class="a" d="M105.853 272.358l-3.733 7.467s-39.823 12.445-41.067 38.578l33.6 56s2.489 3.733 1.244 6.222-2.489 1.245-1.244 4.978 1.244 2.489 1.244 4.978-3.733 1.245 0 2.489-1.244 0 12.445 3.733 54.757 2.489 54.757 2.489l-7.467-72.173 7.467-14.934-9.956-29.866s-6.222-1.244-9.956 1.245-8.711-2.489-8.711-2.489-6.223-8.717-28.623-8.717z"/><path class="a" d="M146.92 283.559l6.222-1.245s24.889-7.467 26.134-13.689 7.467-13.689 7.467-13.689 19.911-4.978 18.667 11.2-6.222 21.156-8.711 23.645-29.867 22.4-34.845 22.4-14.934-28.622-14.934-28.622zm-83.379 29.867l-2.489 4.978-1.244 44.8s-7.467 4.978-3.733 7.467S68.52 384.36 71.009 384.36s16.178-6.222 16.178-8.711-2.489-24.889-2.489-24.889z"/><path class="b" d="M109.587 599.654s0 12.445-1.244 14.934-3.733 14.934 3.733 14.934a30.2 30.2 0 0012.445-2.489s0-7.467 3.733-8.711 12.445-11.2 8.711-13.689-11.2-4.978-11.2-4.978zm53.512 6.222s-7.467 17.423 0 18.667 17.423 0 18.667-2.489 3.733-4.978 6.222-3.733 23.645-13.689 16.178-16.178a21.545 21.545 0 00-13.689 0l-7.467-3.733z"/><path d="M125.949 269.543a2.557 2.557 0 001.013-.28 2.617 2.617 0 00.944-1.633l2.542-9c.964-3.417 2.513-7.407 5.989-8.13a5.65 5.65 0 002.1-.558 3.631 3.631 0 001.139-2.809l1.089-11.639c.294-3.147.574-6.418-.524-9.382-1.619-4.371-6.058-7.25-10.646-8.077s-9.314.1-13.779 1.436c-6.774 2.029-13.789 5.523-16.732 11.953-1.7 3.723-1.809 7.967-1.581 12.055.235 4.209.82 8.5 2.754 12.245a36.709 36.709 0 003.73 5.482c2.1 2.719 4.677 8.035 8.154 9.05 3.918 1.139 9.837-.197 13.808-.713z" fill="#e09c4a"/></g><path class="b" d="M572.385 478.562c0 31.186 19.564 56.421 43.742 56.421"/><path class="a" d="M616.126 534.983c0-31.536 21.833-57.055 48.814-57.055m-76.707 3.461c0 29.623 12.476 53.594 27.894 53.594"/><path class="b" d="M616.126 534.984c0-40.3 25.235-72.9 56.421-72.9"/><path d="M606.925 535.381s6.2-.191 8.073-1.522 9.542-2.921 10.006-.786 9.323 10.619 2.319 10.675-16.273-1.091-18.139-2.228-2.259-6.139-2.259-6.139z" fill="#6c6b75"/></g></svg>