<svg xmlns="http://www.w3.org/2000/svg" width="430" height="290"><defs><style>.a{fill:#1b1943}.b{fill:#ababe9}.d,.g{fill:#7b7ddd}.d{opacity:.797}.e{fill:#f5f6f9}.f{fill:#ffc5d3}</style></defs><g transform="translate(72.642)"><path class="a" d="M0 13.767h324.253v169.797H0z"/><path class="a" d="M0 0h324.253v15.679H0z"/><circle class="b" cx="2.677" cy="2.677" r="2.677" transform="translate(4.972 4.207)"/><circle class="b" cx="2.677" cy="2.677" r="2.677" transform="translate(12.62 4.207)"/><circle class="b" cx="2.677" cy="2.677" r="2.677" transform="translate(20.269 4.207)"/><path opacity=".1" d="M0 13.767h324.253v1.912H0z"/><path class="d" d="M18.165 40.728h61.953v66.16H18.165z"/><path class="b" d="M22.372 36.139h61.953v66.16H22.372z"/><path class="d" d="M255.225 39.667h47.628V90.53h-47.628z"/><path class="b" d="M258.459 36.139h47.628v50.863h-47.628z"/><path class="d" d="M255.225 110.33h47.628v50.863h-47.628z"/><path class="b" d="M258.459 106.802h47.628v50.863h-47.628zM111.478 36.139h118.169v4.589H111.478zm0 13.385h118.169v4.589H111.478zm0 13.385h118.169v4.589H111.478zm0 13.385h118.169v4.589H111.478zm0 13.385h118.169v4.589H111.478zm0 13.385h118.169v4.589H111.478zm0 13.384h118.169v4.589H111.478zm0 13.385h118.169v4.589H111.478zm0 13.385h118.169v4.589H111.478zm0 13.385h118.169v4.589H111.478z"/></g><g transform="translate(2.746 60.217)"><ellipse class="e" cx="74.692" cy="12.449" rx="74.692" ry="12.449" transform="translate(0 204.885)"/><circle class="f" cx="11.152" cy="11.152" r="11.152" transform="translate(51.085 11.867)"/><path class="f" d="M55.02 28.269s0 11.808-1.968 13.12 15.744 2.624 15.744 2.624v-15.09zM33.372 93.867s12.464 14.432 15.085 14.432 5.248-9.84 5.248-9.84l-12.464-9.184zm62.321-64.943l1.968-13.776S98.973-3.876 102.909.716s1.312 15.088 1.312 15.088 1.968 15.088 0 17.056-8.528-3.936-8.528-3.936z"/><path class="a" d="M83.189 103.525l-34.073-3.754s-4.592 21.648-3.28 30.176 1.968 32.8 1.968 32.8 1.312 43.952 3.28 46.576 8.528 1.968 10.5 3.28 5.248-2.624 5.248-3.28-3.936-.656-1.968-4.592-5.248-15.088-3.28-20.336 5.248-12.464 3.28-15.088 1.312-36.08 1.312-36.08 16.4 23.616 16.4 34.112-1.312 34.768-1.968 37.392-1.312 3.28 0 5.248 2.624 3.936 1.968 4.592 11.808 0 11.808-3.936-.656-3.936.656-7.216 1.968-42.64 1.968-42.64z"/><path class="g" d="M53.052 36.795l-1.968 3.936s-20.992 6.56-21.648 20.336l17.712 29.52s1.312 1.968.656 3.28-1.312.656-.656 2.624.656 1.312.656 2.624-1.968.656 0 1.312-.656 0 6.56 1.968 28.864 1.312 28.864 1.312l-3.936-38.051 3.936-7.872L77.98 42.04s-3.28-.656-5.248.656-4.592-1.312-4.592-1.312-3.28-4.589-15.088-4.589z"/><path class="g" d="M74.7 42.699l3.28-.656s13.12-3.936 13.776-7.216 3.936-7.216 3.936-7.216 10.5-2.624 9.84 5.9-3.28 11.152-4.592 12.464-15.744 11.808-18.368 11.808S74.7 42.699 74.7 42.699zM30.748 58.444l-1.312 2.624-.656 23.616s-3.936 2.624-1.968 3.936 6.56 7.216 7.872 7.216 8.528-3.28 8.528-4.592-1.312-13.12-1.312-13.12z"/><path class="a" d="M55.021 209.324s0 6.56-.656 7.872-1.968 7.872 1.968 7.872a15.918 15.918 0 006.56-1.312s0-3.936 1.968-4.592 6.56-5.9 4.592-7.216a32.344 32.344 0 00-5.9-2.624zm28.207 3.279s-3.936 9.184 0 9.84 9.184 0 9.84-1.312 1.968-2.624 3.28-1.968 12.464-7.216 8.528-8.528a11.358 11.358 0 00-7.216 0l-3.936-1.968z"/><path d="M63.647 35.312a1.347 1.347 0 00.534-.147 1.379 1.379 0 00.5-.861l1.34-4.747c.508-1.8 1.325-3.9 3.157-4.286a2.978 2.978 0 001.106-.294 1.914 1.914 0 00.6-1.481l.574-6.135a11.219 11.219 0 00-.276-4.946 7.251 7.251 0 00-5.612-4.258 15.781 15.781 0 00-7.264.757c-3.571 1.07-7.269 2.911-8.82 6.3a13.428 13.428 0 00-.833 6.355 15.9 15.9 0 001.452 6.455 19.351 19.351 0 001.966 2.89c1.107 1.433 2.466 4.236 4.3 4.77 2.062.604 5.182-.101 7.276-.372z" fill="#e09c4a"/></g><g transform="translate(0 202.632)"><path class="g" d="M44.676 38.226c0 16.824-10 22.7-22.339 22.7S-.002 55.052-.002 38.226 22.337 0 22.337 0s22.339 21.403 22.339 38.226z"/><path class="a" d="M21.522 58.35l.229-14.08 9.521-17.419-9.486 15.21.1-6.331 6.562-12.6-6.526 10.925.185-11.387 7.027-10.033-7 8.242.115-20.878-.727 27.64.06-1.14-7.144-10.935 7.029 13.124-.665 12.72-.019-.337-8.236-11.508 8.211 12.7-.083 1.59-.015.024.007.13-1.689 32.263h2.257l.271-16.664 8.191-12.669z"/><ellipse class="e" cx="30.655" cy="5.109" rx="30.655" ry="5.109" transform="translate(368.691 68.406)"/><path class="a" d="M374.854 41.361c0 16.439 10.313 29.742 23.058 29.742"/><path class="g" d="M397.911 71.103c0-16.624 11.509-30.076 25.731-30.076m-40.434 1.824c0 15.616 6.576 28.251 14.7 28.251"/><path class="a" d="M397.911 71.101c0-21.242 13.3-38.43 29.741-38.43"/><path d="M393.061 71.312s3.27-.1 4.255-.8 5.03-1.54 5.275-.414 4.914 5.6 1.222 5.627-8.578-.575-9.562-1.174-1.19-3.239-1.19-3.239z" fill="#6c6b75"/></g></svg>