<svg xmlns="http://www.w3.org/2000/svg" width="552" height="405.297"><defs><style>.a{fill:#f5f6f9}.b{fill:#1b1943}.c{fill:#7b7ddd}.d,.e{fill:#5857bc;opacity:.3}.e{fill:none;stroke:#6c63ff;stroke-miterlimit:10;stroke-width:2px}.f{fill:#3f3d56}</style></defs><g transform="translate(-168.759 -176.093)"><ellipse class="a" cx="107.294" cy="7.059" rx="107.294" ry="7.059" transform="translate(292.995 544.917)"/><ellipse class="a" cx="50.118" cy="3.297" rx="50.118" ry="3.297" transform="translate(168.759 574.796)"/><ellipse class="a" cx="107.294" cy="7.059" rx="107.294" ry="7.059" transform="translate(506.171 528.682)"/><path class="b" d="M178.995 176.093h515.294v348H178.995z"/><circle class="c" cx="6.353" cy="6.353" r="6.353" transform="translate(188.524 182.446)"/><circle class="c" cx="6.353" cy="6.353" r="6.353" transform="translate(207.583 182.799)"/><circle class="c" cx="6.353" cy="6.353" r="6.353" transform="translate(226.642 183.152)"/><path class="d" d="M211.112 225.152h434.824v84.706H211.112z"/><path class="e" d="M211.112 309.858l434.824-84.706m0 84.706l-434.824-84.706"/><path class="d" d="M211.112 363.505h103.765V499.74H211.112zm331.059 0h103.765V499.74H542.171zm-165.529 0h103.765V499.74H376.642z"/><path class="e" d="M211.112 363.505L314.877 499.74m0-136.235L211.112 499.74m165.883-136.235L480.76 499.74m0-136.235L376.995 499.74m165.176-136.235L645.936 499.74m0-136.235L542.171 499.74"/><path class="c" d="M268.995 225.152h434.824v84.706H268.995zm292.941 170.824h103.765v136.235H561.936z"/><path class="f" d="M577.112 413.976h73.412v8.471h-73.412zm0 18.353h73.412v8.471h-73.412zm0 18.353h73.412v8.471h-73.412zm0 18.353h73.412v8.471h-73.412zm0 18.353h73.412v8.471h-73.412zm0 18.353h73.412v8.471h-73.412z"/><path class="c" d="M236.524 381.858h103.765v136.235H236.524z"/><path class="f" d="M251.7 427.388h73.412v8.471H251.7zm0 18.353h73.412v8.471H251.7zm0 18.352h73.412v8.471H251.7z"/><path class="c" d="M353.7 415.74h103.765v136.235H353.7z"/><path class="f" d="M382.289 437.27h46.588v46.588h-46.588zm-17.647 56.471h81.882v5.647h-81.882zm0 15.529h81.882v5.647h-81.882zm0 15.529h81.882v5.647h-81.882z"/><path d="M235.022 563.575c0 10.292-6.118 13.886-13.666 13.886q-.262 0-.524-.006c-.35-.007-.7-.024-1.038-.047-6.812-.482-12.1-4.261-12.1-13.833 0-9.906 12.659-22.406 13.61-23.331l.055-.053s13.663 13.092 13.663 23.384z" fill="#ababe9"/><path class="b" d="M220.86 575.887l5-6.984-5.011 7.751-.013.8c-.35-.008-.7-.024-1.038-.048l.539-10.3v-.08l.009-.015.051-.973-5.023-7.77 5.039 7.041.012.207.407-7.78-4.3-8.029 4.353 6.664.424-16.13-.071 12.72 4.282-5.043-4.3 6.138-.113 6.966 4-6.685-4.014 7.71-.063 3.873 5.8-9.3-5.825 10.656z"/></g></svg>