<svg xmlns="http://www.w3.org/2000/svg" xmlns:xlink="http://www.w3.org/1999/xlink" width="535.999" height="476.875"><defs><linearGradient id="a" x1=".579" y1="1.067" x2=".579" y2=".067" gradientUnits="objectBoundingBox"><stop offset="0" stop-color="gray" stop-opacity=".251"/><stop offset=".54" stop-color="gray" stop-opacity=".122"/><stop offset="1" stop-color="gray" stop-opacity=".102"/></linearGradient><linearGradient id="b" x1=".5" y1="1" x2=".5" y2="0" xlink:href="#a"/><linearGradient id="d" x1=".224" y1="1.369" x2=".663" y2="-.499" xlink:href="#a"/><linearGradient id="e" x1="-.804" y1="4.22" x2="-.804" y2=".949" xlink:href="#a"/><linearGradient id="f" x1="-2.856" y1="1.917" x2="-2.856" y2=".917" xlink:href="#a"/><linearGradient id="g" x1="-2.72" y1="1.861" x2="-2.72" y2=".861" xlink:href="#a"/><linearGradient id="h" x1="-2.552" y1="1.863" x2="-2.552" y2=".863" xlink:href="#a"/><style>.b,.i{fill:#5857bc}.c{fill:#f5f6f9}.aa,.d{fill:#fff}.e{fill:url(#b)}.h{fill:#dbdbdb}.i,.j{opacity:.3}.j{fill:#e48250}.p{fill:#f5f5f5}.aa{opacity:.2}</style></defs><g transform="translate(-25.566 .646)"><rect width="133.792" height="193.671" rx="13.44" transform="rotate(-12.77 250.548 -545.426)" fill="url(#a)"/><rect class="b" width="130.467" height="189.462" rx="13.44" transform="rotate(-12.77 260.514 -550.99)"/><path class="c" d="M25.566 216.693l213.847-80.65 97.88 259.536-213.846 80.65z"/><path class="d" d="M28.242 217.908l209.96-79.184L334.249 393.4l-209.96 79.183z"/><path class="b" d="M140.418 393.14l94.29-35.56 1.467 3.887-94.291 35.56zm8.798 23.318l154.553-58.288 1.466 3.887-154.553 58.288zm105.859-66.571l39.852-15.03 1.466 3.888-39.852 15.03zm-110.263 54.918l39.852-15.03 1.466 3.888-39.852 15.03zm57.336-21.63L242 368.145l1.466 3.888-39.852 15.03zm57.33-21.628l39.852-15.03 1.466 3.888-39.852 15.03zm-161.63-99.681l116.644-43.99 16.13 42.77-116.644 43.99z"/><path class="e" d="M376.021 386.706a15.121 15.121 0 00.226-2.578 14.8 14.8 0 10-23.883 11.675 14.554 14.554 0 00-.232 2.578 14.8 14.8 0 1023.889-11.675z"/><circle class="b" cx="13.45" cy="13.45" r="13.45" transform="translate(353.237 384.284)"/><circle class="e" cx="8.971" cy="8.971" r="8.971" transform="translate(376.643 420.148)"/><circle class="b" cx="7.973" cy="7.973" r="7.973" transform="translate(377.64 421.146)"/><circle class="b" cx="13.45" cy="13.45" r="13.45" transform="translate(348.249 371.329)"/><path d="M3.94 0h179.418a3.946 3.946 0 013.942 3.946v95.932a3.94 3.94 0 01-3.94 3.94H3.946A3.946 3.946 0 010 99.872V3.946A3.946 3.946 0 013.946 0z" transform="rotate(-79.98 322.93 -162.477)" fill="url(#d)"/><rect class="d" width="101.014" height="182.329" rx="13.64" transform="rotate(10.02 218.661 2626.207)"/><path class="c" d="M534.204 19.708a8.155 8.155 0 01-9.159 5.452l-34.359-6.067a8.193 8.193 0 01-6.719-8.256l-18.193-3.218a3.833 3.833 0 00-4.442 3.137l-28.806 162.956a3.839 3.839 0 003.1 4.448l86.917 15.357a3.833 3.833 0 004.448-3.137l28.8-162.988a3.833 3.833 0 00-3.137-4.448z"/><rect class="h" width="22.509" height="1.405" rx=".702" transform="rotate(9.3 153.157 3061.839)"/><circle class="h" cx=".847" cy=".847" r=".847" transform="translate(522.818 19.588)"/><path class="d" d="M466.413 39.074l27.278 4.223-3.647 23.558-27.278-4.223z"/><path class="i" d="M461.133 73.165l27.278 4.223-3.647 23.558-27.278-4.223z"/><path class="d" d="M455.86 107.263l27.278 4.223-3.647 23.558-27.278-4.223z"/><path class="j" d="M450.58 141.36l27.278 4.223-3.647 23.558-27.278-4.223z"/><path class="d" d="M499.652 49.929l35.957 5.566-.384 2.48-35.957-5.567zm-1.15 7.439l35.957 5.566-.384 2.48-35.957-5.567zm-4.037 26.039l35.957 5.566-.384 2.48-35.957-5.567zm.302 5.93l36.032 5.465-.377 2.485-36.032-5.465zm-5.481 27.55l35.957 5.566-.384 2.48-35.957-5.567zm-1.15 7.44l35.957 5.566-.384 2.48-35.957-5.567zM484.1 150.36l35.957 5.566-.384 2.48-35.957-5.567zm-1.15 7.439l35.957 5.566-.384 2.48-35.957-5.567z"/><path transform="rotate(-89.44 300.362 -60.017)" fill="url(#e)" d="M0 0h127.951v39.121H0z"/><path fill="#e0e0e0" d="M359.998 113.817l37.193.364-1.234 126.233-37.193-.364z"/><path fill="#e48250" d="M365.467 115.902l26.29.257-.256 26.29-26.291-.256z"/><path fill="#e48250" opacity=".5" d="M365.15 147.646l26.29.257-.256 26.29-26.291-.256z"/><path class="j" d="M364.84 179.385l26.29.257-.256 26.29-26.291-.256z"/><path transform="rotate(-18.05 568.18 -938.28)" fill="url(#f)" d="M0 0h39.121v127.475H0z"/><path class="p" d="M320.521 132.726l35.41-11.344 38.357 119.725-35.41 11.344z"/><path fill="#ababe9" d="M326.354 132.99l25.03-8.02 8.019 25.03-25.03 8.02z"/><path fill="#ababe9" opacity=".5" d="M336.057 163.219l25.03-8.02 8.019 25.03-25.03 8.02z"/><path fill="#ababe9" opacity=".3" d="M345.746 193.445l25.03-8.02 8.019 25.03-25.03 8.02z"/><path transform="rotate(-29.46 431.424 -494.515)" fill="url(#g)" d="M0 0h39.121v127.475H0z"/><path class="p" d="M300.643 148.408l32.397-18.3 61.875 109.539-32.397 18.3z"/><path fill="#7b7ddd" d="M306.396 147.487l22.9-12.936 12.936 22.9-22.9 12.936z"/><path fill="#7b7ddd" opacity=".5" d="M322.016 175.122l22.9-12.936 12.936 22.9-22.9 12.936z"/><path fill="#7b7ddd" opacity=".3" d="M337.64 202.758l22.9-12.936 12.936 22.9-22.9 12.936z"/><path transform="rotate(-36.68 388.494 -353.55)" fill="url(#h)" d="M0 0h39.121v127.475H0z"/><path class="d" d="M289.656 161.982l29.83-22.218 75.123 100.859-29.83 22.218z"/><path class="b" d="M295.233 160.348l21.086-15.705 15.705 21.085-21.086 15.706z"/><path opacity=".5" fill="#5857bc" d="M314.204 185.814l21.086-15.705 15.705 21.085L329.91 206.9z"/><path class="i" d="M333.165 211.269l21.086-15.705 15.705 21.085-21.086 15.706z"/><circle class="e" cx="65.87" cy="65.87" r="65.87" transform="translate(374.51 251.282)"/><circle class="p" cx="62.734" cy="62.734" r="62.734" transform="translate(377.646 254.419)"/><path class="d" d="M441.628 280.316a36.856 36.856 0 00-37.9 32.9h-10.921a1.825 1.825 0 00-1.826 1.826v4.184a1.825 1.825 0 001.826 1.832h10.928a36.856 36.856 0 1037.9-40.777z"/><circle cx="25.878" cy="25.878" r="25.878" transform="translate(414.502 291.275)" fill="#795548"/><path class="aa" d="M453.711 304.606s7.377 11.468 5.27 20.388c0 0 8.437-14.021-5.27-20.388z"/><circle class="aa" cx="2.353" cy="2.353" r="2.353" transform="translate(454.495 328.915)"/></g></svg>