<svg xmlns="http://www.w3.org/2000/svg" width="536.5" height="434.156"><defs><style>.a{fill:#5857bc}.b{fill:none;stroke:#3f3d56;stroke-miterlimit:10}.c{fill:#f5f6f9}</style></defs><g transform="translate(0 .5)"><circle class="a" cx="29.024" cy="29.024" r="29.024" transform="translate(0 10.244)"/><circle class="b" cx="29.024" cy="29.024" r="29.024" transform="translate(8.537)"/><circle class="c" cx="29.024" cy="29.024" r="29.024" transform="translate(353.413 375.608)"/><circle class="b" cx="29.024" cy="29.024" r="29.024" transform="translate(361.949 365.364)"/><path class="a" d="M89.43 106.664h397.771a23.089 23.089 0 0123.089 23.089v174.355a23.089 23.089 0 01-23.089 23.089H89.43a23.089 23.089 0 01-23.089-23.089V129.753a23.089 23.089 0 0123.089-23.089z"/><rect class="b" width="443.949" height="220.533" rx="13.524" transform="translate(92.051 87.927)"/></g><path class="c" d="M241.519 154.525l-63.727 62.93 63.727 62.93 14.338-14.338-48.193-48.194 48.591-48.592zm93.994 0l63.727 62.93-63.727 62.931-14.338-14.338 48.194-48.194-48.592-48.592z"/></svg>