<svg xmlns="http://www.w3.org/2000/svg" width="535.999" height="410.012"><defs><style>.b{fill:#1b1943}</style></defs><g transform="translate(-1218 -1973.498)"><circle cx="79.967" cy="79.967" r="79.967" transform="translate(1382.239 2061.552)" fill="#5857bc"/><path class="b" d="M1472.663 2207.952a80.582 80.582 0 1180.582-80.582 80.582 80.582 0 01-80.582 80.582zm0-159.933a79.352 79.352 0 1079.357 79.352 79.352 79.352 0 00-79.352-79.352z"/><path class="b" d="M1716.869 2244.77H1218v-271.272h498.869zm-497.639-1.229h496.409v-268.813H1219.23z"/><path d="M1234.609 1995.028h109.493v11.072h-109.493zm164.239 0h109.493v11.072h-109.493zm164.239 0h109.493v11.072h-109.493z" fill="#f5f6f9"/><path class="b" d="M1351.483 2001.179H1240.76v-12.3h110.723zm-109.493-1.23h108.263v-9.842H1241.99zm273.732 1.23h-110.723v-12.3h110.723zm-109.493-1.23h108.263v-9.842h-108.263zm273.732 1.23h-110.723v-12.3h110.723zm-109.493-1.23h108.263v-9.842h-108.263z"/><g transform="translate(1550.547 2248.466)"><circle cx="9.815" cy="9.815" r="9.815" transform="translate(127.945 114.414)" fill="none" stroke="#3f3d56" stroke-miterlimit="10" stroke-width="2"/><circle class="b" cx="9.815" cy="9.815" r="9.815" transform="translate(183.822)"/><circle cx="28.455" cy="28.455" r="28.455" transform="translate(0 7.427)" fill="#e48250"/></g></g></svg>