<svg xmlns="http://www.w3.org/2000/svg" width="536" height="425.18"><defs><linearGradient id="a" x1=".5" y1="1" x2=".5" gradientUnits="objectBoundingBox"><stop offset="0" stop-color="gray" stop-opacity=".251"/><stop offset=".54" stop-color="gray" stop-opacity=".122"/><stop offset="1" stop-color="gray" stop-opacity=".102"/></linearGradient><style>.a{fill:#1b1943}.b{fill:#fff}.c{fill:#6c63ff}.d{fill:#7b7ddd}.e{fill:url(#a)}.f{fill:#5857bc}</style></defs><g transform="translate(261.721 101.055)"><path class="a" d="M0 0h274.279v306.125H0z"/><path class="b" d="M4.531 204.388h265.21v95.07H4.531z"/><circle class="c" cx="24.799" cy="24.799" r="24.799" transform="translate(207.398 226.184)"/><path class="b" d="M4.531 105.614h265.21v95.07H4.531z"/><circle class="c" cx="24.799" cy="24.799" r="24.799" transform="translate(207.398 127.417)"/><path class="b" d="M4.531 6.84h265.21v95.07H4.531z"/><path class="d" d="M26.3 226.937h10.277v48.716H26.3zm20.287 0h10.277v48.716H46.587zm20.294 0h10.277v48.716H66.881zm20.288 0h10.277v48.716H87.169zm20.287 0h10.277v48.716h-10.277zm20.287 0h10.277v48.716h-10.277zm20.294 0h10.277v48.716h-10.277zm-101.45-98.774h10.277v48.716H46.587zm20.294 0h10.277v48.716H66.881zm20.288 0h10.277v48.716H87.169zm20.287 0h10.277v48.716h-10.277zm20.287 0h10.277v48.716h-10.277zm20.294 0h10.277v48.716h-10.277zm-121.737 0h10.277v48.716H26.3zm0-98.767h10.277v48.716H26.3zm20.287 0h10.277v48.716H46.587zm20.294 0h10.277v48.716H66.881zm20.288 0h10.277v48.716H87.169zm20.287 0h10.277v48.716h-10.277zm20.287 0h10.277v48.716h-10.277zm20.294 0h10.277v48.716h-10.277z"/><circle class="e" cx="26.734" cy="26.734" r="26.734" transform="translate(205.463 26.707)"/><circle class="f" cx="26.734" cy="26.734" r="26.734" transform="translate(205.463 126.142)"/><circle class="f" cx="26.734" cy="26.734" r="26.734" transform="translate(205.463 224.909)"/><circle class="f" cx="24.799" cy="24.799" r="24.799" transform="translate(207.398 28.642)"/></g><path class="a" d="M0 0h380.949v425.18H0z"/><path class="b" d="M6.294 283.877h368.353v132.044H6.294z"/><circle class="c" cx="34.443" cy="34.443" r="34.443" transform="translate(288.057 314.149)"/><path class="b" d="M6.294 146.688h368.353v132.044H6.294z"/><circle class="c" cx="34.443" cy="34.443" r="34.443" transform="translate(288.057 176.97)"/><path class="b" d="M6.294 9.501h368.353v132.044H6.294z"/><path class="d" d="M36.529 315.196h14.274v67.662H36.529zm28.177 0H78.98v67.662H64.706zm28.187 0h14.274v67.662H92.893zm28.177 0h14.274v67.662H121.07zm28.177 0h14.274v67.662h-14.274zm28.177 0h14.274v67.662h-14.274zm28.187 0h14.274v67.662h-14.274zM64.706 178.008H78.98v67.662H64.706zm28.187 0h14.274v67.662H92.893zm28.177 0h14.274v67.662H121.07zm28.177 0h14.274v67.662h-14.274zm28.177 0h14.274v67.662h-14.274zm28.187 0h14.274v67.662h-14.274zm-169.082 0h14.274v67.662H36.529zm0-137.179h14.274v67.662H36.529zm28.177 0H78.98v67.662H64.706zm28.187 0h14.274v67.662H92.893zm28.177 0h14.274v67.662H121.07zm28.177 0h14.274v67.662h-14.274zm28.177 0h14.274v67.662h-14.274zm28.187 0h14.274v67.662h-14.274z"/><circle class="e" cx="37.131" cy="37.131" r="37.131" transform="translate(285.369 37.094)"/><circle class="f" cx="37.131" cy="37.131" r="37.131" transform="translate(285.369 175.199)"/><circle class="f" cx="37.131" cy="37.131" r="37.131" transform="translate(285.369 312.378)"/><circle class="f" cx="34.443" cy="34.443" r="34.443" transform="translate(288.057 39.782)"/></svg>