<svg xmlns="http://www.w3.org/2000/svg" width="497.743" height="293.678"><defs><style>.b{fill:#f5f6f9}.c,.d{stroke-miterlimit:10}.c{stroke-width:2px;fill:none;stroke:#1b1950}.d{fill:#fff;stroke:#000}.e{fill:#1b1943}.f{fill:#5857bc}.g{fill:#3f3d56}.i{fill:#7b7ddd}.m,.n,.o{fill:#ababe9}.m{opacity:.4}.n{opacity:.8}</style></defs><g transform="translate(-199.577 -1105)"><g transform="translate(199.577 1106)"><circle cx="30.291" cy="30.291" r="30.291" transform="translate(388.707 41.195)" fill="#e48250"/><path class="b" d="M400.411 87.075a97.332 97.332 0 11-97.332 97.332 97.332 97.332 0 0197.332-97.332z"/><path class="c" d="M29.841 0h221.554v258.974H29.841zm0 22.36h221.554"/><circle class="d" cx="3.861" cy="3.861" r="3.861" transform="translate(237.436 7.425)"/><path class="d" d="M239.56 9.548l3.475 3.475m0-3.475l-3.475 3.475"/><circle class="c" cx="3.861" cy="3.861" r="3.861" transform="translate(237.436 7.425)"/><path class="c" d="M239.56 9.548l3.475 3.475m0-3.475l-3.475 3.475"/><path class="e" d="M45.878 8.91h34.451v4.752H45.878zm59.992 0h34.451v4.752H105.87zm59.992 0h34.451v4.752h-34.451zM80.329 57.022h119.984v14.255H80.329z"/><path class="f" d="M42.908 111.074h194.825v99.788H42.908z"/><circle class="g" cx="2.97" cy="2.97" r="2.97" transform="translate(129.035 242.343)"/><circle class="g" cx="2.97" cy="2.97" r="2.97" transform="translate(137.351 242.343)"/><circle class="g" cx="2.97" cy="2.97" r="2.97" transform="translate(145.666 242.343)"/><path class="b" d="M228.513 77.073H419.18v25.541H228.513z"/><path class="c" d="M223.478 72.465h190.667v25.541H223.478z"/><path class="e" d="M241.594 82.86h34.451v4.752h-34.451zm59.992 0h34.451v4.752h-34.451zm59.992 0h34.451v4.752h-34.451z"/><path class="b" d="M0 89.154h35.207v38.183H0z"/><path stroke="#1b1943" stroke-miterlimit="10" fill="none" stroke-width="2" d="M4.346 86.388h35.207v38.183H4.346z"/><circle class="i" cx="2.479" cy="2.479" r="2.479" transform="translate(12.776 103.248)"/><circle class="i" cx="2.479" cy="2.479" r="2.479" transform="translate(19.719 103.248)"/><circle class="i" cx="2.479" cy="2.479" r="2.479" transform="translate(26.661 103.248)"/></g><path class="e" d="M466.278 1216.444c0 35.413 22.216 64.069 49.672 64.069m0 0c0-35.811 24.792-64.789 55.431-64.789"/><path class="f" d="M484.275 1219.655c0 33.639 14.167 60.859 31.675 60.859m0 0c0-45.759 28.656-82.786 64.069-82.786"/><path d="M505.501 1280.966s7.044-.217 9.167-1.729 10.836-3.317 11.362-.892 10.586 12.058 2.633 12.122-18.479-1.239-20.6-2.529-2.562-6.972-2.562-6.972z" fill="#a8a8a8"/><path d="M528.805 1289.623c-7.953.064-18.479-1.239-20.6-2.529-1.614-.983-2.257-4.51-2.472-6.137l-.235.009s.446 5.681 2.565 6.972 12.645 2.594 20.6 2.529c2.3-.019 3.089-.835 3.045-2.045-.319.73-1.195 1.187-2.903 1.201z" opacity=".2"/><ellipse class="b" cx="85.451" cy="11.625" rx="85.451" ry="11.625" transform="translate(471.583 1375.428)"/><ellipse cx="71.742" cy="9.76" rx="71.742" ry="9.76" transform="translate(485.292 1377.293)" opacity=".1" fill="#f5f6f9"/><path class="e" d="M515.907 1265.731h95.047v110.584h-95.047z"/><path class="e" d="M506.312 1254.764h114.239v39.298H506.312zm0 46.609h114.239v39.298H506.312zm0 46.61h114.239v39.298H506.312z"/><path class="m" d="M590.392 1261.618h7.311v7.311h-7.311z"/><path class="n" d="M600.902 1261.618h7.311v7.311h-7.311z"/><path class="o" d="M611.412 1261.618h7.311v7.311h-7.311z"/><path class="m" d="M590.392 1307.771h7.311v7.311h-7.311z"/><path class="n" d="M600.902 1307.771h7.311v7.311h-7.311z"/><path class="o" d="M611.412 1307.771h7.311v7.311h-7.311z"/><path class="m" d="M590.392 1353.923h7.311v7.311h-7.311z"/><path class="n" d="M600.902 1353.923h7.311v7.311h-7.311z"/><path class="o" d="M611.412 1353.923h7.311v7.311h-7.311z"/></g></svg>