<svg xmlns="http://www.w3.org/2000/svg" width="680" height="560"><defs><style>.a{fill:#e48250}.b,.c{fill:#f5f6f9}.c{opacity:.1}.d{fill:#3f3d56}.e{fill:#7b7ddd}.i{fill:#1b1943}.o{fill:#ffb9b9}.p,.q{fill:#ffc5d3}.p{opacity:.299}.t{fill:#5857bc}</style></defs><g transform="translate(-409 -114)"><circle class="a" cx="75.678" cy="75.678" r="75.678" transform="translate(501.735 132.201)"/><path class="b" d="M831.312 114c134.381 0 243.319 108.83 243.319 243.079s-108.938 243.08-243.319 243.08-243.319-108.83-243.319-243.08S696.931 114 831.312 114z"/><ellipse class="b" cx="267.268" cy="14.369" rx="267.268" ry="14.369" transform="translate(428.931 534.161)"/><ellipse class="c" cx="200.211" cy="9.91" rx="200.211" ry="9.91" transform="translate(442.342 539.118)"/><ellipse class="b" cx="82.291" cy="4.16" rx="82.291" ry="4.16" transform="translate(409 578.756)"/><path class="d" d="M471.081 315.832h335.282v232.782H471.081z"/><path class="b" d="M497.903 338.909h44.066v44.066h-44.066z"/><path class="e" d="M497.903 410.689h44.066v44.066h-44.066z"/><path class="b" d="M497.903 482.468h44.066v44.066h-44.066z"/><path d="M562.122 352.803h209.791v3.832H562.122zm.216 12.442h65.141v3.832h-65.141zm-.216 59.342h209.791v3.832H562.122zm.216 12.443h65.141v3.832h-65.141zm-.216 59.341h209.791v3.832H562.122zm.216 12.443h65.141v3.832h-65.141z" fill="#f2f2f2"/><ellipse class="b" cx="267.268" cy="15.806" rx="267.268" ry="15.806" transform="translate(554.464 586.748)"/><path class="e" d="M517.062 558.033c0 19.5-11.591 26.309-25.892 26.309-.331 0-.662 0-.991-.012a39.676 39.676 0 01-1.968-.091c-12.907-.913-22.932-8.071-22.932-26.206 0-18.764 23.978-42.444 25.784-44.2l.1-.1s25.899 24.802 25.899 44.3z"/><path class="d" d="M490.227 581.358l9.47-13.231-9.494 14.684-.024 1.518a39.676 39.676 0 01-1.968-.091l1.02-19.508-.007-.152.017-.026.1-1.845-9.518-14.72 9.546 13.338.024.391.77-14.739-8.148-15.211 8.248 12.625.8-30.56v-.1.1l-.133 24.1 8.112-9.554-8.148 11.626-.214 13.2 7.576-12.666-7.607 14.608-.119 7.337 10.993-17.63-11.029 20.187z"/><ellipse class="c" cx="200.211" cy="10.901" rx="200.211" ry="10.901" transform="translate(569.086 592.198)"/><ellipse class="b" cx="153.156" cy="7.742" rx="153.156" ry="7.742" transform="translate(774.066 658.516)"/><path class="d" d="M605.619 419.107h306.544v182.01H605.619z"/><path class="e" d="M704.594 443.161a68.972 68.972 0 11-68.972 68.972 68.972 68.972 0 0168.972-68.972zm89.572 4.865h22.991v22.991h-22.991z"/><path opacity=".5" fill="#7b7ddd" d="M822.781 448.026h22.991v22.991h-22.991z"/><path opacity=".2" fill="#7b7ddd" d="M851.396 448.026h22.991v22.991h-22.991z"/><path class="i" d="M794.166 476.739h22.991v22.991h-22.991z"/><path fill="#1b1943" opacity=".5" d="M822.781 476.739h22.991v22.991h-22.991z"/><path fill="#1b1943" opacity=".2" d="M851.396 476.739h22.991v22.991h-22.991z"/><path class="a" d="M794.166 505.452h22.991v22.991h-22.991z"/><path opacity=".5" fill="#e48250" d="M822.781 505.452h22.991v22.991h-22.991z"/><path opacity=".2" fill="#e48250" d="M851.396 505.452h22.991v22.991h-22.991z"/><path d="M704.402 443.161v137.941c38.092 0 70.888-30.88 70.888-68.972s-32.788-68.969-70.888-68.969z" opacity=".5" fill="#3f3d56"/><path class="o" d="M976.441 432.167s40.234 18.2 25.865 39.276-57.477 61.309-58.435 69.93-6.706 16.285-6.706 16.285-19.159-20.117-17.243-22.033 21.075-20.117 22.033-24.907 29.7-42.15 29.7-42.15l-25.865-22.991z"/><path class="p" d="M976.441 432.167s40.234 18.2 25.865 39.276-57.477 61.309-58.435 69.93-6.706 16.285-6.706 16.285-19.159-20.117-17.243-22.033 21.075-20.117 22.033-24.907 29.7-42.15 29.7-42.15l-25.865-22.991z"/><path class="q" d="M925.667 472.273s27.781 11.5 25.865 29.7 33.528 69.93 33.528 69.93 3.832 12.453 2.874 16.285 24.907 2.874 24.907 2.874v-8.621s-20.117-34.486-22.033-44.066-13.411-46.94-13.411-46.94-3.832-33.528-22.991-33.528a35.923 35.923 0 00-28.739 14.366z"/><path d="M927.6 385.792s57.477 46.94 55.561 50.771-29.7 18.2-34.486 19.159-38.68-69.93-38.68-69.93z" fill="#2f2e41"/><path d="M927.6 385.792s57.477 46.94 55.561 50.771-29.7 18.2-34.486 19.159-38.68-69.93-38.68-69.93z" fill="#1b1943" opacity=".1"/><path class="i" d="M865.46 395.356s-5.748 25.865 9.579 36.4 41.192 51.729 44.066 51.729 44.066-22.033 42.15-25.865-22.991-37.36-22.991-37.36l-6.706-35.444s-58.435-1.913-66.098 10.54z"/><path class="o" d="M927.649 311.122l8.622 55.561 15.327 39.276s22.991 23.949 9.58 25.865-21.075-25.865-21.075-25.865l-12.454-22.991z"/><path class="p" d="M927.649 311.122l8.622 55.561 15.327 39.276s22.991 23.949 9.58 25.865-21.075-25.865-21.075-25.865l-12.454-22.991z"/><path class="o" d="M895.736 249.423s0 20.117-6.706 22.033 26.823 27.781 26.823 27.781-3.832-33.528 9.58-42.15z"/><path class="p" d="M895.736 249.423s0 20.117-6.706 22.033 26.823 27.781 26.823 27.781-3.832-33.528 9.58-42.15z"/><circle class="q" cx="22.033" cy="22.033" r="22.033" transform="translate(889.004 221.669)"/><path class="t" d="M912.029 289.613s-20.117-24.907-22.991-23.949-23.949 22.033-25.865 28.738-5.748 54.6-2.874 64.183 2.874 34.486 1.916 36.4-6.706 6.706-.958 6.706 25.865-14.369 39.276-11.5 31.612-.958 32.57-2.874-.958-51.729 0-55.561-1.916-22.991-2.874-26.823-.958-19.159-10.537-22.991l-4.085-.4-.229 9.476z"/><path class="q" d="M869.774 339.364s1.916 29.7 16.285 42.15 45.024 33.528 46.939 37.36 20.117 23.949 23.949 15.327a14.333 14.333 0 00.768-8.494 21.126 21.126 0 00-9.487-13.807l-8.524-5.48-42.15-44.066-1.916-22.991z"/><path class="i" d="M924.867 532.145s-11.016-2.395-14.848 4.311 3.832 24.907 3.832 24.907 22.033 45.982 25.864 40.234-2.874-26.823-2.874-26.823 9.579-21.075 5.748-22.033-17.722-9.101-17.722-20.596zm66.901 55.082s-5.748-2.874-6.706 0-6.706 17.243 0 19.159 72.8 3.832 70.888 0-12.454-8.621-19.159-10.537-23.949-16.285-23.949-16.285-9.579 12.452-21.074 7.663z"/><path d="M933.239 226.232a5.9 5.9 0 00-2.559-3.34 13.542 13.542 0 00-.54-4.408c-1.408-4.162-4.743-3.923-7.889-5.763-1.365-.8-1.281-1.5-1.991-2.815a10.448 10.448 0 00-4.026-4.107c-2.019-1.286-4.15-2.611-6.538-2.774-5.019-.342-8.867 4.378-13.663 5.893-2.114.668-4.386.7-6.512 1.327s-4.246 2.139-4.563 4.333c-.146 1.013.112 2.052-.036 3.065-.295 2.013-2.061 3.423-3.243 5.079-2.615 3.661-2.315 8.834-.225 12.818a17.985 17.985 0 001.508 2.359 14.514 14.514 0 001.592 5.389c2.091 3.984 5.689 6.961 9.447 9.434a22.316 22.316 0 01-.557-4.023 2.773 2.773 0 01.171-1.333c.418-.875 1.525-1.108 2.368-1.587 1.747-.993 2.431-3.189 2.482-5.2s-.375-4.02-.165-6.018a3.288 3.288 0 011.126-2.419 3.888 3.888 0 012.122-.506c3.578-.146 7.318-.212 10.474-1.9a15.524 15.524 0 013.26-1.649c2.682-.7 5.424 1.181 6.97 3.482s2.317 5.039 3.743 7.417 3.89 4.5 6.648 4.215a1.1 1.1 0 00.824-.366 1.234 1.234 0 00.152-.7l.154-10.542a15.93 15.93 0 00-.532-5.358z" fill="#e09c4a"/><path class="t" d="M878.607 290.574s21.075 9.579 20.117 29.7 5.748 22.033-10.537 23.949-20.117 0-21.075 1.916-6.706-44.066-2.874-48.855 14.369-6.71 14.369-6.71z"/><path class="e" d="M963.118 645.118c0 19.5-11.591 26.309-25.892 26.309-.331 0-.662 0-.991-.012a39.676 39.676 0 01-1.968-.091c-12.906-.913-22.932-8.071-22.932-26.206 0-18.764 23.978-42.444 25.785-44.2l.1-.1s25.898 24.802 25.898 44.3z"/><path class="d" d="M936.324 668.443l9.47-13.231-9.494 14.684-.024 1.518a39.773 39.773 0 01-1.969-.091l1.02-19.508-.007-.152.017-.026.1-1.844-9.518-14.72 9.547 13.338.024.391.77-14.739-8.148-15.211 8.248 12.625.8-30.56v-.1.1l-.133 24.1 8.112-9.554-8.145 11.629-.214 13.2 7.576-12.666-7.607 14.608-.119 7.337 10.993-17.63-11.032 20.183z"/></g></svg>