<svg xmlns="http://www.w3.org/2000/svg" xmlns:xlink="http://www.w3.org/1999/xlink" width="536" height="495.022"><defs><linearGradient id="a" y1=".5" x2="1" y2=".5" gradientUnits="objectBoundingBox"><stop offset="0" stop-color="gray" stop-opacity=".251"/><stop offset=".54" stop-color="gray" stop-opacity=".122"/><stop offset="1" stop-color="gray" stop-opacity=".102"/></linearGradient><linearGradient id="h" x1=".5" y1="1" x2=".5" y2="0" xlink:href="#a"/><linearGradient id="ay" x1=".5" y1=".999" x2=".5" y2="-.002" xlink:href="#a"/><linearGradient id="ba" x1=".001" y1=".501" y2=".501" xlink:href="#a"/><linearGradient id="bi" y1=".498" y2=".498" xlink:href="#a"/><linearGradient id="bl" y1=".502" y2=".502" xlink:href="#a"/><linearGradient id="br" y1=".499" y2=".499" xlink:href="#a"/><linearGradient id="bs" y1=".501" y2=".501" xlink:href="#a"/><style>.b{fill:url(#a)}.c{opacity:.1}.f{opacity:.5}.g{fill:url(#h)}.h{opacity:.6}.aa,.i{opacity:.07}.n{fill:url(#br)}.o{fill:url(#bs)}.p{fill:#535461}.aa{fill:#1b1943}.t{fill:#f5f5f5}.ab,.u{fill:#5857bc}.v{fill:#ababe9}.w{fill:#e0e0e0}.x{fill:#fff}.z{fill:#6c63ff}.ab{opacity:.602}.ad{fill:#f5f6f9}.ag{fill:#7b7ddd}</style></defs><g transform="translate(0 77.934)" opacity=".7"><path class="b" d="M368.502 143.98l-146.63-35.312v276.376l146.63-38.383z"/><g class="c"><path class="b" d="M368.502 143.98l-146.63-35.312v276.376l146.63-38.383z"/></g><path class="b" d="M75.233 143.98l146.639-35.312v276.376l-146.639-37.62z"/><path class="b" d="M75.233 143.98l146.639-35.312v276.376l-146.639-37.62z" opacity=".17"/><path class="b" d="M221.872 108.668l76-62.952 146.635 37.62-76 60.644zM0 84.099l75.233 59.881 146.639-35.312L147.4 45.716z"/><path class="b" d="M0 84.099l75.233 59.881 146.639-35.312L147.4 45.716z" opacity=".05"/><g class="f" transform="translate(113.113 76.723)"><rect class="g" width="108.838" height="100.42" rx="4.5"/></g><rect class="b" width="106.331" height="97.985" rx="4.5" transform="translate(114.44 77.498)"/><rect class="b" width="17.932" height="16.139" rx="4.5" transform="translate(122.633 93.637)"/><rect class="b" width="71.285" height="1.793" rx=".8" transform="translate(145.943 93.637)"/><rect class="b" width="71.285" height="1.793" rx=".8" transform="translate(145.943 99.015)"/><rect class="b" width="96.387" height="1.793" rx=".8" transform="translate(120.841 118.545)"/><rect class="b" width="96.387" height="1.793" rx=".8" transform="translate(120.841 123.923)"/><rect class="b" width="96.387" height="1.793" rx=".8" transform="translate(120.841 131.093)"/><rect class="b" width="55.588" height="1.793" rx=".8" transform="translate(120.841 136.477)"/><rect class="b" width="96.387" height="1.793" rx=".8" transform="translate(120.841 143.629)"/><rect class="b" width="96.387" height="1.793" rx=".8" transform="translate(120.841 149.007)"/><rect class="b" width="96.387" height="1.793" rx=".8" transform="translate(120.841 156.183)"/><rect class="b" width="55.588" height="1.793" rx=".8" transform="translate(120.841 161.561)"/><g class="f" transform="translate(129.537 99.923)"><rect class="g" width="108.838" height="100.42" rx="4.5"/></g><rect class="b" width="106.331" height="97.985" rx="4.5" transform="translate(130.863 100.705)"/><rect class="b" width="17.932" height="16.139" rx="4.5" transform="translate(139.057 116.844)"/><rect class="b" width="71.285" height="1.793" rx=".8" transform="translate(162.372 116.844)"/><rect class="b" width="71.285" height="1.793" rx=".8" transform="translate(162.372 122.221)"/><rect class="b" width="96.387" height="1.793" rx=".8" transform="translate(137.264 141.746)"/><rect class="b" width="96.387" height="1.793" rx=".8" transform="translate(137.264 147.13)"/><rect class="b" width="96.387" height="1.793" rx=".8" transform="translate(137.264 154.3)"/><rect class="b" width="55.588" height="1.793" rx=".8" transform="translate(137.264 159.678)"/><rect class="b" width="96.387" height="1.793" rx=".8" transform="translate(137.264 166.836)"/><rect class="b" width="96.387" height="1.793" rx=".8" transform="translate(137.264 172.213)"/><rect class="b" width="96.387" height="1.793" rx=".8" transform="translate(137.264 179.39)"/><rect class="b" width="55.588" height="1.793" rx=".8" transform="translate(137.264 184.767)"/><g class="f"><path class="g" d="M192.828 112.919h94.303v110.8h-94.303z"/></g><path class="b" d="M195.729 114.706h89.398v106.567h-89.398z"/><g class="f"><path class="g" d="M245.297 131.651v-2.677h-9.72v2.677h-6.837v13.148h23.376v-13.148zm-8.509-1.714h7.267v1.7h-7.267z"/></g><path class="b" d="M229.727 132.093h21.402v12.039h-21.402z"/><path class="b" d="M235.971 129.64v3.125h1.114v-2.229h6.686v2.229h1.114v-3.125zm-26.865 31.818h62.867v2.677h-62.867zm0 17.611h62.867v2.677h-62.867zm0 4.681h62.867v2.677h-62.867zm0-9.363h26.531v2.677h-26.531z"/><g class="h"><path class="b" d="M252.134 174.387h19.839v2.677h-19.839z"/></g><path class="b" d="M231.174 194.675h19.839v2.677h-19.839zM75.233 143.98v203.444l146.639 37.616v-201.9z"/><path class="b" d="M368.502 346.661l-146.63 38.379v-201.9l146.63-39.16z"/><g class="i"><path class="b" d="M368.502 346.662l-146.63 38.379v-201.9l146.63-39.16z"/></g><g class="i"><path class="b" d="M310.156 279.101v66.791l58.35-16.121V262.98z"/></g><path class="g" d="M291.764 127.012h43.246v41.55h-43.246z"/><path class="b" d="M292.442 128.029h41.889v39.685h-41.889z"/><path d="M748.4 418.023V416h-7.41v2.035h-5.19v10h17.786v-10.012zm-6.48-1.3h5.559v1.3h-5.559z" transform="translate(-431.306 -283.035)" fill="url(#ay)"/><g class="h"><path class="b" d="M305.245 135.327h16.278v9.157h-16.278z"/></g><path d="M511.88 349.06v2.38h.854v-1.7h5.087v1.7h.848v-2.38z" transform="translate(-201.887 -215.605)" fill="url(#ba)"/><g class="h"><path class="b" d="M306.177 151.605h15.091v2.035h-15.091z"/></g><path class="b" d="M300.497 155.335h25.78v2.035h-25.78z"/><g class="f"><path class="g" d="M189.243 0h56.03v46.025h-56.03z"/></g><path class="b" d="M189.897.872h54.619v44.39h-54.619z"/><path class="b" d="M189.897.872h54.619v9.901h-54.619z"/><g class="c"><path class="b" d="M189.897.872h54.619v9.901h-54.619z"/></g><path class="b" d="M194.251 14.365h45.916v5.765h-45.916z"/><path d="M194.251 24.484h33.514v1.956h-33.514zm0 3.373h21.759v1.956h-21.759zm0 3.374h28.723v1.956h-28.723z" fill="url(#bi)"/><path d="M194.251 34.598h33.514v1.956h-33.514zm0 3.373h11.204v1.956h-11.204z" fill="url(#bl)"/><g class="f"><path class="g" d="M271.622 34.561h69.45v57.041h-69.45z"/></g><path class="b" d="M272.434 35.639h67.7v55.018h-67.7z"/><path class="b" d="M272.434 35.639h67.7v12.269h-67.7zm5.389 16.721h56.908v7.146h-56.908z"/><path class="n" d="M277.823 64.902h41.538v2.428h-41.538z"/><path class="o" d="M277.823 69.08h26.973v2.428h-26.973z"/><path class="n" d="M277.823 73.265h35.603v2.428h-35.603zm0 4.179h41.538v2.428h-41.538z"/><path class="o" d="M277.823 81.622h13.892v2.428h-13.892z"/><path class="b" d="M280.791 54.788h16.182v2.156h-16.182z"/><g class="c"><path class="b" d="M73.32 249.542l82.143 20.73 66.022-53.741v-33.012L74.85 146.669z"/></g><g class="c"><path class="b" d="M369.655 249.542l-82.149 20.73-66.021-53.742v-33.011l146.633-36.85z"/></g><path class="b" d="M75.233 143.98L0 206.169l146.633 36.851 75.239-59.88zm293.269 0l76 62.189-145.859 36.85-76.771-59.879z"/><g class="i"><path class="b" d="M368.502 143.981l76 62.189-145.859 36.85-76.771-59.879z"/></g></g><path class="p" d="M368.771 220.05l-145.379-35.016v274.014l145.379-38.054z"/><path d="M368.771 220.05l-145.379-35.016v274.014l145.379-38.054z" opacity=".1"/><path class="p" d="M78.019 220.05l145.37-35.016v274.014l-145.373-37.3z"/><path d="M78.019 218.839l145.37-35.016v275.225l-145.373-37.3z" fill="#1b1943" opacity=".17"/><path class="p" d="M222.181 186.241l76.566-63.624 145.379 37.3-76.566 61.344z"/><path class="p" d="M4.639 161.888l74.591 59.373 145.373-35.016-73.824-62.413z"/><path d="M3.428 160.677l76.408 60.584 145.373-35.02-75.641-63.62z" fill="#1b1943" opacity=".05"/><g class="f" transform="translate(115.566 153.361)"><rect class="g" width="107.905" height="99.56" rx="4.5"/></g><rect class="t" width="105.416" height="97.144" rx="4.5" transform="translate(116.886 154.136)"/><rect class="u" width="17.78" height="16" rx="4.5" transform="translate(125.007 170.136)"/><rect class="v" width="70.673" height="1.78" rx=".8" transform="translate(148.123 170.136)"/><rect class="v" width="70.673" height="1.78" rx=".8" transform="translate(148.123 175.465)"/><rect class="v" width="95.563" height="1.78" rx=".8" transform="translate(123.233 194.826)"/><rect class="v" width="95.563" height="1.78" rx=".8" transform="translate(123.233 200.162)"/><rect class="v" width="95.563" height="1.78" rx=".8" transform="translate(123.233 207.271)"/><rect class="v" width="55.115" height="1.78" rx=".8" transform="translate(123.233 212.607)"/><rect class="v" width="95.563" height="1.78" rx=".8" transform="translate(123.233 219.698)"/><rect class="v" width="95.563" height="1.78" rx=".8" transform="translate(123.233 225.034)"/><rect class="v" width="95.563" height="1.78" rx=".8" transform="translate(123.233 232.143)"/><rect class="w" width="55.115" height="1.78" rx=".8" transform="translate(123.233 237.479)"/><g class="f" transform="translate(131.85 176.368)"><rect class="g" width="107.905" height="99.56" rx="4.5"/></g><rect class="x" width="105.416" height="97.144" rx="4.5" transform="translate(133.171 177.143)"/><rect class="u" width="17.78" height="16" rx="4.5" transform="translate(141.292 193.143)"/><rect class="v" width="70.673" height="1.78" rx=".8" transform="translate(164.407 193.143)"/><rect class="v" width="70.673" height="1.78" rx=".8" transform="translate(164.407 198.472)"/><rect class="v" width="95.563" height="1.78" rx=".8" transform="translate(139.517 217.833)"/><rect class="v" width="95.563" height="1.78" rx=".8" transform="translate(139.517 223.168)"/><rect class="v" width="95.563" height="1.78" rx=".8" transform="translate(139.517 230.278)"/><rect class="v" width="55.115" height="1.78" rx=".8" transform="translate(139.517 235.613)"/><rect class="v" width="95.563" height="1.78" rx=".8" transform="translate(139.517 242.705)"/><rect class="v" width="95.563" height="1.78" rx=".8" transform="translate(139.517 248.04)"/><rect class="w" width="95.563" height="1.78" rx=".8" transform="translate(139.517 255.15)"/><rect class="w" width="55.115" height="1.78" rx=".8" transform="translate(139.517 260.485)"/><g class="f"><path class="g" d="M194.602 189.255H288.1v109.849h-93.498z"/></g><path class="x" d="M197.479 191.023h88.635v105.652h-88.635z"/><path class="u" d="M231.186 208.265h21.22v11.936h-21.22zm-20.445 29.111h62.328v2.653h-62.328zm0 17.459h62.328v2.653h-62.328z"/><path class="w" d="M210.741 259.48h62.328v2.653h-62.328z"/><path class="u" d="M210.741 250.196h26.301v2.653h-26.301z"/><path fill="#3ad29f" opacity=".6" d="M253.4 250.196h19.67v2.653H253.4z"/><path class="z" d="M232.622 270.308h19.67v2.653h-19.67z"/><path class="p" d="M78.019 220.049v201.7l145.37 37.3 1.962-200.18z"/><path class="p" d="M368.771 420.989l-145.379 38.059v-200.18l145.379-38.819z"/><path class="aa" d="M368.771 420.989l-145.379 38.059v-200.18l145.379-38.819z"/><path class="aa" d="M310.925 354.014v66.216l57.847-15.982v-66.222z"/><path class="g" d="M292.691 203.226h42.876v41.193h-42.876z"/><path class="t" d="M293.363 204.231h41.532v39.346h-41.532z"/><path class="ab" d="M306.056 211.462h16.139v9.078h-16.139z"/><path class="u" d="M306.983 227.607h14.964v2.017h-14.964z" opacity=".602"/><path class="ab" d="M301.351 231.307h25.556v2.017h-25.556z"/><path class="g" d="M251.589 0h42.876v41.193h-42.876z"/><path class="ad" d="M252.261 1.011h41.532v39.346h-41.532z"/><path fill="#5857bc" opacity=".6" d="M264.954 8.236h16.139v9.078h-16.139z"/><g class="h"><path class="u" d="M265.881 24.381h14.964v2.017h-14.964z"/></g><path class="v" d="M260.249 28.081h25.556v2.017h-25.556z"/><g class="f"><path class="g" d="M191.047 77.298h55.551v45.632h-55.551z"/></g><path class="ad" d="M191.695 78.164h54.152v44.009h-54.152z"/><path class="z" d="M191.695 78.164h54.152v9.817h-54.152z"/><path fill="#5857bc" opacity=".1" d="M191.695 78.164h54.152v9.817h-54.152z"/><path class="ag" d="M196.013 91.542h45.523v5.717h-45.523z"/><path class="v" d="M196.013 101.571h33.223v1.944h-33.223zm0 3.342h21.571v1.944h-21.571zm0 3.343h28.475v1.944h-28.475zm0 3.349h33.223v1.944h-33.223zm0 3.343h11.113v1.944h-11.113z"/><g class="f"><path class="g" d="M272.718 111.563h68.856v56.557h-68.856z"/></g><path class="ad" d="M273.524 112.629h67.118v54.552h-67.118z"/><path class="u" d="M273.524 112.629h67.118v12.166h-67.118z"/><path class="ag" d="M278.871 129.21h56.423v7.085h-56.423z"/><path class="v" d="M278.871 141.643h41.181v2.404h-41.181zm0 4.148h26.743v2.404h-26.743zm0 4.143h35.294v2.404h-35.294zm0 4.148h41.181v2.404h-41.181zm0 4.142h13.771v2.404h-13.771z"/><path class="ad" d="M281.814 131.614h16.042v2.138h-16.042z"/><path d="M76.117 324.708l81.441 20.546 65.459-53.28v-32.72l-145.38-36.54zm293.799 0l-81.44 20.546-65.459-53.28v-32.72l145.379-36.54z" fill="#1b1943" opacity=".1"/><path d="M78.019 220.049l-74.591 61.65 145.373 36.536 74.591-59.367z" fill="#4f4f5e"/><path class="p" d="M368.771 220.049l75.354 61.65-144.613 36.535-76.12-59.366z"/><path class="aa" d="M368.771 220.049l75.354 61.65-144.613 36.535-76.12-59.366z"/><path class="u" d="M427.24 466.33c-4.551 17.331-20.5 28.161-20.5 28.161s-8.568-17.268-4.018-34.6 20.5-28.161 20.5-28.161 8.569 17.27 4.018 34.6z"/><path class="ag" d="M420.337 462.664c-12.747 12.593-14.173 31.818-14.173 31.818s19.24-1.193 31.987-13.787 14.173-31.818 14.173-31.818-19.24 1.193-31.987 13.787z"/><path fill="#3f3d56" d="M351.603 493.719H536v1.303H351.603z"/></svg>