<svg xmlns="http://www.w3.org/2000/svg" width="673.883" height="636.434"><defs><style>.a{fill:#ababe9}.b{fill:#1b1943}.j{fill:#ffc5d3}.g{fill:#fafbfc}.n{fill:#3f3d56}.o{fill:#5857bc}.p{fill:#f5f6f9}</style></defs><path class="a" d="M132.883 0h147v193h-147z"/><path class="b" d="M154.383 64.5h104v12h-104zm0 26h104v12h-104zm0 26h104v12h-104z"/><path class="a" d="M470.883 260h147v193h-147z"/><path class="b" d="M492.383 285.5h104v12h-104zm0 26h104v12h-104zm0 26h104v12h-104zm0 26h104v12h-104zm0 26h104v12h-104zm0 26h104v12h-104z"/><path class="a" d="M526.883 32h147v193h-147z"/><path class="b" d="M567.383 62.5h66v66h-66zm-25 80h116v8h-116zm0 22h116v8h-116zm0 22h116v8h-116z"/><g transform="translate(.003 177.434)"><path d="M92.089 361.384h23.441l57.765-22.6s41.022-16.744 37.673 15.069-9.209 74.509-9.209 74.509-18.418-8.372-28.464-5.86-3.349-51.068-3.349-51.068-82.043 39.347-89.578 34.324-9.209-40.184-9.209-40.184z" opacity=".1"/><path class="b" d="M92.089 361.384h23.441l57.765-22.6s41.022-16.744 37.673 15.069-9.209 74.509-9.209 74.509-18.418-8.372-28.464-5.86-3.349-51.068-3.349-51.068-82.043 39.347-89.578 34.324-9.209-40.184-9.209-40.184z"/><path d="M129.021 287.976l28.373 40.759 66.137 55.253s61.114 14.232 52.742 24.278-59.439-10.046-59.439-10.046-76.183-55.254-78.694-59.439-30.146-43.533-30.146-43.533z" fill="#a0616a"/><path d="M129.021 287.976l28.373 40.759 66.137 55.253s61.114 14.232 52.742 24.278-59.439-10.046-59.439-10.046-76.183-55.254-78.694-59.439-30.146-43.533-30.146-43.533z" opacity=".9" fill="#ffc5d3"/><path d="M336.871 342.746l5.44 22.442a1.4 1.4 0 01-.027.758l-24.679 77.122a1.4 1.4 0 01-2.728-.269l-3.414-30.041a1.4 1.4 0 01.06-.593l22.653-69.521a1.4 1.4 0 012.7.1z" fill="#464a5f"/><path class="g" d="M334.871 344.641l5.023 19.255-21.767 70.323-5.019-21.771z"/><path d="M225.2 449.287c.837 2.511 87.066-.837 87.9-1.674.73-1.048 3.76-2.861 4.255-4.039a3.363 3.363 0 00.191-2.836l-6.278-28.028-83.554-1.933s-2.135 22.972-2.57 33.487a25.119 25.119 0 00.056 5.023z" fill="#aaacb2"/><path d="M302.221 417.476l1.674 23.441h-37.673v-23.441zm-48.556 7.533l.225-.044-1.059 10.091h-20.933v-10.047zM225.2 449.288c.281.844 10.2 1.026 23.565.861 25.577-.316 63.782-1.979 64.338-2.535.73-1.048 3.246-2.216 3.741-3.394l-67.914.033-23.788.012a25.127 25.127 0 00.058 5.023z" fill="#464a5f" opacity=".1"/><circle class="j" cx="37.673" cy="37.673" r="37.673" transform="translate(87.066 167.997)"/><path class="j" d="M122.227 239.157s-12.558 21.767-15.069 33.487-37.673-23.441-37.673-23.441l-4.6-12.139s33.064-15.488 30.556-28.049 26.786 30.142 26.786 30.142zm6.698 65.299l34.324 45.207 82.043 61.114s59.439 12.557 46.044 21.767-51.9-8.372-51.9-8.372-82.88-44.37-100.461-62.788-50.23-49.393-50.23-49.393z"/><path class="b" d="M82.88 374.779l10.046 15.906 59.956-18.863a47.14 47.14 0 0139.249 4.735c10.465 6.593 17.162 17.057 2.093 32.545-30.138 30.976-50.23 14.232-50.23 14.232s-101.298 47.72-118.042 24.281-17.581-35.161-17.581-35.161 64.463-40.187 74.509-37.675z"/><path d="M208.457 430.033s26.79 17.581-5.023 25.952-55.254-3.349-55.254-3.349-27.627 0-27.627-14.232 9.209-15.906 9.209-15.906l28.464 4.186s34.324-9.209 50.231 3.349z" fill="#c2beef"/><path d="M155.643 196.193c2.564 1.143 5.107 2.5 7.894 2.828s5.962-.641 7.281-3.12a9.793 9.793 0 00.827-4.429c.1-4.6-.232-9.567-3.145-13.125-1.854-2.264-4.56-3.691-6.48-5.9a27.886 27.886 0 01-3.275-5.352c-3.732-7.01-9.258-13.747-16.939-15.768a36.732 36.732 0 00-9.887-.756l-19.341.273a33.673 33.673 0 00-9.3 1c-6.225 1.882-10.758 7.117-14.909 12.124a75.819 75.819 0 00-8.551 11.8 41.408 41.408 0 00-4.908 20.288 18.982 18.982 0 00.7 5.368 29.794 29.794 0 002.11 4.635c3.627 7.124 5.781 16.023 1.7 22.894 7.1-2.9 14.116-6.7 18.8-12.768 2.094-2.715 3.736-5.894 6.527-7.886s7.337-2.165 9.128.759a8.181 8.181 0 01.923 3.832c.131 2.2.127 4.475 1.058 6.467s3.147 3.6 5.264 3c3.645-1.027 3.3-6.621 6.1-9.162 2.132-1.93 5.421-1.561 8.161-2.437 3.191-1.021 5.586-3.785 6.95-6.846 1.037-2.326 1.022-8.413 2.985-9.673 2.449-1.574 8.046.937 10.327 1.954z" fill="#e09c4a"/><path class="g" d="M61.891 233.093a9.937 9.937 0 015.172.013c5.374 1.443 17.421 5.262 20 11.074 3.349 7.535 15.069 19.255 15.069 19.255s15.906 15.906 12.558 26.79-15.906 23.441-15.906 23.441 3.349 51.9-13.4 65.3-23.441 4.186-23.441 16.744-51.9 51.9-61.951 27.627c0 0 5.023-45.207 3.349-61.114-1.642-15.678.773-113.489 58.55-129.13z"/><path class="g" d="M88.743 254.226s51.068 37.673 41.859 53.579c0 0-30.975 15.069-37.673 14.232s-32.65-30.138-39.347-32.65-10.049-47.718 35.161-35.161z"/><path class="g" d="M112.181 255.063l18.418 36s-4.186 17.581-10.883 19.255-35.161-21.767-35.161-21.767z"/></g><g transform="translate(-17.048 76.684)"><path class="g" d="M223.205.229l392.546-.261.3 255.782h-393z"/><circle cx="37.824" cy="37.824" r="37.824" transform="translate(241.897 100.356)" fill="#e48250"/><path class="n" d="M592.13 89.056H380.169V44.703H592.13zm-211.027-.934h210.094V45.637H381.103z"/><path class="o" d="M365.696 53.574h211.027v43.419H365.696z"/><circle class="o" cx="3.268" cy="3.268" r="3.268" transform="translate(229.028 5.602)"/><circle class="o" cx="3.268" cy="3.268" r="3.268" transform="translate(240.233 5.602)"/><circle class="o" cx="3.268" cy="3.268" r="3.268" transform="translate(251.438 5.602)"/><path class="n" d="M616.071 255.847H222.958V0h393.113zm-392.179-.933h391.241V.934H223.892z"/><path class="n" d="M223.425 14.163H615.6v.934H223.425zm9.804-2.958a3.735 3.735 0 113.735-3.735 3.735 3.735 0 01-3.735 3.735zm0-6.536a2.8 2.8 0 102.8 2.8 2.8 2.8 0 00-2.8-2.8zm11.206 6.536a3.735 3.735 0 113.735-3.735 3.735 3.735 0 01-3.735 3.735zm0-6.536a2.8 2.8 0 102.8 2.8 2.8 2.8 0 00-2.8-2.8zm11.204 6.536a3.735 3.735 0 113.735-3.735 3.735 3.735 0 01-3.735 3.735zm0-6.536a2.8 2.8 0 102.8 2.8 2.8 2.8 0 00-2.8-2.8z"/><path class="n" d="M346.086 14.63h.934v241.113h-.934z"/><path class="p" d="M390.674 133.176h68.631v9.337h-68.631zm107.848 0h68.631v9.337h-68.631z"/><path class="n" d="M463.507 138.312h-69.565V128.04h69.564zm-68.631-.934h67.7v-8.4h-67.7z"/><path class="p" d="M390.674 205.542h68.631v9.337h-68.631z"/><path class="n" d="M463.507 210.678h-69.565v-10.272h69.564zm-68.631-.934h67.7v-8.4h-67.7z"/><path class="p" d="M390.907 168.425h176.479v9.337H390.907z"/><path class="n" d="M571.588 174.495H394.175v-10.27h177.413zm-176.479-.934h175.548v-8.4H395.109zm176.245-35.249H501.79V128.04h69.564zm-68.631-.934h67.7v-8.4h-67.7zm-216.601 28.734a38.406 38.406 0 1138.406-38.406 38.406 38.406 0 01-38.406 38.406zm0-75.649a37.242 37.242 0 1037.242 37.242 37.242 37.242 0 00-37.242-37.242z"/></g><path class="o" d="M462.89 607.131c-4.648 17.7-20.935 28.761-20.935 28.761s-8.751-17.636-4.1-35.336 20.932-28.761 20.932-28.761 8.751 17.636 4.103 35.336z"/><path d="M455.841 603.382c-13.018 12.862-14.475 32.5-14.475 32.5s19.65-1.219 32.668-14.08 14.475-32.5 14.475-32.5-19.65 1.223-32.668 14.08z" fill="#7b7ddd"/><path class="n" d="M385.641 635.103h188.328v1.331H385.641z"/></svg>